SplineFontDB: 2.0
FontName: THKrub
FullName: THKrub
FamilyName: TH Krub
Weight: Book
Copyright: Copyright (c) 2006 by Department of Intellectual Property (DIP), Ministry of Commerce and Software Industry Promotion Agency (Public Organization) (SIPA). All rights reserved.
Version: 1.1
ItalicAngle: 0
UnderlinePosition: -58
UnderlineWidth: 35
Ascent: 800
Descent: 200
Order2: 1
XUID: [1021 375 425136265 6266359]
FSType: 0
OS2Version: 3
OS2_WeightWidthSlopeOnly: 0
OS2_UseTypoMetrics: 1
CreationTime: 1158873825
ModificationTime: 1196153611
PfmFamily: 17
TTFWeight: 400
TTFWidth: 5
LineGap: 20
VLineGap: 0
Panose: 2 0 5 6 4 0 0 2 0 4
OS2TypoAscent: 0
OS2TypoAOffset: 1
OS2TypoDescent: 0
OS2TypoDOffset: 1
OS2TypoLinegap: 0
OS2WinAscent: -107
OS2WinAOffset: 1
OS2WinDescent: -188
OS2WinDOffset: 1
HheadAscent: 0
HheadAOffset: 1
HheadDescent: 150
HheadDOffset: 1
OS2SubXSize: 700
OS2SubYSize: 650
OS2SubXOff: 0
OS2SubYOff: 140
OS2SupXSize: 700
OS2SupYSize: 650
OS2SupXOff: 0
OS2SupYOff: 477
OS2StrikeYSize: 35
OS2StrikeYPos: 250
OS2FamilyClass: 2053
OS2Vendor: 'b513'
Lookup: 4 0 1 "'rlig' Required Ligatures in Latin lookup 0"  {"'rlig' Required Ligatures in Latin lookup 0 subtable"  } ['rlig' ('latn' <'dflt' > ) ]
Lookup: 4 0 0 "'frac' Diagonal Fractions in Latin lookup 1"  {"'frac' Diagonal Fractions in Latin lookup 1 subtable"  } ['frac' ('latn' <'dflt' > ) ]
Lookup: 4 0 0 "'ccmp' Glyph Composition/Decomposition in Latin lookup 2"  {"'ccmp' Glyph Composition/Decomposition in Latin lookup 2 subtable"  } ['ccmp' ('latn' <'dflt' > ) ]
Lookup: 6 0 0 "'liga' Standard Ligatures in Latin lookup 3"  {"'liga' Standard Ligatures in Latin lookup 3 subtable"  } ['liga' ('latn' <'dflt' > ) ]
Lookup: 6 0 0 "'liga' Standard Ligatures in Latin lookup 4"  {"'liga' Standard Ligatures in Latin lookup 4 subtable"  } ['liga' ('latn' <'dflt' > ) ]
Lookup: 6 0 0 "'liga' Standard Ligatures in Latin lookup 5"  {"'liga' Standard Ligatures in Latin lookup 5 subtable"  } ['liga' ('latn' <'dflt' > ) ]

StartChar: exclam
Encoding: 33 33 2
Width: 251
VWidth: 1473
Flags: W
HStem: 0 102<77 175> 696 20G<77 175>
VStem: 77 98<0 102 627.625 716> 97 58<211 299.375>
Fore
175 716 m 1,0,-1
 155 211 l 1,1,-1
 97 211 l 1,2,-1
 77 716 l 1,3,-1
 175 716 l 1,0,-1
77 0 m 1,4,-1
 77 102 l 1,5,-1
 175 102 l 1,6,-1
 175 0 l 1,7,-1
 77 0 l 1,4,-1
EndSplineSet
EndChar
StartChar: quotedbl
Encoding: 34 34 3
Width: 331
VWidth: 1473
Flags: W
VStem: 81 52<517 754 517 754 517 517> 199 51<517 754>
Fore
81 754 m 1,0,-1
 133 754 l 1,1,-1
 133 517 l 1,2,-1
 81 517 l 1,3,-1
 81 754 l 1,0,-1
199 754 m 1,4,-1
 250 754 l 1,5,-1
 250 517 l 1,6,-1
 199 517 l 1,7,-1
 199 754 l 1,4,-1
EndSplineSet
EndChar
StartChar: numbersign
Encoding: 35 35 4
Width: 530
VWidth: 1473
Flags: W
HStem: 0 21G<105 154.844 292 341.844> 225 46<25 137 190 324 377 480> 420 46<52 165 218 352 407 507>
VStem: 25 482<225 466 234 243>
Fore
480 225 m 1,0,-1
 371 225 l 1,1,-1
 339 0 l 1,2,-1
 292 0 l 1,3,-1
 324 225 l 1,4,-1
 184 225 l 1,5,-1
 152 0 l 1,6,-1
 105 0 l 1,7,-1
 137 225 l 1,8,-1
 25 225 l 1,9,-1
 25 271 l 1,10,-1
 143 271 l 1,11,-1
 165 420 l 1,12,-1
 52 420 l 1,13,-1
 52 466 l 1,14,-1
 169 466 l 1,15,-1
 202 689 l 1,16,-1
 250 689 l 1,17,-1
 218 466 l 1,18,-1
 358 466 l 1,19,-1
 389 689 l 1,20,-1
 438 689 l 1,21,-1
 407 466 l 1,22,-1
 507 466 l 1,23,-1
 507 420 l 1,24,-1
 398 420 l 1,25,-1
 377 271 l 1,26,-1
 480 271 l 1,27,-1
 480 225 l 1,0,-1
211 420 m 1,28,-1
 190 271 l 1,29,-1
 330 271 l 1,30,-1
 352 420 l 1,31,-1
 211 420 l 1,28,-1
EndSplineSet
EndChar
StartChar: dollar
Encoding: 36 36 5
Width: 623
VWidth: 1473
Flags: W
HStem: 0 53<195.797 286 339 383.861> 666 54<240.371 286 339 409.937>
VStem: 62 60<477.138 604.77> 286 53<-133 0 53 329 410 664 720 828> 520 60<120.868 246.342>
Fore
286 828 m 1,0,-1
 339 828 l 1,1,-1
 339 720 l 1,2,3
 377 719 377 719 411 706.5 c 128,-1,4
 445 694 445 694 473 675 c 128,-1,5
 501 656 501 656 521 633 c 128,-1,6
 541 610 541 610 551 588 c 1,7,8
 550 588 550 588 543 582 c 128,-1,9
 536 576 536 576 528 569.5 c 128,-1,10
 520 563 520 563 512.5 557 c 128,-1,11
 505 551 505 551 502 550 c 1,12,13
 476 598 476 598 435.5 627.5 c 128,-1,14
 395 657 395 657 339 664 c 1,15,-1
 339 393 l 1,16,17
 382 382 382 382 424.5 367 c 128,-1,18
 467 352 467 352 501.5 328.5 c 128,-1,19
 536 305 536 305 558 269.5 c 128,-1,20
 580 234 580 234 580 181 c 0,21,22
 580 130 580 130 560.5 95 c 128,-1,23
 541 60 541 60 507 39.5 c 128,-1,24
 473 19 473 19 429.5 9.5 c 128,-1,25
 386 0 386 0 339 0 c 1,26,-1
 339 -133 l 1,27,-1
 286 -133 l 1,28,-1
 286 0 l 1,29,30
 203 3 203 3 135.5 45.5 c 128,-1,31
 68 88 68 88 32 164 c 1,32,-1
 85 200 l 1,33,34
 112 140 112 140 163.5 96.5 c 128,-1,35
 215 53 215 53 286 53 c 1,36,-1
 286 342 l 1,37,38
 246 354 246 354 205.5 367 c 128,-1,39
 165 380 165 380 133.5 401.5 c 128,-1,40
 102 423 102 423 82 455.5 c 128,-1,41
 62 488 62 488 62 536 c 0,42,43
 62 588 62 588 79 622.5 c 128,-1,44
 96 657 96 657 126 678.5 c 128,-1,45
 156 700 156 700 197.5 709.5 c 128,-1,46
 239 719 239 719 286 720 c 1,47,-1
 286 828 l 1,0,-1
286 666 m 1,48,49
 253 666 253 666 223.5 659.5 c 128,-1,50
 194 653 194 653 171.5 638 c 128,-1,51
 149 623 149 623 135.5 599 c 128,-1,52
 122 575 122 575 122 541 c 0,53,54
 122 504 122 504 136 482 c 128,-1,55
 150 460 150 460 173.5 446.5 c 128,-1,56
 197 433 197 433 226 425 c 128,-1,57
 255 417 255 417 286 410 c 1,58,-1
 286 666 l 1,48,49
339 53 m 1,59,60
 374 53 374 53 406.5 61 c 128,-1,61
 439 69 439 69 464 84.5 c 128,-1,62
 489 100 489 100 504.5 125 c 128,-1,63
 520 150 520 150 520 184 c 0,64,65
 520 221 520 221 503 244 c 128,-1,66
 486 267 486 267 459.5 282.5 c 128,-1,67
 433 298 433 298 401.5 308 c 128,-1,68
 370 318 370 318 339 329 c 1,69,-1
 339 53 l 1,59,60
EndSplineSet
EndChar
StartChar: percent
Encoding: 37 37 6
Width: 879
VWidth: 1473
Flags: W
HStem: 0 53<571.589 700.238> 273 51<586.243 699.69> 390 53<192.642 292.29> 661 55<177.87 307.412>
VStem: 81 53<518.899 614.577> 352 53<502.642 617.038> 473 54<129.665 224.577> 745 53<129.665 224.577>
Fore
242 716 m 128,-1,1
 275 716 275 716 305.5 702.5 c 128,-1,2
 336 689 336 689 358 667 c 128,-1,3
 380 645 380 645 392.5 615.5 c 128,-1,4
 405 586 405 586 405 552 c 256,5,6
 405 519 405 519 392.5 489.5 c 128,-1,7
 380 460 380 460 358 437.5 c 128,-1,8
 336 415 336 415 305.5 402.5 c 128,-1,9
 275 390 275 390 242 390 c 128,-1,10
 209 390 209 390 179.5 402.5 c 128,-1,11
 150 415 150 415 128 437.5 c 128,-1,12
 106 460 106 460 93.5 489.5 c 128,-1,13
 81 519 81 519 81 552 c 256,14,15
 81 586 81 586 93.5 615.5 c 128,-1,16
 106 645 106 645 128 667 c 128,-1,17
 150 689 150 689 179.5 702.5 c 128,-1,0
 209 716 209 716 242 716 c 128,-1,1
242 661 m 0,18,19
 197 661 197 661 165 630.5 c 128,-1,20
 133 600 133 600 134 552 c 0,21,22
 133 507 133 507 165 475 c 128,-1,23
 197 443 197 443 242 443 c 0,24,25
 289 443 289 443 320.5 475 c 128,-1,26
 352 507 352 507 352 552 c 0,27,28
 352 600 352 600 320.5 630.5 c 128,-1,29
 289 661 289 661 242 661 c 0,18,19
635 324 m 0,30,31
 669 324 669 324 698.5 311.5 c 128,-1,32
 728 299 728 299 750 277 c 128,-1,33
 772 255 772 255 785 225.5 c 128,-1,34
 798 196 798 196 798 162 c 0,35,36
 798 130 798 130 785 100.5 c 128,-1,37
 772 71 772 71 750 49 c 128,-1,38
 728 27 728 27 698.5 13.5 c 128,-1,39
 669 0 669 0 635 0 c 0,40,41
 603 0 603 0 573.5 13.5 c 128,-1,42
 544 27 544 27 521.5 49 c 128,-1,43
 499 71 499 71 486 100.5 c 128,-1,44
 473 130 473 130 473 162 c 0,45,46
 473 196 473 196 486 225.5 c 128,-1,47
 499 255 499 255 521.5 277 c 128,-1,48
 544 299 544 299 573.5 311.5 c 128,-1,49
 603 324 603 324 635 324 c 0,30,31
635 273 m 0,50,51
 589 273 589 273 557.5 240.5 c 128,-1,52
 526 208 526 208 527 162 c 0,53,54
 526 116 526 116 557.5 84.5 c 128,-1,55
 589 53 589 53 635 53 c 0,56,57
 682 53 682 53 714.5 84.5 c 128,-1,58
 747 116 747 116 745 162 c 0,59,60
 747 208 747 208 714.5 240.5 c 128,-1,61
 682 273 682 273 635 273 c 0,50,51
265 -10 m 1,62,-1
 205 -10 l 1,63,-1
 614 726 l 1,64,-1
 676 726 l 1,65,-1
 265 -10 l 1,62,-1
EndSplineSet
EndChar
StartChar: ampersand
Encoding: 38 38 7
Width: 702
VWidth: 1473
Flags: W
HStem: -10 53<218.96 329.951 570.484 629> 672 54<240.213 353.771>
VStem: 41 67<108.753 241.472> 152 63<512.625 646.643> 374 65<522.864 649.747>
Fore
108 171 m 0,0,1
 108 140 108 140 121 115.5 c 128,-1,2
 134 91 134 91 156 75 c 128,-1,3
 178 59 178 59 205.5 51 c 128,-1,4
 233 43 233 43 261 43 c 0,5,6
 292 43 292 43 317.5 50 c 128,-1,7
 343 57 343 57 363 67.5 c 128,-1,8
 383 78 383 78 397 90.5 c 128,-1,9
 411 103 411 103 420 112 c 1,10,11
 402 130 402 130 377 161 c 128,-1,12
 352 192 352 192 326.5 227 c 128,-1,13
 301 262 301 262 277 296.5 c 128,-1,14
 253 331 253 331 237 357 c 1,15,16
 178 323 178 323 143 283 c 128,-1,17
 108 243 108 243 108 171 c 0,0,1
215 569 m 0,18,19
 215 535 215 535 227.5 501 c 128,-1,20
 240 467 240 467 261 438 c 1,21,22
 308 464 308 464 341 506 c 128,-1,23
 374 548 374 548 374 592 c 0,24,25
 374 626 374 626 355 649 c 128,-1,26
 336 672 336 672 295 672 c 0,27,28
 259 672 259 672 237 647.5 c 128,-1,29
 215 623 215 623 215 569 c 0,18,19
595 324 m 1,30,31
 570 208 570 208 505 113 c 1,32,33
 530 88 530 88 560.5 70 c 128,-1,34
 591 52 591 52 629 50 c 1,35,-1
 629 -10 l 1,36,37
 580 -7 580 -7 538 13.5 c 128,-1,38
 496 34 496 34 461 68 c 1,39,40
 421 29 421 29 368 9.5 c 128,-1,41
 315 -10 315 -10 258 -10 c 0,42,43
 217 -10 217 -10 177 1.5 c 128,-1,44
 137 13 137 13 107.5 36 c 128,-1,45
 78 59 78 59 59.5 94.5 c 128,-1,46
 41 130 41 130 41 175 c 0,47,48
 41 215 41 215 50.5 245 c 128,-1,49
 60 275 60 275 80 302 c 128,-1,50
 100 329 100 329 132 354.5 c 128,-1,51
 164 380 164 380 208 410 c 1,52,53
 183 448 183 448 167.5 490 c 128,-1,54
 152 532 152 532 152 576 c 0,55,56
 152 648 152 648 191 687 c 128,-1,57
 230 726 230 726 298 726 c 0,58,59
 359 726 359 726 399 690 c 128,-1,60
 439 654 439 654 439 588 c 0,61,62
 439 552 439 552 426.5 523 c 128,-1,63
 414 494 414 494 393.5 469.5 c 128,-1,64
 373 445 373 445 346.5 424.5 c 128,-1,65
 320 404 320 404 293 385 c 1,66,67
 336 324 336 324 375 264.5 c 128,-1,68
 414 205 414 205 460 156 c 1,69,70
 486 197 486 197 505 243 c 128,-1,71
 524 289 524 289 533 336 c 1,72,-1
 595 324 l 1,30,31
EndSplineSet
EndChar
StartChar: quotesingle
Encoding: 39 39 8
Width: 228
VWidth: 1473
Flags: W
VStem: 88 52<517 754 517 754 517 517>
Fore
88 754 m 1,0,-1
 140 754 l 1,1,-1
 140 517 l 1,2,-1
 88 517 l 1,3,-1
 88 754 l 1,0,-1
EndSplineSet
EndChar
StartChar: parenleft
Encoding: 40 40 9
Width: 397
VWidth: 1473
Flags: W
VStem: 81 72<321.518 455.023>
Fore
331 874 m 1,0,1
 286 819 286 819 252 758 c 128,-1,2
 218 697 218 697 196 634.5 c 128,-1,3
 174 572 174 572 163.5 509 c 128,-1,4
 153 446 153 446 153 389 c 0,5,6
 153 330 153 330 163.5 267.5 c 128,-1,7
 174 205 174 205 196 142.5 c 128,-1,8
 218 80 218 80 252 18 c 128,-1,9
 286 -44 286 -44 331 -99 c 1,10,-1
 246 -99 l 1,11,12
 205 -44 205 -44 174 18 c 128,-1,13
 143 80 143 80 122.5 142.5 c 128,-1,14
 102 205 102 205 91.5 267.5 c 128,-1,15
 81 330 81 330 81 389 c 0,16,17
 81 446 81 446 91.5 509 c 128,-1,18
 102 572 102 572 122.5 634.5 c 128,-1,19
 143 697 143 697 174 758 c 128,-1,20
 205 819 205 819 246 874 c 1,21,-1
 331 874 l 1,0,1
EndSplineSet
EndChar
StartChar: parenright
Encoding: 41 41 10
Width: 397
VWidth: 1473
Flags: W
VStem: 246 71<321.518 455.023>
Fore
66 -99 m 1,0,1
 113 -44 113 -44 147 18 c 128,-1,2
 181 80 181 80 203 142.5 c 128,-1,3
 225 205 225 205 235.5 267.5 c 128,-1,4
 246 330 246 330 246 389 c 0,5,6
 246 446 246 446 235.5 509 c 128,-1,7
 225 572 225 572 203 634.5 c 128,-1,8
 181 697 181 697 147 758 c 128,-1,9
 113 819 113 819 66 874 c 1,10,-1
 152 874 l 1,11,12
 193 819 193 819 224 758 c 128,-1,13
 255 697 255 697 275.5 634.5 c 128,-1,14
 296 572 296 572 306.5 509 c 128,-1,15
 317 446 317 446 317 389 c 0,16,17
 317 330 317 330 306.5 267.5 c 128,-1,18
 296 205 296 205 275.5 142.5 c 128,-1,19
 255 80 255 80 224 18 c 128,-1,20
 193 -44 193 -44 152 -99 c 1,21,-1
 66 -99 l 1,0,1
EndSplineSet
EndChar
StartChar: asterisk
Encoding: 42 42 11
Width: 632
VWidth: 1473
Flags: W
HStem: 538 403<281 407 281 281>
VStem: 103 426<756 762 756 756>
Fore
337 757 m 1,0,-1
 507 826 l 1,1,-1
 529 762 l 1,2,-1
 346 717 l 1,3,-1
 464 583 l 1,4,-1
 407 538 l 1,5,-1
 318 698 l 1,6,-1
 227 538 l 1,7,-1
 168 576 l 1,8,-1
 290 717 l 1,9,-1
 103 756 l 1,10,-1
 127 824 l 1,11,-1
 299 757 l 1,12,-1
 281 941 l 1,13,-1
 352 941 l 1,14,-1
 337 757 l 1,0,-1
EndSplineSet
EndChar
StartChar: plus
Encoding: 43 43 12
Width: 751
VWidth: 1473
Flags: W
HStem: 301 61<74 343 402 672>
VStem: 343 59<31 301 362 632>
Fore
343 632 m 1,0,-1
 402 632 l 1,1,-1
 402 362 l 1,2,-1
 672 362 l 1,3,-1
 672 301 l 1,4,-1
 402 301 l 1,5,-1
 402 31 l 1,6,-1
 343 31 l 1,7,-1
 343 301 l 1,8,-1
 74 301 l 1,9,-1
 74 362 l 1,10,-1
 343 362 l 1,11,-1
 343 632 l 1,0,-1
EndSplineSet
EndChar
StartChar: comma
Encoding: 44 44 13
Width: 315
VWidth: 1473
Flags: W
HStem: -171 273<134 208 208 208>
VStem: 108 100<0 102>
Fore
208 102 m 1,0,-1
 208 0 l 1,1,-1
 134 -171 l 1,2,-1
 91 -171 l 1,3,-1
 156 0 l 1,4,-1
 108 0 l 1,5,-1
 108 102 l 1,6,-1
 208 102 l 1,0,-1
EndSplineSet
EndChar
StartChar: hyphen
Encoding: 45 45 14
Width: 490
VWidth: 1473
Flags: W
HStem: 314 66<62 429 62 429 62 62>
Fore
62 314 m 1,0,-1
 62 380 l 1,1,-1
 429 380 l 1,2,-1
 429 314 l 1,3,-1
 62 314 l 1,0,-1
EndSplineSet
EndChar
StartChar: period
Encoding: 46 46 15
Width: 315
VWidth: 1473
Flags: W
HStem: 0 102<108 208>
VStem: 108 100<0 102>
Fore
108 0 m 1,0,-1
 108 102 l 1,1,-1
 208 102 l 1,2,-1
 208 0 l 1,3,-1
 108 0 l 1,0,-1
EndSplineSet
EndChar
StartChar: slash
Encoding: 47 47 16
Width: 331
VWidth: 1473
Flags: W
VStem: 0 361<-56 829 410.586 877.171>
Fore
71 -56 m 1,0,-1
 0 -56 l 1,1,-1
 296 829 l 1,2,-1
 361 829 l 1,3,-1
 71 -56 l 1,0,-1
EndSplineSet
EndChar
StartChar: zero
Encoding: 48 48 17
Width: 615
VWidth: 1473
Flags: W
HStem: -7 60<209.242 406.258> 617 59<208.757 405.865>
VStem: 46 66<220.855 443.032> 504 66<221.762 454.666>
Fore
308 53 m 256,0,1
 365 53 365 53 402.5 70.5 c 128,-1,2
 440 88 440 88 462.5 123 c 128,-1,3
 485 158 485 158 494.5 209.5 c 128,-1,4
 504 261 504 261 504 329 c 0,5,6
 504 402 504 402 494.5 456.5 c 128,-1,7
 485 511 485 511 462.5 546.5 c 128,-1,8
 440 582 440 582 402.5 599.5 c 128,-1,9
 365 617 365 617 308 617 c 256,10,11
 250 617 250 617 212.5 599.5 c 128,-1,12
 175 582 175 582 152.5 546.5 c 128,-1,13
 130 511 130 511 121 456.5 c 128,-1,14
 112 402 112 402 112 329 c 0,15,16
 112 261 112 261 121 209.5 c 128,-1,17
 130 158 130 158 152.5 123 c 128,-1,18
 175 88 175 88 212.5 70.5 c 128,-1,19
 250 53 250 53 308 53 c 256,0,1
308 -7 m 256,20,21
 237 -7 237 -7 187 15.5 c 128,-1,22
 137 38 137 38 105.5 81.5 c 128,-1,23
 74 125 74 125 60 187.5 c 128,-1,24
 46 250 46 250 46 329 c 0,25,26
 46 412 46 412 60 477 c 128,-1,27
 74 542 74 542 105 586.5 c 128,-1,28
 136 631 136 631 186 653.5 c 128,-1,29
 236 676 236 676 308 676 c 0,30,31
 451 676 451 676 510.5 586 c 128,-1,32
 570 496 570 496 570 329 c 0,33,34
 570 250 570 250 556 187.5 c 128,-1,35
 542 125 542 125 510.5 81.5 c 128,-1,36
 479 38 479 38 429 15.5 c 128,-1,37
 379 -7 379 -7 308 -7 c 256,20,21
EndSplineSet
EndChar
StartChar: one
Encoding: 49 49 18
Width: 469
VWidth: 1473
Flags: W
HStem: 0 56<80 205 271 390 80 390 80 80>
VStem: 205 66<56 585>
Fore
80 0 m 1,0,-1
 80 56 l 1,1,-1
 205 56 l 1,2,-1
 205 585 l 1,3,-1
 87 558 l 1,4,-1
 87 610 l 1,5,-1
 236 673 l 1,6,-1
 271 673 l 1,7,-1
 271 56 l 1,8,-1
 390 56 l 1,9,-1
 390 0 l 1,10,-1
 80 0 l 1,0,-1
EndSplineSet
EndChar
StartChar: two
Encoding: 50 50 19
Width: 549
VWidth: 1473
Flags: W
HStem: 0 60<118 482> 620 59<200.307 369.048>
VStem: 60 67<491.457 584.177> 415 67<420.368 572.73>
Fore
60 488 m 1,0,1
 77 579 77 579 136.5 629 c 128,-1,2
 196 679 196 679 283 679 c 0,3,4
 385 679 385 679 433.5 628 c 128,-1,5
 482 577 482 577 482 489 c 0,6,7
 482 408 482 408 439 355 c 128,-1,8
 396 302 396 302 303 249 c 0,9,10
 242 214 242 214 205 186.5 c 128,-1,11
 168 159 168 159 149 137 c 128,-1,12
 130 115 130 115 124 96.5 c 128,-1,13
 118 78 118 78 118 60 c 1,14,-1
 482 60 l 1,15,-1
 482 0 l 1,16,-1
 53 0 l 1,17,-1
 53 57 l 2,18,19
 53 82 53 82 57.5 106 c 128,-1,20
 62 130 62 130 82.5 158 c 128,-1,21
 103 186 103 186 146 219 c 128,-1,22
 189 252 189 252 265 295 c 0,23,24
 314 321 314 321 343.5 344 c 128,-1,25
 373 367 373 367 389 389 c 128,-1,26
 405 411 405 411 410 435.5 c 128,-1,27
 415 460 415 460 415 488 c 0,28,29
 415 550 415 550 384.5 585 c 128,-1,30
 354 620 354 620 275 620 c 0,31,32
 225 620 225 620 184.5 587 c 128,-1,33
 144 554 144 554 127 479 c 1,34,-1
 60 488 l 1,0,1
EndSplineSet
EndChar
StartChar: three
Encoding: 51 51 20
Width: 561
VWidth: 1473
Flags: W
HStem: -9 59<186.915 374.021> 327 60<180 350.957> 620 59<189.83 350.925>
VStem: 407 66<437.208 588.154> 429 66<102.787 267.478>
Fore
99 153 m 1,0,1
 115 121 115 121 130.5 100.5 c 128,-1,2
 146 80 146 80 166 68.5 c 128,-1,3
 186 57 186 57 211 53.5 c 128,-1,4
 236 50 236 50 268 50 c 0,5,6
 352 50 352 50 390.5 83 c 128,-1,7
 429 116 429 116 429 187 c 0,8,9
 429 261 429 261 381.5 294 c 128,-1,10
 334 327 334 327 240 327 c 2,11,-1
 180 327 l 1,12,-1
 180 387 l 1,13,-1
 230 387 l 2,14,15
 321 387 321 387 364 416.5 c 128,-1,16
 407 446 407 446 407 514 c 0,17,18
 407 576 407 576 374.5 598 c 128,-1,19
 342 620 342 620 273 620 c 0,20,21
 225 620 225 620 190 599.5 c 128,-1,22
 155 579 155 579 119 536 c 1,23,-1
 69 575 l 1,24,25
 116 631 116 631 170 655 c 128,-1,26
 224 679 224 679 278 679 c 0,27,28
 317 679 317 679 351.5 671.5 c 128,-1,29
 386 664 386 664 413 646 c 128,-1,30
 440 628 440 628 456.5 597 c 128,-1,31
 473 566 473 566 473 519 c 0,32,33
 473 451 473 451 449.5 413.5 c 128,-1,34
 426 376 426 376 365 359 c 1,35,36
 421 348 421 348 458 309 c 128,-1,37
 495 270 495 270 495 190 c 0,38,39
 495 84 495 84 435.5 37.5 c 128,-1,40
 376 -9 376 -9 265 -9 c 0,41,42
 183 -9 183 -9 126 23.5 c 128,-1,43
 69 56 69 56 40 125 c 1,44,-1
 99 153 l 1,0,1
EndSplineSet
EndChar
StartChar: four
Encoding: 52 52 21
Width: 522
VWidth: 1473
Flags: W
HStem: 0 21G<327 393> 146 60<87 327 393 496>
VStem: 327 66<0 146 206 604>
Fore
87 206 m 1,0,-1
 327 206 l 1,1,-1
 327 604 l 1,2,-1
 321 604 l 1,3,-1
 87 206 l 1,0,-1
13 203 m 1,4,-1
 308 673 l 1,5,-1
 393 673 l 1,6,-1
 393 206 l 1,7,-1
 496 206 l 1,8,-1
 496 146 l 1,9,-1
 393 146 l 1,10,-1
 393 0 l 1,11,-1
 327 0 l 1,12,-1
 327 146 l 1,13,-1
 13 146 l 1,14,-1
 13 203 l 1,4,-1
EndSplineSet
EndChar
StartChar: five
Encoding: 53 53 22
Width: 568
VWidth: 1473
Flags: W
HStem: -9 59<216.81 374.014> 380 60<263.568 397.214> 614 59<177 467>
VStem: 66 450<116 225 116 116> 449 67<145.073 327.74>
Fore
90 305 m 1,0,-1
 121 673 l 1,1,-1
 467 673 l 1,2,-1
 467 614 l 1,3,-1
 177 614 l 1,4,-1
 158 390 l 1,5,6
 189 420 189 420 228 430 c 128,-1,7
 267 440 267 440 312 440 c 0,8,9
 410 440 410 440 463 383.5 c 128,-1,10
 516 327 516 327 516 225 c 0,11,12
 516 115 516 115 457 53 c 128,-1,13
 398 -9 398 -9 283 -9 c 0,14,15
 252 -9 252 -9 219.5 -1 c 128,-1,16
 187 7 187 7 158.5 22.5 c 128,-1,17
 130 38 130 38 105.5 61.5 c 128,-1,18
 81 85 81 85 66 116 c 1,19,-1
 116 149 l 1,20,21
 144 93 144 93 190.5 71.5 c 128,-1,22
 237 50 237 50 289 50 c 0,23,24
 334 50 334 50 365 62.5 c 128,-1,25
 396 75 396 75 414.5 97 c 128,-1,26
 433 119 433 119 441 151 c 128,-1,27
 449 183 449 183 449 221 c 0,28,29
 449 311 449 311 414 345.5 c 128,-1,30
 379 380 379 380 302 380 c 0,31,32
 281 380 281 380 257 375 c 128,-1,33
 233 370 233 370 210 360.5 c 128,-1,34
 187 351 187 351 168 335.5 c 128,-1,35
 149 320 149 320 140 298 c 1,36,-1
 90 305 l 1,0,-1
EndSplineSet
EndChar
StartChar: six
Encoding: 54 54 23
Width: 590
VWidth: 1473
Flags: W
HStem: -9 61<236.214 401.232> 359 59<235.999 407.38> 620 59<215.944 356.804>
VStem: 66 68<193.024 357.46 330 425.785> 471 67<115.409 289.861>
Fore
452 572 m 1,0,1
 423 598 423 598 387.5 609 c 128,-1,2
 352 620 352 620 312 620 c 0,3,4
 255 620 255 620 219.5 602.5 c 128,-1,5
 184 585 184 585 164 548 c 128,-1,6
 144 511 144 511 137.5 457.5 c 128,-1,7
 131 404 131 404 131 330 c 1,8,9
 165 368 165 368 217.5 393 c 128,-1,10
 270 418 270 418 321 418 c 256,11,12
 373 418 373 418 413.5 401.5 c 128,-1,13
 454 385 454 385 481 355.5 c 128,-1,14
 508 326 508 326 523 286 c 128,-1,15
 538 246 538 246 538 199 c 0,16,17
 538 150 538 150 519.5 112 c 128,-1,18
 501 74 501 74 470 47.5 c 128,-1,19
 439 21 439 21 398 6 c 128,-1,20
 357 -9 357 -9 311 -9 c 0,21,22
 240 -9 240 -9 193.5 14 c 128,-1,23
 147 37 147 37 118.5 78 c 128,-1,24
 90 119 90 119 78 179 c 128,-1,25
 66 239 66 239 66 311 c 0,26,27
 66 399 66 399 78.5 467.5 c 128,-1,28
 91 536 91 536 120 583.5 c 128,-1,29
 149 631 149 631 196 655 c 128,-1,30
 243 679 243 679 314 679 c 0,31,32
 358 679 358 679 408 665 c 128,-1,33
 458 651 458 651 494 623 c 1,34,-1
 452 572 l 1,0,1
471 209 m 0,35,36
 471 278 471 278 431.5 318.5 c 128,-1,37
 392 359 392 359 312 359 c 0,38,39
 275 359 275 359 242 344 c 128,-1,40
 209 329 209 329 185.5 308 c 128,-1,41
 162 287 162 287 148 267 c 128,-1,42
 134 247 134 247 134 239 c 0,43,44
 134 184 134 184 147.5 147 c 128,-1,45
 161 110 161 110 184.5 89.5 c 128,-1,46
 208 69 208 69 241 60.5 c 128,-1,47
 274 52 274 52 312 52 c 0,48,49
 471 52 471 52 471 209 c 0,35,36
EndSplineSet
EndChar
StartChar: seven
Encoding: 55 55 24
Width: 493
VWidth: 1473
Flags: W
HStem: 0 21G<106 190.108> 614 59<53 392>
VStem: 53 414<628 673>
Fore
53 673 m 1,0,-1
 467 673 l 1,1,-1
 467 628 l 1,2,-1
 181 0 l 1,3,-1
 106 0 l 1,4,-1
 392 614 l 1,5,-1
 53 614 l 1,6,-1
 53 673 l 1,0,-1
EndSplineSet
EndChar
StartChar: eight
Encoding: 56 56 25
Width: 577
VWidth: 1473
Flags: W
HStem: -9 59<183.507 393.271> 622 59<197.378 380.144>
VStem: 53 66<105.393 239.413> 78 65<452.809 573.407> 433 65<452.239 573.968> 458 66<105.393 239.413>
Fore
289 681 m 0,0,1
 386 681 386 681 442 636.5 c 128,-1,2
 498 592 498 592 498 507 c 0,3,4
 498 463 498 463 465.5 421 c 128,-1,5
 433 379 433 379 370 357 c 1,6,7
 457 318 457 318 490.5 271 c 128,-1,8
 524 224 524 224 524 172 c 0,9,10
 524 81 524 81 459.5 36 c 128,-1,11
 395 -9 395 -9 289 -9 c 0,12,13
 184 -9 184 -9 118.5 36 c 128,-1,14
 53 81 53 81 53 172 c 0,15,16
 53 224 53 224 86 271 c 128,-1,17
 119 318 119 318 206 357 c 1,18,19
 144 379 144 379 111 421 c 128,-1,20
 78 463 78 463 78 507 c 0,21,22
 78 592 78 592 135.5 636.5 c 128,-1,23
 193 681 193 681 289 681 c 0,0,1
119 172 m 0,24,25
 119 113 119 113 166.5 81.5 c 128,-1,26
 214 50 214 50 289 50 c 256,27,28
 364 50 364 50 411 81.5 c 128,-1,29
 458 113 458 113 458 172 c 0,30,31
 458 227 458 227 414.5 261.5 c 128,-1,32
 371 296 371 296 289 329 c 1,33,34
 206 296 206 296 162.5 261.5 c 128,-1,35
 119 227 119 227 119 172 c 0,24,25
143 510 m 0,36,37
 143 467 143 467 185 433 c 128,-1,38
 227 399 227 399 289 382 c 1,39,40
 352 399 352 399 392.5 433 c 128,-1,41
 433 467 433 467 433 510 c 0,42,43
 433 560 433 560 394 591 c 128,-1,44
 355 622 355 622 289 622 c 256,45,46
 222 622 222 622 182.5 591 c 128,-1,47
 143 560 143 560 143 510 c 0,36,37
EndSplineSet
EndChar
StartChar: nine
Encoding: 57 57 26
Width: 590
VWidth: 1473
Flags: W
HStem: -7 57<232.896 371.788> 252 60<182.805 354.862> 620 61<189.268 353.658>
VStem: 53 66<381.032 555.58> 458 66<247.024 342 313.885 479.866>
Fore
138 100 m 1,0,1
 168 72 168 72 203.5 61 c 128,-1,2
 239 50 239 50 277 50 c 0,3,4
 334 50 334 50 369.5 68.5 c 128,-1,5
 405 87 405 87 425 123 c 128,-1,6
 445 159 445 159 451.5 214.5 c 128,-1,7
 458 270 458 270 458 342 c 1,8,9
 424 303 424 303 372.5 277.5 c 128,-1,10
 321 252 321 252 270 252 c 256,11,12
 218 252 218 252 177.5 269 c 128,-1,13
 137 286 137 286 109.5 315.5 c 128,-1,14
 82 345 82 345 67.5 385.5 c 128,-1,15
 53 426 53 426 53 473 c 0,16,17
 53 522 53 522 71.5 560 c 128,-1,18
 90 598 90 598 121 624.5 c 128,-1,19
 152 651 152 651 193 666 c 128,-1,20
 234 681 234 681 280 681 c 0,21,22
 351 681 351 681 397 658 c 128,-1,23
 443 635 443 635 472 593 c 128,-1,24
 501 551 501 551 512.5 492 c 128,-1,25
 524 433 524 433 524 361 c 0,26,27
 524 273 524 273 511.5 204.5 c 128,-1,28
 499 136 499 136 470.5 88.5 c 128,-1,29
 442 41 442 41 394 17 c 128,-1,30
 346 -7 346 -7 275 -7 c 0,31,32
 233 -7 233 -7 182 7 c 128,-1,33
 131 21 131 21 97 47 c 1,34,-1
 138 100 l 1,0,1
119 461 m 0,35,36
 119 392 119 392 159 352 c 128,-1,37
 199 312 199 312 278 312 c 0,38,39
 317 312 317 312 349.5 327.5 c 128,-1,40
 382 343 382 343 405.5 363 c 128,-1,41
 429 383 429 383 443 403.5 c 128,-1,42
 457 424 457 424 457 433 c 0,43,44
 457 489 457 489 443.5 525 c 128,-1,45
 430 561 430 561 406 582 c 128,-1,46
 382 603 382 603 349.5 611.5 c 128,-1,47
 317 620 317 620 278 620 c 0,48,49
 119 620 119 620 119 461 c 0,35,36
EndSplineSet
EndChar
StartChar: colon
Encoding: 58 58 27
Width: 331
VWidth: 1473
Flags: W
HStem: 0 108<113 218> 364 107<113 218>
VStem: 113 105<0 108 364 471>
Fore
113 0 m 1,0,-1
 113 108 l 1,1,-1
 218 108 l 1,2,-1
 218 0 l 1,3,-1
 113 0 l 1,0,-1
113 364 m 1,4,-1
 113 471 l 1,5,-1
 218 471 l 1,6,-1
 218 364 l 1,7,-1
 113 364 l 1,4,-1
EndSplineSet
EndChar
StartChar: semicolon
Encoding: 59 59 28
Width: 331
VWidth: 1473
Flags: W
HStem: 364 107<113 218>
VStem: 113 105<0 108 364 471>
Fore
218 108 m 1,0,-1
 218 0 l 1,1,-1
 141 -180 l 1,2,-1
 96 -180 l 1,3,-1
 165 0 l 1,4,-1
 113 0 l 1,5,-1
 113 108 l 1,6,-1
 218 108 l 1,0,-1
113 364 m 1,7,-1
 113 471 l 1,8,-1
 218 471 l 1,9,-1
 218 364 l 1,10,-1
 113 364 l 1,7,-1
EndSplineSet
EndChar
StartChar: less
Encoding: 60 60 29
Width: 715
VWidth: 1473
Flags: W
HStem: -7 21G<625.197 669>
Fore
669 -7 m 1,0,-1
 47 277 l 1,1,-1
 47 343 l 1,2,-1
 669 628 l 1,3,-1
 669 558 l 1,4,-1
 128 311 l 1,5,-1
 669 62 l 1,6,-1
 669 -7 l 1,0,-1
EndSplineSet
EndChar
StartChar: equal
Encoding: 61 61 30
Width: 577
VWidth: 1473
Flags: W
HStem: 203 64<52 526> 412 64<52 526>
VStem: 52 474<203 267 412 476 203 476 203 203>
Fore
526 412 m 1,0,-1
 52 412 l 1,1,-1
 52 476 l 1,2,-1
 526 476 l 1,3,-1
 526 412 l 1,0,-1
526 203 m 1,4,-1
 52 203 l 1,5,-1
 52 267 l 1,6,-1
 526 267 l 1,7,-1
 526 203 l 1,4,-1
EndSplineSet
EndChar
StartChar: greater
Encoding: 62 62 31
Width: 715
VWidth: 1473
Flags: W
HStem: -7 21G<47 90.8028>
Fore
47 62 m 1,0,-1
 588 311 l 1,1,-1
 47 558 l 1,2,-1
 47 628 l 1,3,-1
 669 343 l 1,4,-1
 669 277 l 1,5,-1
 47 -7 l 1,6,-1
 47 62 l 1,0,-1
EndSplineSet
EndChar
StartChar: question
Encoding: 63 63 32
Width: 486
VWidth: 1473
Flags: W
HStem: 0 108<168 271> 742 65<194.003 283.665>
VStem: 168 103<0 108> 192 63<203 326.576> 383 68<548.218 679.178>
Fore
34 653 m 1,0,1
 59 720 59 720 114 763.5 c 128,-1,2
 169 807 169 807 247 807 c 0,3,4
 286 807 286 807 322 794.5 c 128,-1,5
 358 782 358 782 386.5 758 c 128,-1,6
 415 734 415 734 433 697 c 128,-1,7
 451 660 451 660 451 613 c 0,8,9
 451 573 451 573 436 542 c 128,-1,10
 421 511 421 511 400 484 c 128,-1,11
 379 457 379 457 353 432.5 c 128,-1,12
 327 408 327 408 305.5 382.5 c 128,-1,13
 284 357 284 357 269.5 327.5 c 128,-1,14
 255 298 255 298 255 261 c 2,15,-1
 255 203 l 1,16,-1
 192 203 l 1,17,-1
 192 275 l 2,18,19
 192 327 192 327 222 372 c 128,-1,20
 252 417 252 417 287.5 457.5 c 128,-1,21
 323 498 323 498 353 536.5 c 128,-1,22
 383 575 383 575 383 614 c 0,23,24
 383 648 383 648 371 671.5 c 128,-1,25
 359 695 359 695 339.5 711.5 c 128,-1,26
 320 728 320 728 295.5 735 c 128,-1,27
 271 742 271 742 246 742 c 0,28,29
 217 742 217 742 191.5 730.5 c 128,-1,30
 166 719 166 719 147 701.5 c 128,-1,31
 128 684 128 684 115 663 c 128,-1,32
 102 642 102 642 94 623 c 1,33,-1
 34 653 l 1,0,1
168 0 m 1,34,-1
 168 108 l 1,35,-1
 271 108 l 1,36,-1
 271 0 l 1,37,-1
 168 0 l 1,34,-1
EndSplineSet
EndChar
StartChar: at
Encoding: 64 64 33
Width: 852
VWidth: 1473
Flags: W
HStem: -10 45<331.783 527.634> 137 52<307.867 421.271 535.415 623.511> 532 51<384.536 487.118> 689 45<327.841 555.154>
VStem: 74 51<241.246 479.059> 212 65<221.002 361.348> 728 51<333.63 530.878>
Fore
364 189 m 0,0,1
 399 189 399 189 430 214.5 c 128,-1,2
 461 240 461 240 484 277.5 c 128,-1,3
 507 315 507 315 520 358 c 128,-1,4
 533 401 533 401 533 435 c 0,5,6
 533 452 533 452 526.5 470 c 128,-1,7
 520 488 520 488 509 502 c 128,-1,8
 498 516 498 516 483 524 c 128,-1,9
 468 532 468 532 454 532 c 0,10,11
 414 532 414 532 381.5 508.5 c 128,-1,12
 349 485 349 485 326 448.5 c 128,-1,13
 303 412 303 412 290 370.5 c 128,-1,14
 277 329 277 329 277 292 c 0,15,16
 277 246 277 246 301.5 217.5 c 128,-1,17
 326 189 326 189 364 189 c 0,0,1
592 564 m 1,18,-1
 647 564 l 1,19,-1
 550 268 l 2,20,21
 544 252 544 252 539.5 238 c 128,-1,22
 535 224 535 224 535 212 c 0,23,24
 535 186 535 186 563 186 c 0,25,26
 592 186 592 186 621.5 207 c 128,-1,27
 651 228 651 228 674.5 263 c 128,-1,28
 698 298 698 298 713 341.5 c 128,-1,29
 728 385 728 385 728 427 c 0,30,31
 728 488 728 488 704.5 535.5 c 128,-1,32
 681 583 681 583 642 618 c 128,-1,33
 603 653 603 653 551 671 c 128,-1,34
 499 689 499 689 443 689 c 0,35,36
 376 689 376 689 317 662.5 c 128,-1,37
 258 636 258 636 216 591.5 c 128,-1,38
 174 547 174 547 149.5 486.5 c 128,-1,39
 125 426 125 426 125 358 c 0,40,41
 125 292 125 292 150 233 c 128,-1,42
 175 174 175 174 218.5 130.5 c 128,-1,43
 262 87 262 87 320.5 61 c 128,-1,44
 379 35 379 35 445 35 c 0,45,46
 522 35 522 35 594.5 71.5 c 128,-1,47
 667 108 667 108 712 174 c 1,48,-1
 763 174 l 1,49,50
 740 131 740 131 706 97 c 128,-1,51
 672 63 672 63 630 39 c 128,-1,52
 588 15 588 15 541 2.5 c 128,-1,53
 494 -10 494 -10 445 -10 c 0,54,55
 365 -10 365 -10 297.5 19.5 c 128,-1,56
 230 49 230 49 180.5 100.5 c 128,-1,57
 131 152 131 152 102.5 220.5 c 128,-1,58
 74 289 74 289 74 365 c 256,59,60
 74 442 74 442 103.5 509 c 128,-1,61
 133 576 133 576 183 626 c 128,-1,62
 233 676 233 676 300 705 c 128,-1,63
 367 734 367 734 442 734 c 0,64,65
 513 734 513 734 574.5 711 c 128,-1,66
 636 688 636 688 682 647.5 c 128,-1,67
 728 607 728 607 753.5 550.5 c 128,-1,68
 779 494 779 494 779 426 c 0,69,70
 779 367 779 367 758.5 314.5 c 128,-1,71
 738 262 738 262 705 222.5 c 128,-1,72
 672 183 672 183 631.5 160 c 128,-1,73
 591 137 591 137 552 137 c 0,74,75
 526 137 526 137 506 155.5 c 128,-1,76
 486 174 486 174 485 208 c 1,77,-1
 483 208 l 1,78,79
 458 183 458 183 423.5 160 c 128,-1,80
 389 137 389 137 351 137 c 0,81,82
 286 137 286 137 249 182 c 128,-1,83
 212 227 212 227 212 286 c 0,84,85
 212 340 212 340 229.5 393 c 128,-1,86
 247 446 247 446 279.5 488 c 128,-1,87
 312 530 312 530 358 556.5 c 128,-1,88
 404 583 404 583 458 583 c 0,89,90
 492 583 492 583 521 564 c 128,-1,91
 550 545 550 545 566 498 c 1,92,-1
 592 564 l 1,18,-1
EndSplineSet
EndChar
StartChar: A
Encoding: 65 65 34
Width: 682
VWidth: 1473
Flags: W
HStem: 0 21G<29 116.212 565.788 653> 208 65<205 479> 695 20G<295.336 387.636>
Fore
479 273 m 1,0,-1
 342 656 l 1,1,-1
 205 273 l 1,2,-1
 479 273 l 1,0,-1
303 715 m 1,3,-1
 380 715 l 1,4,-1
 653 0 l 1,5,-1
 573 0 l 1,6,-1
 498 208 l 1,7,-1
 184 208 l 1,8,-1
 109 0 l 1,9,-1
 29 0 l 1,10,-1
 303 715 l 1,3,-1
EndSplineSet
EndChar
StartChar: B
Encoding: 66 66 35
Width: 629
VWidth: 1473
Flags: W
HStem: 0 62<162 448.604> 367 59<165 371.216> 650 66<165 435.719>
VStem: 88 74<62 367 426 650> 470 74<482.842 600.891> 511 74<127.526 280.192>
Fore
457 399 m 1,0,1
 485 393 485 393 508.5 375 c 128,-1,2
 532 357 532 357 549 332.5 c 128,-1,3
 566 308 566 308 575.5 279 c 128,-1,4
 585 250 585 250 585 221 c 0,5,6
 585 172 585 172 571.5 131.5 c 128,-1,7
 558 91 558 91 529.5 61.5 c 128,-1,8
 501 32 501 32 454.5 16 c 128,-1,9
 408 0 408 0 340 0 c 2,10,-1
 88 0 l 1,11,-1
 88 716 l 1,12,-1
 343 716 l 2,13,14
 399 716 399 716 437.5 702.5 c 128,-1,15
 476 689 476 689 499.5 666.5 c 128,-1,16
 523 644 523 644 533.5 613.5 c 128,-1,17
 544 583 544 583 544 550 c 0,18,19
 544 491 544 491 519.5 451.5 c 128,-1,20
 495 412 495 412 457 399 c 1,0,1
165 650 m 1,21,-1
 165 426 l 1,22,-1
 314 426 l 2,23,24
 371 426 371 426 402 436 c 128,-1,25
 433 446 433 446 448.5 463 c 128,-1,26
 464 480 464 480 467 502 c 128,-1,27
 470 524 470 524 470 550 c 0,28,29
 470 592 470 592 444 621 c 128,-1,30
 418 650 418 650 343 650 c 2,31,-1
 165 650 l 1,21,-1
326 62 m 2,32,33
 429 62 429 62 470 98 c 128,-1,34
 511 134 511 134 511 221 c 0,35,36
 511 293 511 293 467.5 330 c 128,-1,37
 424 367 424 367 311 367 c 2,38,-1
 162 367 l 1,39,-1
 162 62 l 1,40,-1
 326 62 l 2,32,33
EndSplineSet
EndChar
StartChar: C
Encoding: 67 67 36
Width: 558
VWidth: 1473
Flags: W
HStem: -10 65<223.542 403.807> 659 64<223.542 403.17>
VStem: 59 71<223.229 489.939>
Fore
59 357 m 256,0,1
 59 454 59 454 72 523 c 128,-1,2
 85 592 85 592 117 637 c 128,-1,3
 149 682 149 682 201 702.5 c 128,-1,4
 253 723 253 723 330 723 c 0,5,6
 379 723 379 723 434 707.5 c 128,-1,7
 489 692 489 692 529 661 c 1,8,-1
 483 605 l 1,9,10
 449 635 449 635 411 647 c 128,-1,11
 373 659 373 659 329 659 c 0,12,13
 267 659 267 659 228 642 c 128,-1,14
 189 625 189 625 166.5 588.5 c 128,-1,15
 144 552 144 552 137 495 c 128,-1,16
 130 438 130 438 130 357 c 256,17,18
 130 275 130 275 137 218.5 c 128,-1,19
 144 162 144 162 166.5 125 c 128,-1,20
 189 88 189 88 228 71.5 c 128,-1,21
 267 55 267 55 329 55 c 0,22,23
 373 55 373 55 411 66.5 c 128,-1,24
 449 78 449 78 483 108 c 1,25,-1
 529 52 l 1,26,27
 489 21 489 21 434 5.5 c 128,-1,28
 379 -10 379 -10 330 -10 c 0,29,30
 253 -10 253 -10 201 10.5 c 128,-1,31
 149 31 149 31 117 76 c 128,-1,32
 85 121 85 121 72 190 c 128,-1,33
 59 259 59 259 59 357 c 256,0,1
EndSplineSet
EndChar
StartChar: D
Encoding: 68 68 37
Width: 687
VWidth: 1473
Flags: W
HStem: 0 62<162 442.198> 654 62<162 442.198>
VStem: 88 74<62 654> 552 77<232.446 471.288>
Fore
162 654 m 1,0,-1
 162 62 l 1,1,-1
 340 62 l 2,2,3
 402 62 402 62 443.5 79 c 128,-1,4
 485 96 485 96 509 130.5 c 128,-1,5
 533 165 533 165 542.5 219 c 128,-1,6
 552 273 552 273 552 348 c 0,7,8
 552 430 552 430 542.5 487.5 c 128,-1,9
 533 545 533 545 509 582.5 c 128,-1,10
 485 620 485 620 443.5 637 c 128,-1,11
 402 654 402 654 340 654 c 2,12,-1
 162 654 l 1,0,-1
88 0 m 1,13,-1
 88 716 l 1,14,-1
 340 716 l 2,15,16
 418 716 418 716 473.5 693 c 128,-1,17
 529 670 529 670 563.5 623.5 c 128,-1,18
 598 577 598 577 613.5 508 c 128,-1,19
 629 439 629 439 629 348 c 0,20,21
 629 262 629 262 613.5 196.5 c 128,-1,22
 598 131 598 131 563.5 87.5 c 128,-1,23
 529 44 529 44 473.5 22 c 128,-1,24
 418 0 418 0 340 0 c 2,25,-1
 88 0 l 1,13,-1
EndSplineSet
EndChar
StartChar: E
Encoding: 69 69 38
Width: 539
VWidth: 1473
Flags: W
HStem: 0 62<162 505> 351 61<162 466> 654 62<162 510>
VStem: 88 74<62 351 412 654>
Fore
162 62 m 1,0,-1
 505 62 l 1,1,-1
 505 0 l 1,2,-1
 88 0 l 1,3,-1
 88 716 l 1,4,-1
 510 716 l 1,5,-1
 510 654 l 1,6,-1
 162 654 l 1,7,-1
 162 412 l 1,8,-1
 466 412 l 1,9,-1
 466 351 l 1,10,-1
 162 351 l 1,11,-1
 162 62 l 1,0,-1
EndSplineSet
EndChar
StartChar: F
Encoding: 70 70 39
Width: 539
VWidth: 1473
Flags: W
HStem: 0 21G<88 162> 351 61<162 466> 654 62<162 510>
VStem: 88 74<0 351 412 654>
Fore
162 0 m 1,0,-1
 88 0 l 1,1,-1
 88 716 l 1,2,-1
 510 716 l 1,3,-1
 510 654 l 1,4,-1
 162 654 l 1,5,-1
 162 412 l 1,6,-1
 466 412 l 1,7,-1
 466 351 l 1,8,-1
 162 351 l 1,9,-1
 162 0 l 1,0,-1
EndSplineSet
EndChar
StartChar: G
Encoding: 71 71 40
Width: 640
VWidth: 1473
Flags: W
HStem: -10 65<237.172 420.313> 318 64<394.018 498> 659 64<238.042 417.483>
VStem: 74 70<225.243 487.923> 498 69<108 318>
Fore
498 318 m 1,0,-1
 438 318 l 2,1,2
 410 318 410 318 393.5 315 c 128,-1,3
 377 312 377 312 368 310.5 c 128,-1,4
 359 309 359 309 355.5 310.5 c 128,-1,5
 352 312 352 312 348 321 c 0,6,7
 340 336 340 336 338.5 354.5 c 128,-1,8
 337 373 337 373 342 382 c 1,9,-1
 567 382 l 1,10,-1
 567 80 l 1,11,12
 538 49 538 49 482.5 19.5 c 128,-1,13
 427 -10 427 -10 345 -10 c 0,14,15
 268 -10 268 -10 216 10.5 c 128,-1,16
 164 31 164 31 132 76 c 128,-1,17
 100 121 100 121 87 190 c 128,-1,18
 74 259 74 259 74 357 c 256,19,20
 74 454 74 454 87 523 c 128,-1,21
 100 592 100 592 132 637 c 128,-1,22
 164 682 164 682 216 702.5 c 128,-1,23
 268 723 268 723 345 723 c 0,24,25
 393 723 393 723 448.5 707.5 c 128,-1,26
 504 692 504 692 544 661 c 1,27,-1
 498 605 l 1,28,29
 464 635 464 635 425.5 647 c 128,-1,30
 387 659 387 659 343 659 c 0,31,32
 281 659 281 659 242 642 c 128,-1,33
 203 625 203 625 181 588.5 c 128,-1,34
 159 552 159 552 151.5 495 c 128,-1,35
 144 438 144 438 144 357 c 256,36,37
 144 275 144 275 151.5 218.5 c 128,-1,38
 159 162 159 162 181 125 c 128,-1,39
 203 88 203 88 242 71.5 c 128,-1,40
 281 55 281 55 343 55 c 0,41,42
 387 55 387 55 425.5 66.5 c 128,-1,43
 464 78 464 78 498 108 c 1,44,-1
 498 318 l 1,0,-1
EndSplineSet
EndChar
StartChar: H
Encoding: 72 72 41
Width: 671
VWidth: 1473
Flags: W
HStem: 0 21G<88 162 510 583> 351 61<162 510> 696 20G<88 162 510 583>
VStem: 88 74<0 351 412 716> 510 73<0 351 412 716>
Fore
510 412 m 1,0,-1
 510 716 l 1,1,-1
 583 716 l 1,2,-1
 583 0 l 1,3,-1
 510 0 l 1,4,-1
 510 351 l 1,5,-1
 162 351 l 1,6,-1
 162 0 l 1,7,-1
 88 0 l 1,8,-1
 88 716 l 1,9,-1
 162 716 l 1,10,-1
 162 412 l 1,11,-1
 510 412 l 1,0,-1
EndSplineSet
EndChar
StartChar: I
Encoding: 73 73 42
Width: 406
VWidth: 1473
Flags: W
HStem: 0 62<29 165 237 373> 654 62<34 165 237 377>
VStem: 165 72<62 654>
Fore
237 62 m 1,0,-1
 373 62 l 1,1,-1
 373 0 l 1,2,-1
 29 0 l 1,3,-1
 29 62 l 1,4,-1
 165 62 l 1,5,-1
 165 654 l 1,6,-1
 34 654 l 1,7,-1
 34 716 l 1,8,-1
 377 716 l 1,9,-1
 377 654 l 1,10,-1
 237 654 l 1,11,-1
 237 62 l 1,0,-1
EndSplineSet
EndChar
StartChar: J
Encoding: 74 74 43
Width: 487
VWidth: 1473
Flags: W
HStem: -10 65<129.874 274.586> 696 20G<326 399>
VStem: 326 73<227.286 282.873 282.873 716>
Fore
399 352 m 2,0,1
 399 255 399 255 392.5 186.5 c 128,-1,2
 386 118 386 118 365.5 73.5 c 128,-1,3
 345 29 345 29 305 9.5 c 128,-1,4
 265 -10 265 -10 199 -10 c 0,5,6
 150 -10 150 -10 102.5 5.5 c 128,-1,7
 55 21 55 21 15 52 c 1,8,-1
 60 108 l 1,9,10
 94 78 94 78 125 66.5 c 128,-1,11
 156 55 156 55 200 55 c 0,12,13
 246 55 246 55 271 71 c 128,-1,14
 296 87 296 87 308.5 122.5 c 128,-1,15
 321 158 321 158 323.5 214.5 c 128,-1,16
 326 271 326 271 326 352 c 2,17,-1
 326 716 l 1,18,-1
 399 716 l 1,19,-1
 399 352 l 2,0,1
EndSplineSet
EndChar
StartChar: K
Encoding: 75 75 44
Width: 643
VWidth: 1473
Flags: W
HStem: 0 21G<88 162 489.862 585> 696 20G<88 162 475 582>
VStem: 88 497<0 0 383 716> 88 74<0 295 383 716>
Fore
88 0 m 1,0,-1
 88 716 l 1,1,-1
 162 716 l 1,2,-1
 162 383 l 1,3,-1
 495 716 l 1,4,-1
 582 716 l 1,5,-1
 277 410 l 1,6,-1
 585 0 l 1,7,-1
 505 0 l 1,8,-1
 231 362 l 1,9,-1
 162 295 l 1,10,-1
 162 0 l 1,11,-1
 88 0 l 1,0,-1
EndSplineSet
EndChar
StartChar: L
Encoding: 76 76 45
Width: 524
VWidth: 1473
Flags: W
HStem: 0 62<162 510> 696 20G<88 162>
VStem: 88 74<62 716>
Fore
162 62 m 1,0,-1
 510 62 l 1,1,-1
 510 0 l 1,2,-1
 88 0 l 1,3,-1
 88 716 l 1,4,-1
 162 716 l 1,5,-1
 162 62 l 1,0,-1
EndSplineSet
EndChar
StartChar: M
Encoding: 77 77 46
Width: 827
VWidth: 1473
Flags: W
HStem: 0 21G<88 162 370.425 457.575 666 740> 696 20G<88 217.324 610.676 740>
VStem: 88 74<0 654> 666 74<0 654>
Fore
617 716 m 1,0,-1
 740 716 l 1,1,-1
 740 0 l 1,2,-1
 666 0 l 1,3,-1
 666 654 l 1,4,-1
 451 0 l 1,5,-1
 377 0 l 1,6,-1
 162 654 l 1,7,-1
 162 0 l 1,8,-1
 88 0 l 1,9,-1
 88 716 l 1,10,-1
 211 716 l 1,11,-1
 414 74 l 1,12,-1
 617 716 l 1,0,-1
EndSplineSet
EndChar
StartChar: N
Encoding: 78 78 47
Width: 701
VWidth: 1473
Flags: W
HStem: 0 21G<88 162 527.471 613> 696 20G<88 222.252 539 613>
VStem: 88 74<0 654> 539 74<133 716>
Fore
88 0 m 1,0,-1
 88 716 l 1,1,-1
 211 716 l 1,2,-1
 539 133 l 1,3,-1
 539 716 l 1,4,-1
 613 716 l 1,5,-1
 613 0 l 1,6,-1
 539 0 l 1,7,-1
 162 654 l 1,8,-1
 162 0 l 1,9,-1
 88 0 l 1,0,-1
EndSplineSet
EndChar
StartChar: O
Encoding: 79 79 48
Width: 695
VWidth: 1473
Flags: W
HStem: -9 69<240.396 455.564> 654 66<239.831 455.564>
VStem: 59 77<223.83 485.038> 560 76<233.131 473.19>
Fore
348 60 m 0,0,1
 410 60 410 60 451 77 c 128,-1,2
 492 94 492 94 516.5 129.5 c 128,-1,3
 541 165 541 165 550.5 219.5 c 128,-1,4
 560 274 560 274 560 349 c 0,5,6
 560 432 560 432 550.5 489.5 c 128,-1,7
 541 547 541 547 516.5 583.5 c 128,-1,8
 492 620 492 620 451 637 c 128,-1,9
 410 654 410 654 348 654 c 0,10,11
 284 654 284 654 243.5 637 c 128,-1,12
 203 620 203 620 179 583.5 c 128,-1,13
 155 547 155 547 145.5 489.5 c 128,-1,14
 136 432 136 432 136 349 c 0,15,16
 136 274 136 274 145.5 219.5 c 128,-1,17
 155 165 155 165 179 129.5 c 128,-1,18
 203 94 203 94 243.5 77 c 128,-1,19
 284 60 284 60 348 60 c 0,0,1
348 -9 m 0,20,21
 192 -9 192 -9 125.5 84 c 128,-1,22
 59 177 59 177 59 349 c 0,23,24
 59 533 59 533 124.5 626.5 c 128,-1,25
 190 720 190 720 348 720 c 0,26,27
 426 720 426 720 481 696.5 c 128,-1,28
 536 673 536 673 570.5 626.5 c 128,-1,29
 605 580 605 580 620.5 510 c 128,-1,30
 636 440 636 440 636 349 c 0,31,32
 636 264 636 264 620.5 197 c 128,-1,33
 605 130 605 130 570.5 84 c 128,-1,34
 536 38 536 38 481 14.5 c 128,-1,35
 426 -9 426 -9 348 -9 c 0,20,21
EndSplineSet
EndChar
StartChar: P
Encoding: 80 80 49
Width: 629
VWidth: 1473
Flags: W
HStem: 0 21G<88 162> 265 62<162 427.76> 654 62<162 386.262>
VStem: 88 74<0 265 327 654> 511 74<393.917 563.852>
Fore
162 654 m 1,0,-1
 162 327 l 1,1,-1
 311 327 l 2,2,3
 424 327 424 327 467.5 366 c 128,-1,4
 511 405 511 405 511 488 c 0,5,6
 511 536 511 536 501.5 568.5 c 128,-1,7
 492 601 492 601 470 619.5 c 128,-1,8
 448 638 448 638 412.5 646 c 128,-1,9
 377 654 377 654 326 654 c 2,10,-1
 162 654 l 1,0,-1
162 265 m 1,11,-1
 162 0 l 1,12,-1
 88 0 l 1,13,-1
 88 716 l 1,14,-1
 326 716 l 2,15,16
 399 716 399 716 448.5 702 c 128,-1,17
 498 688 498 688 528 660 c 128,-1,18
 558 632 558 632 571.5 589.5 c 128,-1,19
 585 547 585 547 585 488 c 0,20,21
 585 435 585 435 569.5 393.5 c 128,-1,22
 554 352 554 352 519.5 323.5 c 128,-1,23
 485 295 485 295 429.5 280 c 128,-1,24
 374 265 374 265 296 265 c 2,25,-1
 162 265 l 1,11,-1
EndSplineSet
EndChar
StartChar: Q
Encoding: 81 81 50
Width: 754
VWidth: 1473
Flags: W
HStem: -9 69<269.896 490.444> 654 66<269.614 484.978>
VStem: 88 77<223.83 482.969> 589 77<233.131 473.19>
Fore
377 60 m 0,0,1
 439 60 439 60 480.5 77 c 128,-1,2
 522 94 522 94 546 129.5 c 128,-1,3
 570 165 570 165 579.5 219.5 c 128,-1,4
 589 274 589 274 589 349 c 0,5,6
 589 432 589 432 579.5 489.5 c 128,-1,7
 570 547 570 547 546 583.5 c 128,-1,8
 522 620 522 620 480.5 637 c 128,-1,9
 439 654 439 654 377 654 c 0,10,11
 314 654 314 654 273.5 637 c 128,-1,12
 233 620 233 620 208.5 583.5 c 128,-1,13
 184 547 184 547 174.5 489.5 c 128,-1,14
 165 432 165 432 165 349 c 0,15,16
 165 274 165 274 174.5 219.5 c 128,-1,17
 184 165 184 165 208.5 129.5 c 128,-1,18
 233 94 233 94 273.5 77 c 128,-1,19
 314 60 314 60 377 60 c 0,0,1
377 -9 m 0,20,21
 221 -9 221 -9 154.5 84 c 128,-1,22
 88 177 88 177 88 349 c 0,23,24
 88 533 88 533 154 626.5 c 128,-1,25
 220 720 220 720 377 720 c 0,26,27
 455 720 455 720 510.5 696.5 c 128,-1,28
 566 673 566 673 600.5 626.5 c 128,-1,29
 635 580 635 580 650.5 510 c 128,-1,30
 666 440 666 440 666 349 c 0,31,32
 666 264 666 264 650.5 197 c 128,-1,33
 635 130 635 130 600.5 84 c 128,-1,34
 566 38 566 38 510.5 14.5 c 128,-1,35
 455 -9 455 -9 377 -9 c 0,20,21
445 215 m 1,36,-1
 666 -53 l 1,37,-1
 592 -77 l 1,38,-1
 383 193 l 1,39,-1
 445 215 l 1,36,-1
EndSplineSet
EndChar
StartChar: R
Encoding: 82 82 51
Width: 643
VWidth: 1473
Flags: W
HStem: 0 21G<88 162 489.42 582> 324 62<162 359> 654 62<162 378.559>
VStem: 88 74<0 324 386 654> 508 77<446.557 586.162>
Fore
326 716 m 2,0,1
 399 716 399 716 448.5 702.5 c 128,-1,2
 498 689 498 689 528 662.5 c 128,-1,3
 558 636 558 636 571.5 598 c 128,-1,4
 585 560 585 560 585 510 c 0,5,6
 585 430 585 430 539.5 383.5 c 128,-1,7
 494 337 494 337 427 329 c 1,8,-1
 582 0 l 1,9,-1
 498 0 l 1,10,-1
 359 324 l 1,11,-1
 162 324 l 1,12,-1
 162 0 l 1,13,-1
 88 0 l 1,14,-1
 88 716 l 1,15,-1
 326 716 l 2,0,1
162 386 m 1,16,-1
 340 386 l 2,17,18
 370 386 370 386 399.5 392 c 128,-1,19
 429 398 429 398 453 412 c 128,-1,20
 477 426 477 426 492.5 450 c 128,-1,21
 508 474 508 474 508 510 c 0,22,23
 508 552 508 552 494 580 c 128,-1,24
 480 608 480 608 456 624.5 c 128,-1,25
 432 641 432 641 398 647.5 c 128,-1,26
 364 654 364 654 326 654 c 2,27,-1
 162 654 l 1,28,-1
 162 386 l 1,16,-1
EndSplineSet
EndChar
StartChar: S
Encoding: 83 83 52
Width: 657
VWidth: 1473
Flags: W
HStem: -9 62<243.663 463.591> 659 60<206.888 412.323>
VStem: 59 69<99.128 212> 81 74<480.237 612.666> 524 74<108.915 256.171>
Fore
128 233 m 1,0,1
 152 138 152 138 208 95.5 c 128,-1,2
 264 53 264 53 361 53 c 0,3,4
 438 53 438 53 481 85.5 c 128,-1,5
 524 118 524 118 524 192 c 0,6,7
 524 240 524 240 491 267.5 c 128,-1,8
 458 295 458 295 409.5 312.5 c 128,-1,9
 361 330 361 330 303 344.5 c 128,-1,10
 245 359 245 359 196 382 c 128,-1,11
 147 405 147 405 114 442.5 c 128,-1,12
 81 480 81 480 81 545 c 0,13,14
 81 629 81 629 141.5 674 c 128,-1,15
 202 719 202 719 317 719 c 0,16,17
 414 719 414 719 482 669 c 128,-1,18
 550 619 550 619 579 523 c 1,19,-1
 514 504 l 1,20,21
 492 573 492 573 444 616 c 128,-1,22
 396 659 396 659 317 659 c 0,23,24
 155 659 155 659 155 545 c 0,25,26
 155 496 155 496 188 469 c 128,-1,27
 221 442 221 442 269.5 423.5 c 128,-1,28
 318 405 318 405 376.5 391 c 128,-1,29
 435 377 435 377 483.5 355 c 128,-1,30
 532 333 532 333 565 297.5 c 128,-1,31
 598 262 598 262 598 202 c 0,32,33
 598 96 598 96 536 43.5 c 128,-1,34
 474 -9 474 -9 359 -9 c 0,35,36
 234 -9 234 -9 163.5 44 c 128,-1,37
 93 97 93 97 59 212 c 1,38,-1
 128 233 l 1,0,1
EndSplineSet
EndChar
StartChar: T
Encoding: 84 84 53
Width: 545
VWidth: 1473
Flags: W
HStem: 0 21G<236 309> 654 62<15 236 309 530>
VStem: 236 73<0 654>
Fore
309 0 m 1,0,-1
 236 0 l 1,1,-1
 236 654 l 1,2,-1
 15 654 l 1,3,-1
 15 716 l 1,4,-1
 530 716 l 1,5,-1
 530 654 l 1,6,-1
 309 654 l 1,7,-1
 309 0 l 1,0,-1
EndSplineSet
EndChar
StartChar: U
Encoding: 85 85 54
Width: 724
VWidth: 1473
Flags: W
HStem: -9 62<303.691 415.609> 696 20G<88 162 563 636>
VStem: 88 74<102.503 129.5 129.5 163.282 163.282 194.949 194.949 238.908 238.908 311.877 311.877 716> 563 73<105.632 130.5 145 163.282 163.282 195.197 195.197 238.908 238.908 311.877 311.877 716>
Fore
88 716 m 1,0,-1
 162 716 l 1,1,-1
 162 352 l 2,2,3
 162 308 162 308 160.5 272 c 128,-1,4
 159 236 159 236 159 206 c 0,5,6
 159 172 159 172 163.5 145 c 128,-1,7
 168 118 168 118 184 102 c 0,8,9
 208 77 208 77 255.5 65 c 128,-1,10
 303 53 303 53 359 53 c 0,11,12
 414 53 414 53 466.5 65 c 128,-1,13
 519 77 519 77 541 102 c 0,14,15
 557 118 557 118 561.5 145 c 128,-1,16
 566 172 566 172 566 206 c 0,17,18
 566 236 566 236 564.5 272 c 128,-1,19
 563 308 563 308 563 352 c 2,20,-1
 563 716 l 1,21,-1
 636 716 l 1,22,-1
 636 237 l 2,23,24
 636 168 636 168 629 130.5 c 128,-1,25
 622 93 622 93 598 63 c 0,26,27
 576 40 576 40 545 26 c 128,-1,28
 514 12 514 12 481 4 c 128,-1,29
 448 -4 448 -4 415.5 -6.5 c 128,-1,30
 383 -9 383 -9 359 -9 c 256,31,32
 336 -9 336 -9 304.5 -6.5 c 128,-1,33
 273 -4 273 -4 240.5 3 c 128,-1,34
 208 10 208 10 177.5 25 c 128,-1,35
 147 40 147 40 127 63 c 0,36,37
 102 91 102 91 95 129.5 c 128,-1,38
 88 168 88 168 88 237 c 2,39,-1
 88 716 l 1,0,-1
EndSplineSet
EndChar
StartChar: V
Encoding: 86 86 55
Width: 652
VWidth: 1473
Flags: W
HStem: 0 21G<281.737 372.207> 696 20G<29 115.646 537.384 623>
Fore
544 716 m 1,0,-1
 623 716 l 1,1,-1
 365 0 l 1,2,-1
 289 0 l 1,3,-1
 29 716 l 1,4,-1
 109 716 l 1,5,-1
 327 60 l 1,6,-1
 544 716 l 1,0,-1
EndSplineSet
EndChar
StartChar: W
Encoding: 87 87 56
Width: 833
VWidth: 1473
Flags: W
HStem: 0 21G<173.838 266.829 567.171 660.134> 696 20G<29 112.588 377.07 456.93 721.412 804>
Fore
452 716 m 1,0,-1
 610 75 l 1,1,-1
 725 716 l 1,2,-1
 804 716 l 1,3,-1
 656 0 l 1,4,-1
 572 0 l 1,5,-1
 417 642 l 1,6,-1
 262 0 l 1,7,-1
 178 0 l 1,8,-1
 29 716 l 1,9,-1
 109 716 l 1,10,-1
 224 75 l 1,11,-1
 382 716 l 1,12,-1
 452 716 l 1,0,-1
EndSplineSet
EndChar
StartChar: X
Encoding: 88 88 57
Width: 602
VWidth: 1473
Flags: W
HStem: 0 21G<15 114.81 484.928 588> 696 20G<29 129.25 464.875 564>
Fore
29 716 m 1,0,-1
 118 716 l 1,1,-1
 298 396 l 1,2,-1
 476 716 l 1,3,-1
 564 716 l 1,4,-1
 343 355 l 1,5,-1
 588 0 l 1,6,-1
 498 0 l 1,7,-1
 298 306 l 1,8,-1
 102 0 l 1,9,-1
 15 0 l 1,10,-1
 253 355 l 1,11,-1
 29 716 l 1,0,-1
EndSplineSet
EndChar
StartChar: Y
Encoding: 89 89 58
Width: 623
VWidth: 1473
Flags: W
HStem: 0 21G<274 348> 696 20G<29 119.798 503.255 594>
VStem: 274 74<0 280>
Fore
348 0 m 1,0,-1
 274 0 l 1,1,-1
 274 280 l 1,2,-1
 29 716 l 1,3,-1
 109 716 l 1,4,-1
 312 340 l 1,5,-1
 514 716 l 1,6,-1
 594 716 l 1,7,-1
 348 280 l 1,8,-1
 348 0 l 1,0,-1
EndSplineSet
EndChar
StartChar: Z
Encoding: 90 90 59
Width: 583
VWidth: 1473
Flags: W
HStem: 0 62<147 524> 653 63<59 436>
VStem: 62 462<0 62 653 716 62 653 1.53064e-18 1.53064e-18>
Fore
436 653 m 1,0,-1
 59 653 l 1,1,-1
 59 716 l 1,2,-1
 517 716 l 1,3,-1
 517 648 l 1,4,-1
 147 62 l 1,5,-1
 524 62 l 1,6,-1
 524 0 l 1,7,-1
 62 0 l 1,8,-1
 62 62 l 1,9,-1
 436 653 l 1,0,-1
EndSplineSet
EndChar
StartChar: bracketleft
Encoding: 91 91 60
Width: 397
VWidth: 1473
Flags: W
HStem: -87 44<177 327> 818 44<177 327>
VStem: 105 72<-43 818> 105 222<-87 -43 818 862 -87 862 862 862>
Fore
327 862 m 1,0,-1
 327 818 l 1,1,-1
 177 818 l 1,2,-1
 177 -43 l 1,3,-1
 327 -43 l 1,4,-1
 327 -87 l 1,5,-1
 105 -87 l 1,6,-1
 105 862 l 1,7,-1
 327 862 l 1,0,-1
EndSplineSet
EndChar
StartChar: backslash
Encoding: 92 92 61
Width: 331
VWidth: 1473
Flags: W
HStem: -12 21G<268.454 346>
VStem: -15 361<-12 874 1318.66 1785.41>
Fore
-15 874 m 1,0,-1
 52 874 l 1,1,-1
 346 -12 l 1,2,-1
 275 -12 l 1,3,-1
 -15 874 l 1,0,-1
EndSplineSet
EndChar
StartChar: bracketright
Encoding: 93 93 62
Width: 397
VWidth: 1473
Flags: W
HStem: -87 44<71 221> 818 44<71 221>
VStem: 71 222<-87 -43 818 862 -87 862 -87 -87> 221 72<-43 818>
Fore
71 -87 m 1,0,-1
 71 -43 l 1,1,-1
 221 -43 l 1,2,-1
 221 818 l 1,3,-1
 71 818 l 1,4,-1
 71 862 l 1,5,-1
 293 862 l 1,6,-1
 293 -87 l 1,7,-1
 71 -87 l 1,0,-1
EndSplineSet
EndChar
StartChar: asciicircum
Encoding: 94 94 63
Width: 671
VWidth: 1473
Flags: W
HStem: 331 478<365 608 365 365>
Fore
365 809 m 1,0,-1
 608 331 l 1,1,-1
 535 331 l 1,2,-1
 333 728 l 1,3,-1
 137 331 l 1,4,-1
 63 331 l 1,5,-1
 305 809 l 1,6,-1
 365 809 l 1,0,-1
EndSplineSet
EndChar
StartChar: underscore
Encoding: 95 95 64
Width: 699
VWidth: 1473
Flags: W
HStem: -175 70<0 700>
Fore
0 -175 m 1,0,-1
 0 -105 l 1,1,-1
 700 -105 l 1,2,-1
 700 -175 l 1,3,-1
 0 -175 l 1,0,-1
EndSplineSet
EndChar
StartChar: grave
Encoding: 96 96 65
Width: 248
VWidth: 1473
Flags: W
HStem: 647 154<71 194 71 71>
Fore
71 801 m 1,0,-1
 194 647 l 1,1,-1
 137 647 l 1,2,-1
 -15 801 l 1,3,-1
 71 801 l 1,0,-1
EndSplineSet
EndChar
StartChar: a
Encoding: 97 97 66
Width: 559
VWidth: 1473
Flags: W
HStem: -12 55<135.499 292.741> 299 55<243.677 399> 541 53<184.4 362.868>
VStem: 29 62<88.2832 204.653> 402 64<12.3779 46 48 58.4539 58.4539 70.9141 138 299 354 500.944>
Fore
402 71 m 1,0,1
 351 28 351 28 303.5 8 c 128,-1,2
 256 -12 256 -12 189 -12 c 256,3,4
 121 -12 121 -12 75 35 c 128,-1,5
 29 82 29 82 29 156 c 0,6,7
 29 215 29 215 53.5 252 c 128,-1,8
 78 289 78 289 125 310 c 128,-1,9
 172 331 172 331 241.5 340 c 128,-1,10
 311 349 311 349 402 354 c 1,11,-1
 402 423 l 2,12,13
 402 482 402 482 372.5 511.5 c 128,-1,14
 343 541 343 541 268 541 c 0,15,16
 214 541 214 541 172 512 c 128,-1,17
 130 483 130 483 91 435 c 0,18,19
 85 427 85 427 75 431.5 c 128,-1,20
 65 436 65 436 55 443 c 0,21,22
 43 452 43 452 31 467 c 1,23,24
 91 538 91 538 151 566 c 128,-1,25
 211 594 211 594 271 594 c 0,26,27
 371 594 371 594 418.5 551 c 128,-1,28
 466 508 466 508 466 411 c 2,29,-1
 466 106 l 2,30,31
 466 72 466 72 471 48 c 128,-1,32
 476 24 476 24 480 12 c 1,33,34
 454 0 454 0 432 0 c 0,35,36
 418 0 418 0 411 12 c 1,37,38
 407 24 407 24 404 46 c 0,39,40
 402 57 402 57 402 71 c 1,0,1
399 299 m 1,41,42
 302 298 302 298 241.5 285.5 c 128,-1,43
 181 273 181 273 148 253.5 c 128,-1,44
 115 234 115 234 103 209 c 128,-1,45
 91 184 91 184 91 158 c 0,46,47
 91 109 91 109 123 76 c 128,-1,48
 155 43 155 43 200 43 c 0,49,50
 247 43 247 43 301 68.5 c 128,-1,51
 355 94 355 94 399 138 c 1,52,-1
 399 299 l 1,41,42
EndSplineSet
Substitution2: "Single Substitution lookup 27 subtable" uni0E38
Substitution2: "Single Substitution lookup 27 subtable" uni0E38
EndChar
StartChar: b
Encoding: 98 98 67
Width: 611
VWidth: 1473
Flags: W
HStem: -12 55<260.804 430.563> 541 53<296.687 430.473> 789 20G<103 166>
VStem: 103 63<149 449 522 809> 504 66<168.283 410.483>
Fore
166 809 m 1,0,-1
 166 522 l 1,1,2
 218 552 218 552 264.5 573 c 128,-1,3
 311 594 311 594 370 594 c 0,4,5
 473 594 473 594 521.5 514.5 c 128,-1,6
 570 435 570 435 570 295 c 0,7,8
 570 134 570 134 515.5 61 c 128,-1,9
 461 -12 461 -12 359 -12 c 0,10,11
 298 -12 298 -12 253.5 8.5 c 128,-1,12
 209 29 209 29 165 75 c 1,13,14
 162 49 l 0,15,16
 161 37 161 37 158.5 27.5 c 128,-1,17
 156 18 156 18 153 12 c 0,18,19
 146 0 146 0 133 0 c 0,20,21
 110 0 110 0 84 12 c 1,22,23
 88 28 88 28 95.5 54.5 c 128,-1,24
 103 81 103 81 103 136 c 2,25,-1
 103 809 l 1,26,-1
 166 809 l 1,0,-1
166 149 m 1,27,28
 199 103 199 103 246 73 c 128,-1,29
 293 43 293 43 355 43 c 0,30,31
 399 43 399 43 428 60 c 128,-1,32
 457 77 457 77 474 107.5 c 128,-1,33
 491 138 491 138 497.5 182.5 c 128,-1,34
 504 227 504 227 504 283 c 0,35,36
 504 345 504 345 497.5 393.5 c 128,-1,37
 491 442 491 442 474 474.5 c 128,-1,38
 457 507 457 507 427.5 524 c 128,-1,39
 398 541 398 541 352 541 c 0,40,41
 327 541 327 541 302 532 c 128,-1,42
 277 523 277 523 252.5 509.5 c 128,-1,43
 228 496 228 496 206 480 c 128,-1,44
 184 464 184 464 166 449 c 1,45,-1
 166 149 l 1,27,28
EndSplineSet
Substitution2: "Single Substitution lookup 27 subtable" uni0E39
Substitution2: "Single Substitution lookup 27 subtable" uni0E39
EndChar
StartChar: c
Encoding: 99 99 68
Width: 559
VWidth: 1473
Flags: W
HStem: -12 55<190.018 347.146> 541 53<190.774 368.29>
VStem: 41 67<218.386 410.403>
Fore
430 448 m 1,0,1
 407 488 407 488 374.5 514.5 c 128,-1,2
 342 541 342 541 284 541 c 0,3,4
 233 541 233 541 198.5 527.5 c 128,-1,5
 164 514 164 514 144 484 c 128,-1,6
 124 454 124 454 116 406.5 c 128,-1,7
 108 359 108 359 108 292 c 0,8,9
 108 236 108 236 114.5 190 c 128,-1,10
 121 144 121 144 140 111 c 128,-1,11
 159 78 159 78 193.5 60.5 c 128,-1,12
 228 43 228 43 283 43 c 0,13,14
 345 43 345 43 381 74 c 128,-1,15
 417 105 417 105 436 138 c 1,16,-1
 488 109 l 1,17,18
 474 85 474 85 456 64 c 128,-1,19
 438 43 438 43 413.5 26 c 128,-1,20
 389 9 389 9 356.5 -1.5 c 128,-1,21
 324 -12 324 -12 283 -12 c 0,22,23
 211 -12 211 -12 163.5 11 c 128,-1,24
 116 34 116 34 89 73.5 c 128,-1,25
 62 113 62 113 51.5 169 c 128,-1,26
 41 225 41 225 41 292 c 0,27,28
 41 440 41 440 95.5 517 c 128,-1,29
 150 594 150 594 284 594 c 0,30,31
 359 594 359 594 405.5 562 c 128,-1,32
 452 530 452 530 488 468 c 1,33,-1
 430 448 l 1,0,1
EndSplineSet
Substitution2: "Single Substitution lookup 27 subtable" uni0E3A
Substitution2: "Single Substitution lookup 27 subtable" uni0E3A
EndChar
StartChar: d
Encoding: 100 100 69
Width: 611
VWidth: 1473
Flags: W
HStem: -12 55<180.679 350.481> 541 53<199.592 346.542> 789 20G<445 508>
VStem: 41 67<168.283 429.945> 445 63<12.5033 49 57.5 62 62 74.4497 149 464 536 809>
Fore
445 464 m 1,0,1
 436 476 436 476 420 490 c 128,-1,2
 404 504 404 504 382.5 515 c 128,-1,3
 361 526 361 526 337.5 533.5 c 128,-1,4
 314 541 314 541 289 541 c 0,5,6
 196 541 196 541 152 474.5 c 128,-1,7
 108 408 108 408 108 283 c 0,8,9
 108 227 108 227 114.5 182.5 c 128,-1,10
 121 138 121 138 138 107.5 c 128,-1,11
 155 77 155 77 183.5 60 c 128,-1,12
 212 43 212 43 256 43 c 0,13,14
 318 43 318 43 365 73 c 128,-1,15
 412 103 412 103 445 149 c 1,16,-1
 445 464 l 1,0,1
508 121 m 2,17,18
 508 87 508 87 513.5 57.5 c 128,-1,19
 519 28 519 28 523 12 c 1,20,21
 496 0 496 0 476 0 c 0,22,23
 463 0 463 0 455 12 c 1,24,25
 451 24 451 24 448 49 c 0,26,27
 446 62 446 62 446 75 c 1,28,29
 402 29 402 29 358 8.5 c 128,-1,30
 314 -12 314 -12 252 -12 c 0,31,32
 150 -12 150 -12 95.5 61 c 128,-1,33
 41 134 41 134 41 295 c 0,34,35
 41 435 41 435 104.5 514.5 c 128,-1,36
 168 594 168 594 271 594 c 0,37,38
 330 594 330 594 372.5 574 c 128,-1,39
 415 554 415 554 445 536 c 1,40,-1
 445 809 l 1,41,-1
 508 809 l 1,42,-1
 508 121 l 2,17,18
EndSplineSet
EndChar
StartChar: e
Encoding: 101 101 70
Width: 559
VWidth: 1473
Flags: W
HStem: -12 55<208.585 336.829> 289 54<108 445> 541 53<202.839 368.654>
VStem: 41 67<233.026 289 343 386.734> 445 68<343 410.763>
Fore
108 289 m 1,0,1
 108 239 108 239 118 194.5 c 128,-1,2
 128 150 128 150 151 116 c 128,-1,3
 174 82 174 82 209.5 62.5 c 128,-1,4
 245 43 245 43 295 43 c 0,5,6
 323 43 323 43 345 49 c 128,-1,7
 367 55 367 55 386 68 c 128,-1,8
 405 81 405 81 423.5 103 c 128,-1,9
 442 125 442 125 464 159 c 1,10,-1
 519 131 l 1,11,12
 495 93 495 93 472 65.5 c 128,-1,13
 449 38 449 38 422.5 21 c 128,-1,14
 396 4 396 4 363.5 -4 c 128,-1,15
 331 -12 331 -12 289 -12 c 0,16,17
 174 -12 174 -12 107.5 62.5 c 128,-1,18
 41 137 41 137 41 292 c 0,19,20
 41 376 41 376 61 433.5 c 128,-1,21
 81 491 81 491 114 527 c 128,-1,22
 147 563 147 563 192 578.5 c 128,-1,23
 237 594 237 594 287 594 c 0,24,25
 346 594 346 594 389 572 c 128,-1,26
 432 550 432 550 459 509 c 128,-1,27
 486 468 486 468 499.5 412.5 c 128,-1,28
 513 357 513 357 513 289 c 1,29,-1
 108 289 l 1,0,1
445 343 m 1,30,31
 442 439 442 439 401.5 490 c 128,-1,32
 361 541 361 541 284 541 c 0,33,34
 240 541 240 541 207 524.5 c 128,-1,35
 174 508 174 508 152 481.5 c 128,-1,36
 130 455 130 455 119 419 c 128,-1,37
 108 383 108 383 108 343 c 1,38,-1
 445 343 l 1,30,31
EndSplineSet
EndChar
StartChar: f
Encoding: 102 102 71
Width: 312
VWidth: 1473
Flags: W
HStem: 0 21G<108 174> 529 53<12 108 174 293> 762 59<193.436 281.337>
VStem: 108 66<0 529 582 742.914>
Fore
174 529 m 1,0,-1
 174 0 l 1,1,-1
 108 0 l 1,2,-1
 108 529 l 1,3,-1
 12 529 l 1,4,-1
 12 582 l 1,5,-1
 108 582 l 1,6,-1
 108 664 l 2,7,8
 108 741 108 741 139.5 781 c 128,-1,9
 171 821 171 821 246 821 c 0,10,11
 264 821 264 821 283.5 819.5 c 128,-1,12
 303 818 303 818 320 812 c 1,13,14
 330 791 330 791 326.5 767.5 c 128,-1,15
 323 744 323 744 315 744 c 1,16,17
 301 751 301 751 286 756.5 c 128,-1,18
 271 762 271 762 253 762 c 0,19,20
 214 762 214 762 194 743.5 c 128,-1,21
 174 725 174 725 174 673 c 2,22,-1
 174 582 l 1,23,-1
 293 582 l 1,24,-1
 293 529 l 1,25,-1
 174 529 l 1,0,-1
EndSplineSet
EndChar
StartChar: g
Encoding: 103 103 72
Width: 559
VWidth: 1473
Flags: W
HStem: -206 53<193.399 359.976> 39 67<200 284.315 284.315 429.308> 189 56<190.819 324.917> 541 53<166.831 325.614> 545 71<492.75 538.719>
VStem: 28 68<-95.7849 -15.1308> 52 60<125.729 177.812 309.673 481.207> 420 68<316.042 443.59> 467 68<-112.715 -2.56329>
Fore
451 523 m 1,0,1
 470 498 470 498 479 468 c 128,-1,2
 488 438 488 438 488 395 c 0,3,4
 488 333 488 333 471.5 293 c 128,-1,5
 455 253 455 253 425.5 229.5 c 128,-1,6
 396 206 396 206 355 197.5 c 128,-1,7
 314 189 314 189 262 189 c 0,8,9
 203 189 203 189 161 203 c 1,10,11
 133 192 133 192 122.5 179 c 128,-1,12
 112 166 112 166 112 150 c 0,13,14
 112 137 112 137 118.5 128 c 128,-1,15
 125 119 125 119 144.5 114 c 128,-1,16
 164 109 164 109 200 106 c 128,-1,17
 236 103 236 103 295 103 c 0,18,19
 426 103 426 103 480.5 69 c 128,-1,20
 535 35 535 35 535 -47 c 0,21,22
 535 -90 535 -90 523 -120 c 128,-1,23
 511 -150 511 -150 481 -169.5 c 128,-1,24
 451 -189 451 -189 401.5 -197.5 c 128,-1,25
 352 -206 352 -206 277 -206 c 256,26,27
 202 -206 202 -206 153.5 -196.5 c 128,-1,28
 105 -187 105 -187 77 -168.5 c 128,-1,29
 49 -150 49 -150 38.5 -125 c 128,-1,30
 28 -100 28 -100 28 -69 c 0,31,32
 28 -31 28 -31 45.5 0.5 c 128,-1,33
 63 32 63 32 125 55 c 1,34,-1
 125 57 l 1,35,36
 82 65 82 65 67 87.5 c 128,-1,37
 52 110 52 110 52 141 c 0,38,39
 52 180 52 180 71 201 c 128,-1,40
 90 222 90 222 121 230 c 1,41,42
 81 255 81 255 65.5 296 c 128,-1,43
 50 337 50 337 50 383 c 0,44,45
 50 486 50 486 101.5 540 c 128,-1,46
 153 594 153 594 281 594 c 0,47,48
 327 594 327 594 359.5 583 c 128,-1,49
 392 572 392 572 412 560 c 1,50,51
 438 585 438 585 466.5 600.5 c 128,-1,52
 495 616 495 616 530 616 c 0,53,54
 538 616 538 616 541.5 608.5 c 128,-1,55
 545 601 545 601 546.5 590 c 128,-1,56
 548 579 548 579 546 567 c 128,-1,57
 544 555 544 555 539 545 c 1,58,59
 516 545 516 545 492 542 c 128,-1,60
 468 539 468 539 451 523 c 1,0,1
262 43 m 0,61,62
 212 43 212 43 180.5 35 c 128,-1,63
 149 27 149 27 129.5 13 c 128,-1,64
 110 -1 110 -1 103 -19 c 128,-1,65
 96 -37 96 -37 96 -56 c 0,66,67
 96 -88 96 -88 105.5 -107.5 c 128,-1,68
 115 -127 115 -127 135.5 -137 c 128,-1,69
 156 -147 156 -147 188.5 -150 c 128,-1,70
 221 -153 221 -153 267 -153 c 0,71,72
 321 -153 321 -153 358.5 -150 c 128,-1,73
 396 -147 396 -147 420.5 -137 c 128,-1,74
 445 -127 445 -127 456 -107 c 128,-1,75
 467 -87 467 -87 467 -53 c 0,76,77
 467 -24 467 -24 459.5 -5.5 c 128,-1,78
 452 13 452 13 430 24 c 128,-1,79
 408 35 408 35 367.5 39 c 128,-1,80
 327 43 327 43 262 43 c 0,61,62
118 390 m 0,81,82
 118 345 118 345 128 316 c 128,-1,83
 138 287 138 287 157.5 271.5 c 128,-1,84
 177 256 177 256 205 250.5 c 128,-1,85
 233 245 233 245 268 245 c 0,86,87
 309 245 309 245 338 250.5 c 128,-1,88
 367 256 367 256 385.5 271.5 c 128,-1,89
 404 287 404 287 412 316 c 128,-1,90
 420 345 420 345 420 390 c 0,91,92
 420 438 420 438 412 466.5 c 128,-1,93
 404 495 404 495 385.5 512 c 128,-1,94
 367 529 367 529 338 535 c 128,-1,95
 309 541 309 541 268 541 c 0,96,97
 187 541 187 541 152.5 508.5 c 128,-1,98
 118 476 118 476 118 390 c 0,81,82
EndSplineSet
EndChar
StartChar: h
Encoding: 104 104 73
Width: 623
VWidth: 1473
Flags: W
HStem: 0 21G<93 159 463 530> 541 53<290.259 421.772> 789 20G<93 159>
VStem: 93 437<491 492 0 398 1.53064e-18 1.53064e-18> 93 66<0 429 491 809> 463 67<0 496.268>
Fore
93 0 m 1,0,-1
 93 809 l 1,1,-1
 159 809 l 1,2,-1
 159 491 l 1,3,4
 206 539 206 539 249.5 566.5 c 128,-1,5
 293 594 293 594 358 594 c 0,6,7
 449 594 449 594 489.5 543 c 128,-1,8
 530 492 530 492 530 398 c 2,9,-1
 530 0 l 1,10,-1
 463 0 l 1,11,-1
 463 390 l 2,12,13
 463 464 463 464 437.5 502.5 c 128,-1,14
 412 541 412 541 345 541 c 0,15,16
 318 541 318 541 296 532.5 c 128,-1,17
 274 524 274 524 252.5 509.5 c 128,-1,18
 231 495 231 495 209 474.5 c 128,-1,19
 187 454 187 454 159 429 c 1,20,-1
 159 0 l 1,21,-1
 93 0 l 1,0,-1
EndSplineSet
EndChar
StartChar: i
Encoding: 105 105 74
Width: 248
VWidth: 1473
Flags: W
HStem: 0 21G<91 158> 562 20G<91 158> 710 99<91 158>
VStem: 91 67<0 582 710 809>
Fore
158 0 m 1,0,-1
 91 0 l 1,1,-1
 91 582 l 1,2,-1
 158 582 l 1,3,-1
 158 0 l 1,0,-1
91 710 m 1,4,-1
 91 809 l 1,5,-1
 158 809 l 1,6,-1
 158 710 l 1,7,-1
 91 710 l 1,4,-1
EndSplineSet
EndChar
StartChar: j
Encoding: 106 106 75
Width: 248
VWidth: 1473
Flags: W
HStem: -206 59<-16.6516 63.1971> 562 20G<91 158> 710 99<91 158>
VStem: 91 67<-108.205 -74 -74 582 710 809>
Fore
158 -65 m 2,0,1
 158 -141 158 -141 126 -173.5 c 128,-1,2
 94 -206 94 -206 19 -206 c 0,3,4
 1 -206 1 -206 -18.5 -204.5 c 128,-1,5
 -38 -203 -38 -203 -55 -197 c 1,6,7
 -65 -177 -65 -177 -61 -153.5 c 128,-1,8
 -57 -130 -57 -130 -50 -130 c 1,9,10
 -35 -137 -35 -137 -20.5 -142 c 128,-1,11
 -6 -147 -6 -147 12 -147 c 0,12,13
 32 -147 32 -147 47 -145 c 128,-1,14
 62 -143 62 -143 71.5 -135.5 c 128,-1,15
 81 -128 81 -128 86 -113.5 c 128,-1,16
 91 -99 91 -99 91 -74 c 2,17,-1
 91 582 l 1,18,-1
 158 582 l 1,19,-1
 158 -65 l 2,0,1
91 710 m 1,20,-1
 91 809 l 1,21,-1
 158 809 l 1,22,-1
 158 710 l 1,23,-1
 91 710 l 1,20,-1
EndSplineSet
EndChar
StartChar: k
Encoding: 107 107 76
Width: 559
VWidth: 1473
Flags: W
HStem: 0 21G<93 159 429.418 535> 562 20G<402.286 507> 789 20G<93 159>
VStem: 93 442<0 0 302 809> 93 66<0 209 302 809>
Fore
93 0 m 1,0,-1
 93 809 l 1,1,-1
 159 809 l 1,2,-1
 159 302 l 1,3,-1
 421 582 l 1,4,-1
 507 582 l 1,5,-1
 264 320 l 1,6,-1
 535 0 l 1,7,-1
 446 0 l 1,8,-1
 218 275 l 1,9,-1
 159 209 l 1,10,-1
 159 0 l 1,11,-1
 93 0 l 1,0,-1
EndSplineSet
EndChar
StartChar: l
Encoding: 108 108 77
Width: 248
VWidth: 1473
Flags: W
HStem: 0 21G<91 158> 789 20G<91 158>
VStem: 91 67<0 809>
Fore
91 809 m 1,0,-1
 158 809 l 1,1,-1
 158 0 l 1,2,-1
 91 0 l 1,3,-1
 91 809 l 1,0,-1
EndSplineSet
EndChar
StartChar: m
Encoding: 109 109 78
Width: 932
VWidth: 1473
Flags: W
HStem: 0 21G<93 159 433 499 772 840> 541 53<307.532 403.076 624.593 743.169>
VStem: 93 66<0 429 494 582> 433 66<0 429> 772 68<0 512.654>
Fore
93 0 m 1,0,-1
 93 582 l 1,1,-1
 159 582 l 1,2,-1
 159 494 l 1,3,4
 181 517 181 517 201.5 535.5 c 128,-1,5
 222 554 222 554 244.5 567 c 128,-1,6
 267 580 267 580 292.5 587 c 128,-1,7
 318 594 318 594 352 594 c 0,8,9
 401 594 401 594 441.5 564.5 c 128,-1,10
 482 535 482 535 494 488 c 1,11,12
 533 533 533 533 578 563.5 c 128,-1,13
 623 594 623 594 687 594 c 0,14,15
 763 594 763 594 801.5 553.5 c 128,-1,16
 840 513 840 513 840 435 c 2,17,-1
 840 0 l 1,18,-1
 772 0 l 1,19,-1
 772 442 l 2,20,21
 772 541 772 541 672 541 c 0,22,23
 653 541 653 541 628.5 531.5 c 128,-1,24
 604 522 604 522 579.5 506.5 c 128,-1,25
 555 491 555 491 534 470 c 128,-1,26
 513 449 513 449 499 429 c 1,27,-1
 499 0 l 1,28,-1
 433 0 l 1,29,-1
 433 442 l 2,30,31
 433 491 433 491 406.5 516 c 128,-1,32
 380 541 380 541 331 541 c 0,33,34
 312 541 312 541 288 531.5 c 128,-1,35
 264 522 264 522 239.5 506.5 c 128,-1,36
 215 491 215 491 193.5 470 c 128,-1,37
 172 449 172 449 159 429 c 1,38,-1
 159 0 l 1,39,-1
 93 0 l 1,0,-1
EndSplineSet
EndChar
StartChar: n
Encoding: 110 110 79
Width: 623
VWidth: 1473
Flags: W
HStem: 0 21G<93 159 463 530> 541 53<261.383 421.772>
VStem: 93 437<429 492 0 398 1.53064e-18 1.53064e-18> 93 66<0 429 492 582> 463 67<0 496.268>
Fore
93 0 m 1,0,-1
 93 582 l 1,1,-1
 159 582 l 1,2,-1
 159 492 l 1,3,4
 194 541 194 541 243.5 567.5 c 128,-1,5
 293 594 293 594 358 594 c 0,6,7
 449 594 449 594 489.5 543 c 128,-1,8
 530 492 530 492 530 398 c 2,9,-1
 530 0 l 1,10,-1
 463 0 l 1,11,-1
 463 390 l 2,12,13
 463 464 463 464 437.5 502.5 c 128,-1,14
 412 541 412 541 345 541 c 0,15,16
 290 541 290 541 246.5 510 c 128,-1,17
 203 479 203 479 159 429 c 1,18,-1
 159 0 l 1,19,-1
 93 0 l 1,0,-1
EndSplineSet
EndChar
StartChar: o
Encoding: 111 111 80
Width: 559
VWidth: 1473
Flags: W
HStem: -12 55<184.405 375.295> 541 53<192.275 368.459>
VStem: 41 67<179.585 363.131> 452 67<179.585 363.131>
Fore
280 541 m 0,0,1
 230 541 230 541 196 524 c 128,-1,2
 162 507 162 507 143 475 c 128,-1,3
 124 443 124 443 116 397 c 128,-1,4
 108 351 108 351 108 292 c 0,5,6
 108 172 108 172 143 107.5 c 128,-1,7
 178 43 178 43 280 43 c 256,8,9
 382 43 382 43 417 107.5 c 128,-1,10
 452 172 452 172 452 292 c 0,11,12
 452 351 452 351 444 397 c 128,-1,13
 436 443 436 443 417 475 c 128,-1,14
 398 507 398 507 364.5 524 c 128,-1,15
 331 541 331 541 280 541 c 0,0,1
280 594 m 0,16,17
 349 594 349 594 394.5 573 c 128,-1,18
 440 552 440 552 467.5 513 c 128,-1,19
 495 474 495 474 507 418 c 128,-1,20
 519 362 519 362 519 292 c 256,21,22
 519 221 519 221 507 165 c 128,-1,23
 495 109 495 109 467.5 69 c 128,-1,24
 440 29 440 29 394.5 8.5 c 128,-1,25
 349 -12 349 -12 280 -12 c 0,26,27
 212 -12 212 -12 166.5 8.5 c 128,-1,28
 121 29 121 29 93 69 c 128,-1,29
 65 109 65 109 53 165 c 128,-1,30
 41 221 41 221 41 292 c 256,31,32
 41 362 41 362 53 418 c 128,-1,33
 65 474 65 474 93 513 c 128,-1,34
 121 552 121 552 166.5 573 c 128,-1,35
 212 594 212 594 280 594 c 0,16,17
EndSplineSet
EndChar
StartChar: p
Encoding: 112 112 81
Width: 611
VWidth: 1473
Flags: W
HStem: -206 21G<103 166> -12 53<257.256 418.395> 539 55<269.125 440.472>
VStem: 103 63<-206 31 103 418 492 529.218> 504 66<144.876 443.519>
Fore
166 103 m 1,0,1
 192 84 192 84 232.5 62.5 c 128,-1,2
 273 41 273 41 323 41 c 0,3,4
 426 41 426 41 465 107.5 c 128,-1,5
 504 174 504 174 504 299 c 0,6,7
 504 421 504 421 473.5 480 c 128,-1,8
 443 539 443 539 355 539 c 0,9,10
 293 539 293 539 246 501.5 c 128,-1,11
 199 464 199 464 166 418 c 1,12,-1
 166 103 l 1,0,1
143 582 m 0,13,14
 156 582 156 582 161 568.5 c 128,-1,15
 166 555 166 555 166 523 c 2,16,-1
 166 492 l 1,17,-1
 168 492 l 1,18,19
 202 544 202 544 252 569 c 128,-1,20
 302 594 302 594 359 594 c 0,21,22
 411 594 411 594 450 577.5 c 128,-1,23
 489 561 489 561 515.5 525 c 128,-1,24
 542 489 542 489 556 431 c 128,-1,25
 570 373 570 373 570 287 c 0,26,27
 570 147 570 147 512.5 67.5 c 128,-1,28
 455 -12 455 -12 340 -12 c 0,29,30
 281 -12 281 -12 244.5 -1 c 128,-1,31
 208 10 208 10 166 31 c 1,32,-1
 166 -206 l 1,33,-1
 103 -206 l 1,34,-1
 103 386 l 2,35,36
 103 399 103 399 103 425 c 128,-1,37
 103 451 103 451 101.5 478 c 128,-1,38
 100 505 100 505 98 530 c 128,-1,39
 96 555 96 555 91 567 c 1,40,-1
 106 575 l 2,41,42
 121 582 121 582 143 582 c 0,13,14
EndSplineSet
EndChar
StartChar: q
Encoding: 113 113 82
Width: 611
VWidth: 1473
Flags: W
HStem: -206 21G<445 508> -12 53<193.105 335.255 297.123 350.583> 539 55<180.679 350.042>
VStem: 41 67<144.876 413.588> 445 63<-206 31 103 408.392 408.392 433>
Fore
445 433 m 1,0,1
 412 479 412 479 365 509 c 128,-1,2
 318 539 318 539 256 539 c 0,3,4
 212 539 212 539 183.5 522 c 128,-1,5
 155 505 155 505 138 474 c 128,-1,6
 121 443 121 443 114.5 399 c 128,-1,7
 108 355 108 355 108 299 c 0,8,9
 108 174 108 174 147 107.5 c 128,-1,10
 186 41 186 41 289 41 c 0,11,12
 339 41 339 41 374.5 57.5 c 128,-1,13
 410 74 410 74 445 103 c 1,14,-1
 445 433 l 1,0,1
527 567 m 1,15,16
 523 555 523 555 519.5 532.5 c 128,-1,17
 516 510 516 510 513.5 483.5 c 128,-1,18
 511 457 511 457 509.5 431 c 128,-1,19
 508 405 508 405 508 386 c 2,20,-1
 508 -206 l 1,21,-1
 445 -206 l 1,22,-1
 445 31 l 1,23,24
 421 18 421 18 402 9.5 c 128,-1,25
 383 1 383 1 364 -4 c 128,-1,26
 345 -9 345 -9 323 -10.5 c 128,-1,27
 301 -12 301 -12 271 -12 c 0,28,29
 156 -12 156 -12 98.5 67.5 c 128,-1,30
 41 147 41 147 41 287 c 0,31,32
 41 448 41 448 95.5 521 c 128,-1,33
 150 594 150 594 252 594 c 0,34,35
 374 594 374 594 451 514 c 1,36,37
 452 547 452 547 457.5 564.5 c 128,-1,38
 463 582 463 582 476 582 c 0,39,40
 498 582 498 582 513 575 c 2,41,-1
 527 567 l 1,15,16
EndSplineSet
EndChar
StartChar: r
Encoding: 114 114 83
Width: 388
VWidth: 1473
Flags: W
HStem: 0 21G<87 155> 529 65<245.67 345.641>
VStem: 87 68<0 405.874 471 582>
Fore
301 529 m 0,0,1
 275 529 275 529 249.5 513.5 c 128,-1,2
 224 498 224 498 202.5 470.5 c 128,-1,3
 181 443 181 443 168 407 c 128,-1,4
 155 371 155 371 155 329 c 2,5,-1
 155 0 l 1,6,-1
 87 0 l 1,7,-1
 87 582 l 1,8,-1
 155 582 l 1,9,-1
 155 471 l 1,10,-1
 156 471 l 1,11,12
 180 526 180 526 221 560 c 128,-1,13
 262 594 262 594 318 594 c 0,14,15
 326 594 326 594 342.5 592.5 c 128,-1,16
 359 591 359 591 368 586 c 1,17,18
 373 576 373 576 372 564 c 128,-1,19
 371 552 371 552 367.5 541 c 128,-1,20
 364 530 364 530 359 523 c 128,-1,21
 354 516 354 516 351 516 c 1,22,23
 329 529 329 529 301 529 c 0,0,1
EndSplineSet
EndChar
StartChar: s
Encoding: 115 115 84
Width: 496
VWidth: 1473
Flags: W
HStem: -12 55<171.979 316.431> 541 53<170.835 311.334>
VStem: 44 68<387.034 505.35> 387 68<91.2099 215.003>
Fore
41 119 m 2,0,1
 47 125 47 125 53 130.5 c 128,-1,2
 59 136 59 136 65 138 c 0,3,4
 81 146 81 146 91 133 c 0,5,6
 130 84 130 84 172 63.5 c 128,-1,7
 214 43 214 43 258 43 c 0,8,9
 314 43 314 43 350.5 75.5 c 128,-1,10
 387 108 387 108 387 155 c 0,11,12
 387 196 387 196 361.5 219 c 128,-1,13
 336 242 336 242 298.5 256 c 128,-1,14
 261 270 261 270 216 280 c 128,-1,15
 171 290 171 290 133.5 307 c 128,-1,16
 96 324 96 324 70 353.5 c 128,-1,17
 44 383 44 383 44 435 c 0,18,19
 44 476 44 476 61 506 c 128,-1,20
 78 536 78 536 105.5 555.5 c 128,-1,21
 133 575 133 575 166 584.5 c 128,-1,22
 199 594 199 594 230 594 c 0,23,24
 292 594 292 594 345.5 566.5 c 128,-1,25
 399 539 399 539 430 489 c 1,26,27
 426 483 426 483 420 477 c 0,28,29
 415 473 415 473 408.5 468 c 128,-1,30
 402 463 402 463 392 460 c 0,31,32
 385 457 385 457 381 460 c 128,-1,33
 377 463 377 463 370 471 c 0,34,35
 343 505 343 505 309 523 c 128,-1,36
 275 541 275 541 227 541 c 256,37,38
 178 541 178 541 145 516 c 128,-1,39
 112 491 112 491 112 438 c 0,40,41
 112 402 112 402 138 383 c 128,-1,42
 164 364 164 364 201.5 350.5 c 128,-1,43
 239 337 239 337 284 326 c 128,-1,44
 329 315 329 315 366.5 296 c 128,-1,45
 404 277 404 277 429.5 244 c 128,-1,46
 455 211 455 211 455 155 c 0,47,48
 455 115 455 115 438 84 c 128,-1,49
 421 53 421 53 393 31.5 c 128,-1,50
 365 10 365 10 329 -1 c 128,-1,51
 293 -12 293 -12 253 -12 c 0,52,53
 186 -12 186 -12 127.5 16 c 128,-1,54
 69 44 69 44 28 106 c 1,55,-1
 41 119 l 2,0,1
EndSplineSet
EndChar
StartChar: t
Encoding: 116 116 85
Width: 310
VWidth: 1473
Flags: W
HStem: -12 61<175.077 240.635 238.059 243.212 243.212 261 261.5 298.437> 529 53<12 99 165 295>
VStem: 99 66<62.4104 529 582 772>
Fore
99 582 m 1,0,-1
 99 772 l 1,1,-1
 165 772 l 1,2,-1
 165 582 l 1,3,-1
 295 582 l 1,4,-1
 295 529 l 1,5,-1
 165 529 l 1,6,-1
 165 105 l 2,7,8
 165 75 165 75 177.5 62 c 128,-1,9
 190 49 190 49 222 49 c 0,10,11
 239 49 239 49 261 54 c 128,-1,12
 283 59 283 59 299 66 c 1,13,14
 302 65 302 65 305 54.5 c 128,-1,15
 308 44 308 44 308.5 32.5 c 128,-1,16
 309 21 309 21 307.5 10.5 c 128,-1,17
 306 0 306 0 299 -1 c 0,18,19
 281 -6 281 -6 261.5 -9 c 128,-1,20
 242 -12 242 -12 225 -12 c 0,21,22
 153 -12 153 -12 126 12.5 c 128,-1,23
 99 37 99 37 99 91 c 2,24,-1
 99 529 l 1,25,-1
 12 529 l 1,26,-1
 12 582 l 1,27,-1
 99 582 l 1,0,-1
EndSplineSet
EndChar
StartChar: u
Encoding: 117 117 86
Width: 623
VWidth: 1473
Flags: W
HStem: -12 55<199.847 365.802> 562 20G<93 159 463 530>
VStem: 93 66<87.5342 582> 463 67<34.7368 47.7137 47.7137 48 48 63.4734 63.4734 74.9692 74.9692 93 155 582>
Fore
466 93 m 1,0,1
 440 43 440 43 385 15.5 c 128,-1,2
 330 -12 330 -12 265 -12 c 0,3,4
 172 -12 172 -12 132.5 39 c 128,-1,5
 93 90 93 90 93 184 c 2,6,-1
 93 582 l 1,7,-1
 159 582 l 1,8,-1
 159 192 l 2,9,10
 159 119 159 119 184 81 c 128,-1,11
 209 43 209 43 277 43 c 0,12,13
 333 43 333 43 381 73 c 128,-1,14
 429 103 429 103 463 155 c 1,15,-1
 463 582 l 1,16,-1
 530 582 l 1,17,-1
 530 121 l 2,18,19
 530 69 530 69 535.5 48 c 128,-1,20
 541 27 541 27 545 12 c 1,21,22
 533 6 533 6 523 3 c 128,-1,23
 513 0 513 0 501 0 c 0,24,25
 495 0 495 0 487 2 c 128,-1,26
 479 4 479 4 474 12 c 0,27,28
 471 18 471 18 469.5 30.5 c 128,-1,29
 468 43 468 43 467 57 c 0,30,31
 466 74 466 74 466 93 c 1,0,1
EndSplineSet
EndChar
StartChar: v
Encoding: 118 118 87
Width: 496
VWidth: 1473
Flags: W
HStem: 0 21G<208.127 287.907> 562 20G<15 93.6388 403.278 482>
VStem: 15 467<582 582 582 582>
Fore
15 582 m 1,0,-1
 87 582 l 1,1,-1
 246 103 l 1,2,-1
 249 103 l 1,3,-1
 410 582 l 1,4,-1
 482 582 l 1,5,-1
 281 0 l 1,6,-1
 215 0 l 1,7,-1
 15 582 l 1,0,-1
EndSplineSet
EndChar
StartChar: w
Encoding: 119 119 88
Width: 746
VWidth: 1473
Flags: W
HStem: 0 21G<165.433 244.61 496.475 574.808> 562 20G<9 80.5675 333.304 412.482 663.39 738>
Fore
9 582 m 1,0,-1
 75 582 l 1,1,-1
 205 115 l 1,2,-1
 206 115 l 1,3,-1
 339 582 l 1,4,-1
 407 582 l 1,5,-1
 535 115 l 1,6,-1
 538 115 l 1,7,-1
 669 582 l 1,8,-1
 738 582 l 1,9,-1
 569 0 l 1,10,-1
 502 0 l 1,11,-1
 373 467 l 1,12,-1
 370 467 l 1,13,-1
 239 0 l 1,14,-1
 171 0 l 1,15,-1
 9 582 l 1,0,-1
EndSplineSet
EndChar
StartChar: x
Encoding: 120 120 89
Width: 496
VWidth: 1473
Flags: W
HStem: 0 21G<12 105.735 394.102 486> 562 20G<34 127.823 370.177 463>
VStem: 12 474<0 0 1.53064e-18 1.53064e-18>
Fore
93 0 m 1,0,-1
 12 0 l 1,1,-1
 209 309 l 1,2,-1
 34 582 l 1,3,-1
 115 582 l 1,4,-1
 249 373 l 1,5,-1
 383 582 l 1,6,-1
 463 582 l 1,7,-1
 289 309 l 1,8,-1
 486 0 l 1,9,-1
 407 0 l 1,10,-1
 249 245 l 1,11,-1
 93 0 l 1,0,-1
EndSplineSet
EndChar
StartChar: y
Encoding: 121 121 90
Width: 496
VWidth: 1473
Flags: W
HStem: -206 56<61.1005 142.669> 562 20G<15 93.7653 404.15 485>
VStem: 7.5 477.5<-180.5 582 -180.5 -180.5>
Fore
247 109 m 1,0,-1
 249 109 l 1,1,-1
 411 582 l 1,2,-1
 485 582 l 1,3,-1
 267 -43 l 2,4,5
 237 -127 237 -127 198 -166.5 c 128,-1,6
 159 -206 159 -206 81 -206 c 0,7,8
 59 -206 59 -206 44 -202.5 c 128,-1,9
 29 -199 29 -199 18 -194 c 0,10,11
 9 -192 9 -192 7.5 -180.5 c 128,-1,12
 6 -169 6 -169 9 -157.5 c 128,-1,13
 12 -146 12 -146 16.5 -135 c 128,-1,14
 21 -124 21 -124 25 -121 c 1,15,16
 41 -133 41 -133 55 -141.5 c 128,-1,17
 69 -150 69 -150 90 -150 c 0,18,19
 124 -150 124 -150 157 -115.5 c 128,-1,20
 190 -81 190 -81 215 9 c 1,21,-1
 15 582 l 1,22,-1
 87 582 l 1,23,-1
 247 109 l 1,0,-1
EndSplineSet
EndChar
StartChar: z
Encoding: 122 122 91
Width: 496
VWidth: 1473
Flags: W
HStem: 0 53<118 463> 529 53<55 364>
Fore
55 582 m 1,0,-1
 454 582 l 1,1,-1
 454 541 l 1,2,-1
 118 53 l 1,3,-1
 463 53 l 1,4,-1
 463 0 l 1,5,-1
 28 0 l 1,6,-1
 28 43 l 1,7,-1
 364 529 l 1,8,-1
 55 529 l 1,9,-1
 55 582 l 1,0,-1
EndSplineSet
EndChar
StartChar: braceleft
Encoding: 123 123 92
Width: 372
VWidth: 1473
Flags: W
HStem: -93 41<194.862 284> 345 38<49 99.5957> 779 42<194.862 284>
VStem: 49 235<383 821 317.27 674.585> 116 67<-38.0699 319.73 408.27 765.585>
Fore
49 383 m 1,0,1
 87 383 87 383 101.5 407.5 c 128,-1,2
 116 432 116 432 116 474 c 2,3,-1
 116 692 l 2,4,5
 116 754 116 754 142 787.5 c 128,-1,6
 168 821 168 821 215 821 c 2,7,-1
 284 821 l 1,8,-1
 284 779 l 1,9,-1
 228 779 l 2,10,11
 206 779 206 779 194.5 766 c 128,-1,12
 183 753 183 753 183 706 c 2,13,-1
 183 485 l 2,14,15
 183 429 183 429 162 402.5 c 128,-1,16
 141 376 141 376 103 365 c 1,17,-1
 103 362 l 1,18,19
 141 354 141 354 162 326.5 c 128,-1,20
 183 299 183 299 183 243 c 2,21,-1
 183 22 l 2,22,23
 183 -25 183 -25 194.5 -38.5 c 128,-1,24
 206 -52 206 -52 228 -52 c 2,25,-1
 284 -52 l 1,26,-1
 284 -93 l 1,27,-1
 215 -93 l 2,28,29
 168 -93 168 -93 142 -60 c 128,-1,30
 116 -27 116 -27 116 35 c 2,31,-1
 116 253 l 2,32,33
 116 296 116 296 101.5 320.5 c 128,-1,34
 87 345 87 345 49 345 c 1,35,-1
 49 383 l 1,0,1
EndSplineSet
EndChar
StartChar: bar
Encoding: 124 124 93
Width: 248
VWidth: 1473
Flags: W
HStem: -12 21G<94 155>
VStem: 94 61<-12 821>
Fore
94 821 m 1,0,-1
 155 821 l 1,1,-1
 155 -12 l 1,2,-1
 94 -12 l 1,3,-1
 94 821 l 1,0,-1
EndSplineSet
EndChar
StartChar: braceright
Encoding: 125 125 94
Width: 372
VWidth: 1473
Flags: W
HStem: -93 41<88 177.138> 345 38<271.848 323> 779 42<88 177.138>
VStem: 88 235<-93 345 72.2699 429.585> 189 67<-38.0699 319.73 408.27 765.585>
Fore
323 345 m 1,0,1
 284 345 284 345 270 320.5 c 128,-1,2
 256 296 256 296 256 253 c 2,3,-1
 256 35 l 2,4,5
 256 -27 256 -27 230.5 -60 c 128,-1,6
 205 -93 205 -93 158 -93 c 2,7,-1
 88 -93 l 1,8,-1
 88 -52 l 1,9,-1
 144 -52 l 2,10,11
 166 -52 166 -52 177.5 -38.5 c 128,-1,12
 189 -25 189 -25 189 22 c 2,13,-1
 189 243 l 2,14,15
 189 299 189 299 210 326.5 c 128,-1,16
 231 354 231 354 270 362 c 1,17,-1
 270 365 l 1,18,19
 231 376 231 376 210 402.5 c 128,-1,20
 189 429 189 429 189 485 c 2,21,-1
 189 706 l 2,22,23
 189 753 189 753 177.5 766 c 128,-1,24
 166 779 166 779 144 779 c 2,25,-1
 88 779 l 1,26,-1
 88 821 l 1,27,-1
 158 821 l 2,28,29
 205 821 205 821 230.5 787.5 c 128,-1,30
 256 754 256 754 256 692 c 2,31,-1
 256 474 l 2,32,33
 256 432 256 432 270 407.5 c 128,-1,34
 284 383 284 383 323 383 c 1,35,-1
 323 345 l 1,0,1
EndSplineSet
EndChar
StartChar: asciitilde
Encoding: 126 126 95
Width: 671
VWidth: 1473
Flags: W
HStem: 222 64<431.876 524.007> 296 63<147.482 240.222>
Fore
614 317 m 1,0,1
 595 281 595 281 560.5 251.5 c 128,-1,2
 526 222 526 222 463 222 c 0,3,4
 433 222 433 222 399 232.5 c 128,-1,5
 365 243 365 243 330 259 c 0,6,7
 296 273 296 273 263.5 284.5 c 128,-1,8
 231 296 231 296 206 296 c 0,9,10
 169 296 169 296 144 271.5 c 128,-1,11
 119 247 119 247 99 218 c 1,12,-1
 57 267 l 1,13,14
 77 301 77 301 112 330 c 128,-1,15
 147 359 147 359 209 359 c 0,16,17
 239 359 239 359 272.5 349 c 128,-1,18
 306 339 306 339 342 323 c 0,19,20
 376 309 376 309 408 297.5 c 128,-1,21
 440 286 440 286 466 286 c 0,22,23
 502 286 502 286 527 310 c 128,-1,24
 552 334 552 334 573 364 c 1,25,-1
 614 317 l 1,0,1
EndSplineSet
EndChar
StartChar: uni0E33.alt1
Encoding: 65537 -1 96
Width: 493
VWidth: 1473
Flags: W
HStem: 0 21G<334 395> 547 51<162.836 271.509> 688 49<-374.15 -297.85> 837 48<-374.15 -297.85>
VStem: -435 49<749.07 824.818> -286 49<749.07 824.818> 334 61<3.09668 21 21 59.1292 60.8763 153.788 153.788 276.546 276.546 283.808 283.808 315.5 320 373.852> 342 59<321.756 490.111>
Fore
-237 787 m 256,0,1
 -237 745 -237 745 -266 716.5 c 128,-1,2
 -295 688 -295 688 -336 688 c 256,3,4
 -377 688 -377 688 -406 716.5 c 128,-1,5
 -435 745 -435 745 -435 787 c 256,6,7
 -435 828 -435 828 -406 856.5 c 128,-1,8
 -377 885 -377 885 -336 885 c 256,9,10
 -295 885 -295 885 -266 856.5 c 128,-1,11
 -237 828 -237 828 -237 787 c 256,0,1
-286 787 m 256,12,13
 -286 807 -286 807 -300.5 822 c 128,-1,14
 -315 837 -315 837 -336 837 c 256,15,16
 -357 837 -357 837 -371.5 822 c 128,-1,17
 -386 807 -386 807 -386 787 c 256,18,19
 -386 766 -386 766 -371.5 751.5 c 128,-1,20
 -357 737 -357 737 -336 737 c 256,21,22
 -315 737 -315 737 -300.5 751.5 c 128,-1,23
 -286 766 -286 766 -286 787 c 256,12,13
334 225 m 2,24,25
 334 273 334 273 338 315.5 c 128,-1,26
 342 358 342 358 342 410 c 0,27,28
 342 458 342 458 327 485.5 c 128,-1,29
 312 513 312 513 292.5 526 c 128,-1,30
 273 539 273 539 253.5 543 c 128,-1,31
 234 547 234 547 225 547 c 0,32,33
 174 547 174 547 134 520.5 c 128,-1,34
 94 494 94 494 56 449 c 0,35,36
 49 440 49 440 32 450.5 c 128,-1,37
 15 461 15 461 0 480 c 1,38,39
 13 499 13 499 38 520 c 128,-1,40
 63 541 63 541 93.5 558.5 c 128,-1,41
 124 576 124 576 156.5 587 c 128,-1,42
 189 598 189 598 217 598 c 0,43,44
 301 598 301 598 351 555.5 c 128,-1,45
 401 513 401 513 401 410 c 0,46,47
 401 362 401 362 398 320 c 128,-1,48
 395 278 395 278 395 233 c 0,49,50
 395 217 395 217 395 186 c 128,-1,51
 395 155 395 155 396.5 121.5 c 128,-1,52
 398 88 398 88 399.5 60 c 128,-1,53
 401 32 401 32 402 21 c 0,54,55
 405 6 405 6 401.5 3 c 128,-1,56
 398 0 398 0 392 0 c 2,57,-1
 334 0 l 1,58,-1
 334 225 l 2,24,25
EndSplineSet
EndChar
StartChar: exclamdown
Encoding: 161 161 100
Width: 248
VWidth: 1473
Flags: W
HStem: 482 100<75 172>
VStem: 75 97<-227 -137.909 482 582> 97 56<243.909 333>
Fore
75 -227 m 1,0,-1
 97 333 l 1,1,-1
 153 333 l 1,2,-1
 172 -227 l 1,3,-1
 75 -227 l 1,0,-1
172 582 m 1,4,-1
 172 482 l 1,5,-1
 75 482 l 1,6,-1
 75 582 l 1,7,-1
 172 582 l 1,4,-1
EndSplineSet
EndChar
StartChar: cent
Encoding: 162 162 101
Width: 623
VWidth: 1473
Flags: W
HStem: -3 46<243 264.708 264.708 267.307 266.008 380.145> 508 47<210.488 316.541>
VStem: 62 60<137.938 391.706>
Fore
330 499 m 1,0,1
 318 502 318 502 308 505 c 128,-1,2
 298 508 298 508 286 508 c 0,3,4
 249 508 249 508 219 495.5 c 128,-1,5
 189 483 189 483 167.5 455 c 128,-1,6
 146 427 146 427 134 382 c 128,-1,7
 122 337 122 337 122 273 c 0,8,9
 122 121 122 121 197 66 c 1,10,-1
 330 499 l 1,0,1
243 43 m 1,11,12
 261 38 261 38 286 38 c 0,13,14
 352 38 352 38 386 66 c 128,-1,15
 420 94 420 94 439 144 c 1,16,-1
 488 121 l 1,17,18
 466 66 466 66 418.5 28 c 128,-1,19
 371 -10 371 -10 286 -10 c 0,20,21
 255 -10 255 -10 228 -3 c 1,22,-1
 190 -119 l 1,23,-1
 137 -119 l 1,24,-1
 181 15 l 1,25,26
 122 47 122 47 92 106.5 c 128,-1,27
 62 166 62 166 62 273 c 0,28,29
 62 351 62 351 78 404.5 c 128,-1,30
 94 458 94 458 123.5 491 c 128,-1,31
 153 524 153 524 194.5 539.5 c 128,-1,32
 236 555 236 555 286 555 c 0,33,34
 317 555 317 555 345 547 c 1,35,-1
 380 653 l 1,36,-1
 433 653 l 1,37,-1
 390 526 l 1,38,39
 420 507 420 507 440.5 479.5 c 128,-1,40
 461 452 461 452 473 414 c 1,41,-1
 418 399 l 1,42,43
 404 442 404 442 373 471 c 1,44,-1
 243 43 l 1,11,12
EndSplineSet
EndChar
StartChar: sterling
Encoding: 163 163 102
Width: 623
VWidth: 1473
Flags: W
HStem: -10 60<241.377 395.792> 333 47<15 119 193 331> 664 62<220.035 389.709>
VStem: 111 65<381.156 450 453 476.083 476.083 495.124 485.604 613.236> 125 63.5<142.845 265.969 380 448.875> 125 70<218.564 288.363 283.485 293.242 293.242 316.5 316.5 333> 452 64<532.422 624.113> 467 63<111.036 177>
Fore
16 66 m 1,0,1
 49 75 49 75 71 95 c 128,-1,2
 93 115 93 115 106 142 c 128,-1,3
 119 169 119 169 125 201.5 c 128,-1,4
 131 234 131 234 131 267 c 0,5,6
 131 283 131 283 129 300 c 128,-1,7
 127 317 127 317 125 333 c 1,8,-1
 15 333 l 1,9,-1
 15 380 l 1,10,-1
 119 380 l 1,11,12
 116 417 116 417 111 453 c 128,-1,13
 106 489 106 489 106 526 c 0,14,15
 106 617 106 617 160 671.5 c 128,-1,16
 214 726 214 726 305 726 c 0,17,18
 390 726 390 726 445.5 677 c 128,-1,19
 501 628 501 628 516 544 c 1,20,-1
 452 523 l 1,21,22
 438 589 438 589 407 626.5 c 128,-1,23
 376 664 376 664 305 664 c 0,24,25
 233 664 233 664 202.5 626.5 c 128,-1,26
 172 589 172 589 172 523 c 0,27,28
 172 486 172 486 176 450 c 128,-1,29
 180 414 180 414 187 380 c 1,30,-1
 331 380 l 1,31,-1
 331 333 l 1,32,-1
 193 333 l 1,33,34
 194 320 194 320 195 306.5 c 128,-1,35
 196 293 196 293 196 280 c 0,36,37
 196 231 196 231 188.5 193.5 c 128,-1,38
 181 156 181 156 161 112 c 1,39,40
 196 90 196 90 242.5 70 c 128,-1,41
 289 50 289 50 331 50 c 0,42,43
 361 50 361 50 382.5 55 c 128,-1,44
 404 60 404 60 419.5 74 c 128,-1,45
 435 88 435 88 446 113 c 128,-1,46
 457 138 457 138 467 177 c 1,47,-1
 530 165 l 1,48,49
 514 81 514 81 469 35.5 c 128,-1,50
 424 -10 424 -10 342 -10 c 0,51,52
 271 -10 271 -10 225.5 13.5 c 128,-1,53
 180 37 180 37 134 66 c 1,54,55
 113 38 113 38 81.5 17.5 c 128,-1,56
 50 -3 50 -3 16 -10 c 1,57,-1
 16 66 l 1,0,1
EndSplineSet
EndChar
StartChar: currency
Encoding: 164 164 103
Width: 623
VWidth: 1473
Flags: W
HStem: 82 55<224.571 400.489> 585 53<224.571 398.27>
VStem: 34 60<272.602 447.429> 529 60<272.602 447.429>
Fore
589 595 m 1,0,-1
 529 535 l 1,1,2
 561 496 561 496 575 452 c 128,-1,3
 589 408 589 408 589 361 c 256,4,5
 589 314 589 314 575 268 c 128,-1,6
 561 222 561 222 529 186 c 1,7,-1
 589 125 l 1,8,-1
 547 82 l 1,9,-1
 485 143 l 1,10,11
 408 82 408 82 311 82 c 0,12,13
 264 82 264 82 219.5 97.5 c 128,-1,14
 175 113 175 113 138 143 c 1,15,-1
 75 82 l 1,16,-1
 34 125 l 1,17,-1
 94 186 l 1,18,19
 62 222 62 222 48 268 c 128,-1,20
 34 314 34 314 34 361 c 256,21,22
 34 408 34 408 48 452 c 128,-1,23
 62 496 62 496 94 535 c 1,24,-1
 34 595 l 1,25,-1
 75 638 l 1,26,-1
 138 576 l 1,27,28
 175 607 175 607 219.5 622.5 c 128,-1,29
 264 638 264 638 311 638 c 0,30,31
 410 638 410 638 485 576 c 1,32,-1
 547 638 l 1,33,-1
 589 595 l 1,0,-1
311 137 m 0,34,35
 357 137 357 137 396.5 154.5 c 128,-1,36
 436 172 436 172 465.5 203 c 128,-1,37
 495 234 495 234 512 274.5 c 128,-1,38
 529 315 529 315 529 361 c 0,39,40
 529 405 529 405 512 445.5 c 128,-1,41
 495 486 495 486 465.5 517 c 128,-1,42
 436 548 436 548 396.5 566.5 c 128,-1,43
 357 585 357 585 311 585 c 0,44,45
 267 585 267 585 227 566.5 c 128,-1,46
 187 548 187 548 157.5 517 c 128,-1,47
 128 486 128 486 111 445.5 c 128,-1,48
 94 405 94 405 94 361 c 0,49,50
 94 315 94 315 111 274.5 c 128,-1,51
 128 234 128 234 157.5 203 c 128,-1,52
 187 172 187 172 227 154.5 c 128,-1,53
 267 137 267 137 311 137 c 0,34,35
EndSplineSet
EndChar
StartChar: yen
Encoding: 165 165 104
Width: 623
VWidth: 1473
Flags: W
HStem: 0 21G<239 305> 243 47<63 239 305 479> 389 47<49 164 382 494> 696 20G<-1 79.3803 472.887 552>
VStem: 239 66<0 243 290 303>
Fore
494 389 m 1,0,-1
 357 389 l 1,1,-1
 305 303 l 1,2,-1
 305 290 l 1,3,-1
 479 290 l 1,4,-1
 479 243 l 1,5,-1
 305 243 l 1,6,-1
 305 0 l 1,7,-1
 239 0 l 1,8,-1
 239 243 l 1,9,-1
 63 243 l 1,10,-1
 63 290 l 1,11,-1
 239 290 l 1,12,-1
 239 303 l 1,13,-1
 189 389 l 1,14,-1
 49 389 l 1,15,-1
 49 436 l 1,16,-1
 164 436 l 1,17,-1
 -1 716 l 1,18,-1
 68 716 l 1,19,-1
 270 361 l 1,20,-1
 485 716 l 1,21,-1
 552 716 l 1,22,-1
 382 436 l 1,23,-1
 494 436 l 1,24,-1
 494 389 l 1,0,-1
EndSplineSet
EndChar
StartChar: brokenbar
Encoding: 166 166 105
Width: 248
VWidth: 1473
Flags: W
HStem: -12 21G<94 155>
VStem: 94 61<-12 302 507 821>
Fore
94 302 m 1,0,-1
 155 302 l 1,1,-1
 155 -12 l 1,2,-1
 94 -12 l 1,3,-1
 94 302 l 1,0,-1
94 821 m 1,4,-1
 155 821 l 1,5,-1
 155 507 l 1,6,-1
 94 507 l 1,7,-1
 94 821 l 1,4,-1
EndSplineSet
EndChar
StartChar: section
Encoding: 167 167 106
Width: 539
VWidth: 1473
Flags: W
HStem: -90 49<181.765 306.802> 448 35<154.235 203> 586 21G<395 436.429> 675 50<210.321 351.478>
VStem: 74 56<323.817 427.427> 134 56<552.727 658.998> 349 56<-20.3379 79.3695> 410 56<205.642 317.085>
Fore
405 586 m 1,0,1
 385 628 385 628 354.5 651.5 c 128,-1,2
 324 675 324 675 277 675 c 0,3,4
 239 675 239 675 214.5 661 c 128,-1,5
 190 647 190 647 190 600 c 0,6,7
 190 576 190 576 210.5 553 c 128,-1,8
 231 530 231 530 261.5 506.5 c 128,-1,9
 292 483 292 483 328 457.5 c 128,-1,10
 364 432 364 432 394 402.5 c 128,-1,11
 424 373 424 373 445 339 c 128,-1,12
 466 305 466 305 466 265 c 0,13,14
 466 208 466 208 430.5 180 c 128,-1,15
 395 152 395 152 343 147 c 1,16,17
 368 118 368 118 386.5 93 c 128,-1,18
 405 68 405 68 405 28 c 0,19,20
 405 -6 405 -6 392 -28 c 128,-1,21
 379 -50 379 -50 356.5 -64 c 128,-1,22
 334 -78 334 -78 306 -84 c 128,-1,23
 278 -90 278 -90 249 -90 c 0,24,25
 197 -90 197 -90 151.5 -61 c 128,-1,26
 106 -32 106 -32 85 15 c 1,27,-1
 131 44 l 1,28,29
 146 9 146 9 177.5 -16 c 128,-1,30
 209 -41 209 -41 249 -41 c 0,31,32
 296 -41 296 -41 322.5 -24 c 128,-1,33
 349 -7 349 -7 349 35 c 0,34,35
 349 56 349 56 328.5 79 c 128,-1,36
 308 102 308 102 277.5 128.5 c 128,-1,37
 247 155 247 155 211 183.5 c 128,-1,38
 175 212 175 212 145 243.5 c 128,-1,39
 115 275 115 275 94.5 308.5 c 128,-1,40
 74 342 74 342 74 377 c 0,41,42
 74 432 74 432 111.5 457.5 c 128,-1,43
 149 483 149 483 203 483 c 1,44,-1
 206 486 l 1,45,46
 177 507 177 507 155.5 535.5 c 128,-1,47
 134 564 134 564 134 608 c 0,48,49
 134 666 134 666 175.5 695.5 c 128,-1,50
 217 725 217 725 283 725 c 0,51,52
 340 725 340 725 382 695.5 c 128,-1,53
 424 666 424 666 449 614 c 1,54,-1
 405 586 l 1,0,1
202 448 m 256,55,56
 177 448 177 448 153.5 429.5 c 128,-1,57
 130 411 130 411 130 382 c 0,58,59
 130 354 130 354 155 319 c 128,-1,60
 180 284 180 284 213 254 c 128,-1,61
 246 224 246 224 280 203.5 c 128,-1,62
 314 183 314 183 333 183 c 0,63,64
 368 183 368 183 389 205.5 c 128,-1,65
 410 228 410 228 410 262 c 0,66,67
 410 287 410 287 387 319 c 128,-1,68
 364 351 364 351 331 379.5 c 128,-1,69
 298 408 298 408 262.5 428 c 128,-1,70
 227 448 227 448 202 448 c 256,55,56
EndSplineSet
EndChar
StartChar: dieresis
Encoding: 168 168 107
Width: 248
VWidth: 1473
Flags: W
HStem: 659 106<0 74 175 249>
VStem: 0 74<659 765> 175 74<659 765>
Fore
74 765 m 1,0,-1
 74 659 l 1,1,-1
 0 659 l 1,2,-1
 0 765 l 1,3,-1
 74 765 l 1,0,-1
249 765 m 1,4,-1
 249 659 l 1,5,-1
 175 659 l 1,6,-1
 175 765 l 1,7,-1
 249 765 l 1,4,-1
EndSplineSet
EndChar
StartChar: copyright
Encoding: 169 169 108
Width: 895
VWidth: 1473
Flags: W
HStem: -10 50<281.891 512.383> 125 50<334.835 482.834> 541 50<320.167 483.321> 676 50<281.891 512.383>
VStem: 28 59<239.134 476.866> 186 57<294.962 453.527> 539 53<208.496 283> 706 59<239.134 476.866>
Fore
396 726 m 256,0,1
 473 726 473 726 540 696.5 c 128,-1,2
 607 667 607 667 657 617 c 128,-1,3
 707 567 707 567 736 500 c 128,-1,4
 765 433 765 433 765 358 c 256,5,6
 765 283 765 283 736 216 c 128,-1,7
 707 149 707 149 657 99 c 128,-1,8
 607 49 607 49 540 19.5 c 128,-1,9
 473 -10 473 -10 396 -10 c 256,10,11
 320 -10 320 -10 253 19.5 c 128,-1,12
 186 49 186 49 135.5 99 c 128,-1,13
 85 149 85 149 56.5 216 c 128,-1,14
 28 283 28 283 28 358 c 256,15,16
 28 433 28 433 56.5 500 c 128,-1,17
 85 567 85 567 135.5 617 c 128,-1,18
 186 667 186 667 253 696.5 c 128,-1,19
 320 726 320 726 396 726 c 256,0,1
396 40 m 256,20,21
 463 40 463 40 519.5 65 c 128,-1,22
 576 90 576 90 617.5 132.5 c 128,-1,23
 659 175 659 175 682.5 233.5 c 128,-1,24
 706 292 706 292 706 358 c 256,25,26
 706 424 706 424 682.5 482.5 c 128,-1,27
 659 541 659 541 617.5 583.5 c 128,-1,28
 576 626 576 626 519.5 651 c 128,-1,29
 463 676 463 676 396 676 c 256,30,31
 330 676 330 676 274 651 c 128,-1,32
 218 626 218 626 176 583.5 c 128,-1,33
 134 541 134 541 110.5 482.5 c 128,-1,34
 87 424 87 424 87 358 c 256,35,36
 87 292 87 292 110.5 233.5 c 128,-1,37
 134 175 134 175 176 132.5 c 128,-1,38
 218 90 218 90 274 65 c 128,-1,39
 330 40 330 40 396 40 c 256,20,21
592 283 m 1,40,41
 576 212 576 212 527.5 168.5 c 128,-1,42
 479 125 479 125 408 125 c 0,43,44
 357 125 357 125 315.5 143 c 128,-1,45
 274 161 274 161 245.5 192.5 c 128,-1,46
 217 224 217 224 201.5 266.5 c 128,-1,47
 186 309 186 309 186 359 c 256,48,49
 186 410 186 410 200.5 452 c 128,-1,50
 215 494 215 494 243 524.5 c 128,-1,51
 271 555 271 555 311.5 573 c 128,-1,52
 352 591 352 591 404 591 c 0,53,54
 477 591 477 591 530 551 c 128,-1,55
 583 511 583 511 592 436 c 1,56,-1
 539 436 l 1,57,58
 530 479 530 479 495.5 510 c 128,-1,59
 461 541 461 541 405 541 c 0,60,61
 327 541 327 541 285 488 c 128,-1,62
 243 435 243 435 243 359 c 0,63,64
 243 324 243 324 255 290 c 128,-1,65
 267 256 267 256 288 231 c 128,-1,66
 309 206 309 206 340 190.5 c 128,-1,67
 371 175 371 175 408 175 c 0,68,69
 461 175 461 175 495.5 206 c 128,-1,70
 530 237 530 237 539 283 c 1,71,-1
 592 283 l 1,40,41
EndSplineSet
EndChar
StartChar: ordfeminine
Encoding: 170 170 109
Width: 335
VWidth: 1473
Flags: W
HStem: 460 44<81.9156 173.545> 650 47<181.871 230.048> 719 21G<35.5652 76.5> 775 46<105.017 229.727>
VStem: 15 56<514.642 592.572> 242 56<483.5 499 499 507.745 555 650 697 760.561>
Fore
31 742 m 1,0,1
 56 785 56 785 90 803 c 128,-1,2
 124 821 124 821 177 821 c 0,3,4
 240 821 240 821 269 795 c 128,-1,5
 298 769 298 769 298 713 c 2,6,-1
 298 538 l 2,7,8
 298 513 298 513 299.5 499 c 128,-1,9
 301 485 301 485 305 466 c 1,10,-1
 255 466 l 1,11,-1
 249 508 l 1,12,13
 220 483 220 483 191 471.5 c 128,-1,14
 162 460 162 460 119 460 c 0,15,16
 74 460 74 460 44.5 483.5 c 128,-1,17
 15 507 15 507 15 550 c 0,18,19
 15 594 15 594 40 619.5 c 128,-1,20
 65 645 65 645 101 660 c 128,-1,21
 137 675 137 675 176 682 c 128,-1,22
 215 689 215 689 242 697 c 1,23,-1
 242 725 l 2,24,25
 242 747 242 747 227 761 c 128,-1,26
 212 775 212 775 171 775 c 0,27,28
 134 775 134 775 110.5 761.5 c 128,-1,29
 87 748 87 748 66 719 c 1,30,-1
 31 742 l 1,0,1
242 650 m 1,31,32
 224 644 224 644 194.5 637.5 c 128,-1,33
 165 631 165 631 137.5 619.5 c 128,-1,34
 110 608 110 608 90.5 592 c 128,-1,35
 71 576 71 576 71 551 c 0,36,37
 71 530 71 530 85.5 517 c 128,-1,38
 100 504 100 504 127 504 c 0,39,40
 156 504 156 504 189 518 c 128,-1,41
 222 532 222 532 242 555 c 1,42,-1
 242 650 l 1,31,32
EndSplineSet
EndChar
StartChar: guillemotleft
Encoding: 171 171 110
Width: 559
VWidth: 1473
Flags: W
HStem: 119 344<395 467 395 395>
VStem: 93 374<119 295 295 295>
Fore
327 295 m 1,0,-1
 467 119 l 1,1,-1
 395 119 l 1,2,-1
 258 295 l 1,3,-1
 395 463 l 1,4,-1
 467 463 l 1,5,-1
 327 295 l 1,0,-1
162 295 m 1,6,-1
 301 119 l 1,7,-1
 227 119 l 1,8,-1
 93 295 l 1,9,-1
 227 463 l 1,10,-1
 301 463 l 1,11,-1
 162 295 l 1,6,-1
EndSplineSet
EndChar
StartChar: logicalnot
Encoding: 172 172 111
Width: 671
VWidth: 1473
Flags: W
HStem: 314 62<44 567>
VStem: 567 61<119 314>
Fore
567 314 m 1,0,-1
 44 314 l 1,1,-1
 44 376 l 1,2,-1
 628 376 l 1,3,-1
 628 119 l 1,4,-1
 567 119 l 1,5,-1
 567 314 l 1,0,-1
EndSplineSet
EndChar
StartChar: registered
Encoding: 174 174 112
Width: 895
VWidth: 1473
Flags: W
HStem: -10 50<281.891 512.383> 334 49<320 402.361 402.361 404> 527 49<320 448.469> 676 50<281.891 512.383>
VStem: 28 59<239.134 476.866> 261 59<138 334 383 527> 508 61<408.305 496.107> 706 59<239.134 476.866>
Fore
320 138 m 1,0,-1
 261 138 l 1,1,-1
 261 576 l 1,2,-1
 427 576 l 2,3,4
 502 576 502 576 535.5 545 c 128,-1,5
 569 514 569 514 569 455 c 0,6,7
 569 398 569 398 537 370 c 128,-1,8
 505 342 505 342 468 334 c 1,9,-1
 589 138 l 1,10,-1
 523 138 l 1,11,-1
 404 334 l 1,12,-1
 320 334 l 1,13,-1
 320 138 l 1,0,-1
387 383 m 2,14,15
 410 383 410 383 431 384 c 128,-1,16
 452 385 452 385 469 391.5 c 128,-1,17
 486 398 486 398 497 413.5 c 128,-1,18
 508 429 508 429 508 457 c 0,19,20
 508 479 508 479 500 493 c 128,-1,21
 492 507 492 507 479 515 c 128,-1,22
 466 523 466 523 449 525 c 128,-1,23
 432 527 432 527 414 527 c 2,24,-1
 320 527 l 1,25,-1
 320 383 l 1,26,-1
 387 383 l 2,14,15
396 726 m 256,27,28
 473 726 473 726 540 696.5 c 128,-1,29
 607 667 607 667 657 617 c 128,-1,30
 707 567 707 567 736 500 c 128,-1,31
 765 433 765 433 765 358 c 256,32,33
 765 283 765 283 736 216 c 128,-1,34
 707 149 707 149 657 99 c 128,-1,35
 607 49 607 49 540 19.5 c 128,-1,36
 473 -10 473 -10 396 -10 c 256,37,38
 320 -10 320 -10 253 19.5 c 128,-1,39
 186 49 186 49 135.5 99 c 128,-1,40
 85 149 85 149 56.5 216 c 128,-1,41
 28 283 28 283 28 358 c 256,42,43
 28 433 28 433 56.5 500 c 128,-1,44
 85 567 85 567 135.5 617 c 128,-1,45
 186 667 186 667 253 696.5 c 128,-1,46
 320 726 320 726 396 726 c 256,27,28
396 40 m 256,47,48
 463 40 463 40 519.5 65 c 128,-1,49
 576 90 576 90 617.5 132.5 c 128,-1,50
 659 175 659 175 682.5 233.5 c 128,-1,51
 706 292 706 292 706 358 c 256,52,53
 706 424 706 424 682.5 482.5 c 128,-1,54
 659 541 659 541 617.5 583.5 c 128,-1,55
 576 626 576 626 519.5 651 c 128,-1,56
 463 676 463 676 396 676 c 256,57,58
 330 676 330 676 274 651 c 128,-1,59
 218 626 218 626 176 583.5 c 128,-1,60
 134 541 134 541 110.5 482.5 c 128,-1,61
 87 424 87 424 87 358 c 256,62,63
 87 292 87 292 110.5 233.5 c 128,-1,64
 134 175 134 175 176 132.5 c 128,-1,65
 218 90 218 90 274 65 c 128,-1,66
 330 40 330 40 396 40 c 256,47,48
EndSplineSet
EndChar
StartChar: macron
Encoding: 175 175 113
Width: 248
VWidth: 1473
Flags: W
HStem: 691 50<-43 290>
VStem: -43 333<691 741 691 741 691 691>
Fore
-43 741 m 1,0,-1
 290 741 l 1,1,-1
 290 691 l 1,2,-1
 -43 691 l 1,3,-1
 -43 741 l 1,0,-1
EndSplineSet
EndChar
StartChar: degree
Encoding: 176 176 114
Width: 447
VWidth: 1473
Flags: W
HStem: 492 49<157.858 290.142> 772 49<157.858 290.142>
VStem: 60 52<589.892 723.38> 336 51<589.892 723.38>
Fore
224 772 m 256,0,1
 174 772 174 772 143 739 c 128,-1,2
 112 706 112 706 112 657 c 0,3,4
 112 607 112 607 143 574 c 128,-1,5
 174 541 174 541 224 541 c 256,6,7
 274 541 274 541 305 574 c 128,-1,8
 336 607 336 607 336 657 c 0,9,10
 336 706 336 706 305 739 c 128,-1,11
 274 772 274 772 224 772 c 256,0,1
224 821 m 256,12,13
 259 821 259 821 288.5 807.5 c 128,-1,14
 318 794 318 794 340 772 c 128,-1,15
 362 750 362 750 374.5 720.5 c 128,-1,16
 387 691 387 691 387 657 c 256,17,18
 387 623 387 623 374.5 593 c 128,-1,19
 362 563 362 563 340 541 c 128,-1,20
 318 519 318 519 288.5 505.5 c 128,-1,21
 259 492 259 492 224 492 c 256,22,23
 189 492 189 492 159.5 505.5 c 128,-1,24
 130 519 130 519 107.5 541 c 128,-1,25
 85 563 85 563 72.5 593 c 128,-1,26
 60 623 60 623 60 657 c 256,27,28
 60 691 60 691 72.5 720.5 c 128,-1,29
 85 750 85 750 107.5 772 c 128,-1,30
 130 794 130 794 159.5 807.5 c 128,-1,31
 189 821 189 821 224 821 c 256,12,13
EndSplineSet
EndChar
StartChar: plusminus
Encoding: 177 177 115
Width: 671
VWidth: 1473
Flags: W
HStem: 0 60<44 628> 315 61<44 305 367 628> 562 20G<305 367>
VStem: 305 62<108 315 376 582>
Fore
305 582 m 1,0,-1
 367 582 l 1,1,-1
 367 376 l 1,2,-1
 628 376 l 1,3,-1
 628 315 l 1,4,-1
 367 315 l 1,5,-1
 367 108 l 1,6,-1
 305 108 l 1,7,-1
 305 315 l 1,8,-1
 44 315 l 1,9,-1
 44 376 l 1,10,-1
 305 376 l 1,11,-1
 305 582 l 1,0,-1
44 60 m 1,12,-1
 628 60 l 1,13,-1
 628 0 l 1,14,-1
 44 0 l 1,15,-1
 44 60 l 1,12,-1
EndSplineSet
EndChar
StartChar: twosuperior
Encoding: 178 178 116
Width: 340
VWidth: 1473
Flags: W
HStem: 289 45<72 317> 595 21G<28 84> 682 44<112.193 244.753>
VStem: 28 46<604.486 672.47> 267 51<560.103 659.235>
Fore
28 603 m 1,0,1
 40 661 40 661 80.5 693.5 c 128,-1,2
 121 726 121 726 183 726 c 256,3,4
 245 726 245 726 281.5 692.5 c 128,-1,5
 318 659 318 659 318 597 c 0,6,7
 318 566 318 566 305.5 544 c 128,-1,8
 293 522 293 522 273 503.5 c 128,-1,9
 253 485 253 485 229 468.5 c 128,-1,10
 205 452 205 452 181 435 c 0,11,12
 127 393 127 393 101 372 c 128,-1,13
 75 351 75 351 72 334 c 1,14,-1
 317 334 l 1,15,-1
 317 289 l 1,16,-1
 22 289 l 1,17,-1
 22 323 l 2,18,19
 22 336 22 336 25.5 348.5 c 128,-1,20
 29 361 29 361 42 377 c 128,-1,21
 55 393 55 393 78.5 414 c 128,-1,22
 102 435 102 435 143 463 c 0,23,24
 183 489 183 489 207 508 c 128,-1,25
 231 527 231 527 244.5 542.5 c 128,-1,26
 258 558 258 558 262.5 572 c 128,-1,27
 267 586 267 586 267 601 c 0,28,29
 267 638 267 638 245.5 660 c 128,-1,30
 224 682 224 682 186 682 c 0,31,32
 94 682 94 682 74 595 c 1,33,-1
 28 603 l 1,0,1
EndSplineSet
EndChar
StartChar: threesuperior
Encoding: 179 179 117
Width: 359
VWidth: 1473
Flags: W
HStem: 284 43<102.349 258.446> 495 44<118 239.025> 682 44<125.923 232.28>
VStem: 271 52<563.755 661.79> 286 51<353.275 466.717>
Fore
60 392 m 1,0,1
 82 354 82 354 108 340.5 c 128,-1,2
 134 327 134 327 181 327 c 0,3,4
 233 327 233 327 259.5 349 c 128,-1,5
 286 371 286 371 286 410 c 0,6,7
 286 455 286 455 253.5 475 c 128,-1,8
 221 495 221 495 161 495 c 2,9,-1
 118 495 l 1,10,-1
 118 539 l 1,11,-1
 153 539 l 2,12,13
 209 539 209 539 240 557 c 128,-1,14
 271 575 271 575 271 617 c 0,15,16
 271 647 271 647 245.5 664.5 c 128,-1,17
 220 682 220 682 186 682 c 0,18,19
 147 682 147 682 125 673 c 128,-1,20
 103 664 103 664 81 632 c 1,21,-1
 44 656 l 1,22,23
 72 694 72 694 106 710 c 128,-1,24
 140 726 140 726 183 726 c 0,25,26
 209 726 209 726 234 719.5 c 128,-1,27
 259 713 259 713 279 700 c 128,-1,28
 299 687 299 687 311 667 c 128,-1,29
 323 647 323 647 323 620 c 0,30,31
 323 583 323 583 310.5 559 c 128,-1,32
 298 535 298 535 256 519 c 1,33,34
 295 507 295 507 316 481 c 128,-1,35
 337 455 337 455 337 410 c 0,36,37
 337 342 337 342 292 313 c 128,-1,38
 247 284 247 284 178 284 c 0,39,40
 122 284 122 284 81.5 305 c 128,-1,41
 41 326 41 326 22 368 c 1,42,-1
 60 392 l 1,0,1
EndSplineSet
EndChar
StartChar: acute
Encoding: 180 180 118
Width: 248
VWidth: 1473
Flags: W
HStem: 647 154<110 265 265 265>
Fore
265 801 m 1,0,-1
 110 647 l 1,1,-1
 53 647 l 1,2,-1
 178 801 l 1,3,-1
 265 801 l 1,0,-1
EndSplineSet
EndChar
StartChar: mu
Encoding: 181 181 119
Width: 623
VWidth: 1473
Flags: W
HStem: -206 788<93 159 93 530 93 93> -12 55<199.392 333.469>
VStem: 93 66<-206 15 85.8867 582> 463 67<0 93 155 582>
Fore
530 582 m 1,0,-1
 530 0 l 1,1,-1
 463 0 l 1,2,-1
 463 93 l 1,3,4
 415 43 415 43 372.5 15.5 c 128,-1,5
 330 -12 330 -12 265 -12 c 0,6,7
 197 -12 197 -12 159 15 c 1,8,-1
 159 -206 l 1,9,-1
 93 -206 l 1,10,-1
 93 582 l 1,11,-1
 159 582 l 1,12,-1
 159 192 l 2,13,14
 159 119 159 119 184 81 c 128,-1,15
 209 43 209 43 277 43 c 0,16,17
 305 43 305 43 327 51 c 128,-1,18
 349 59 349 59 369.5 73.5 c 128,-1,19
 390 88 390 88 412.5 109 c 128,-1,20
 435 130 435 130 463 155 c 1,21,-1
 463 582 l 1,22,-1
 530 582 l 1,0,-1
EndSplineSet
EndChar
StartChar: paragraph
Encoding: 182 182 120
Width: 559
VWidth: 1473
Flags: W
HStem: 759 50<305 423 479 563>
VStem: 18 287<507.704 695.185> 249 56<-90 377> 423 56<-90 759>
Fore
249 377 m 1,0,1
 200 377 200 377 158 394 c 128,-1,2
 116 411 116 411 84.5 439.5 c 128,-1,3
 53 468 53 468 35.5 506.5 c 128,-1,4
 18 545 18 545 18 589 c 0,5,6
 18 695 18 695 83.5 752 c 128,-1,7
 149 809 149 809 267 809 c 2,8,-1
 563 809 l 1,9,-1
 563 759 l 1,10,-1
 479 759 l 1,11,-1
 479 -90 l 1,12,-1
 423 -90 l 1,13,-1
 423 759 l 1,14,-1
 305 759 l 1,15,-1
 305 -90 l 1,16,-1
 249 -90 l 1,17,-1
 249 377 l 1,0,1
EndSplineSet
EndChar
StartChar: periodcentered
Encoding: 183 183 121
Width: 310
VWidth: 1473
Flags: W
HStem: 236 112<117.048 193.468>
VStem: 99 112<252.502 330.983>
Fore
155 348 m 0,0,1
 177 348 177 348 194 331.5 c 128,-1,2
 211 315 211 315 211 292 c 256,3,4
 211 268 211 268 194 252 c 128,-1,5
 177 236 177 236 155 236 c 0,6,7
 134 236 134 236 116.5 252 c 128,-1,8
 99 268 99 268 99 292 c 256,9,10
 99 315 99 315 116.5 331.5 c 128,-1,11
 134 348 134 348 155 348 c 0,0,1
EndSplineSet
EndChar
StartChar: cedilla
Encoding: 184 184 122
Width: 248
VWidth: 1473
Flags: W
HStem: -233 233<106 125 106 108 106 106> -233 46<60.7681 126.355> -97 45<83.4147 137.326>
VStem: 0 225<-211 -146 -211 -209> 155 70<-172.734 -106.222>
Fore
15 -171 m 1,0,1
 29 -175 29 -175 48.5 -181 c 128,-1,2
 68 -187 68 -187 81 -187 c 0,3,4
 119 -187 119 -187 137 -177.5 c 128,-1,5
 155 -168 155 -168 155 -143 c 256,6,7
 155 -118 155 -118 139.5 -107.5 c 128,-1,8
 124 -97 124 -97 105 -97 c 0,9,10
 77 -97 77 -97 56 -106 c 1,11,-1
 40 -93 l 1,12,-1
 106 0 l 1,13,-1
 149 0 l 1,14,-1
 100 -56 l 1,15,-1
 103 -59 l 1,16,17
 113 -52 113 -52 137 -52 c 0,18,19
 178 -52 178 -52 201.5 -77 c 128,-1,20
 225 -102 225 -102 225 -146 c 0,21,22
 225 -168 225 -168 213.5 -184 c 128,-1,23
 202 -200 202 -200 184 -211 c 128,-1,24
 166 -222 166 -222 145.5 -227.5 c 128,-1,25
 125 -233 125 -233 108 -233 c 0,26,27
 80 -233 80 -233 52.5 -227.5 c 128,-1,28
 25 -222 25 -222 0 -211 c 1,29,-1
 15 -171 l 1,0,1
EndSplineSet
EndChar
StartChar: onesuperior
Encoding: 185 185 123
Width: 387
VWidth: 1473
Flags: W
HStem: 289 45<99 171 222 299>
VStem: 88 211<334 657 780 857> 171 51<334 676>
Fore
99 289 m 1,0,-1
 99 334 l 1,1,-1
 171 334 l 1,2,-1
 171 676 l 1,3,-1
 88 657 l 1,4,-1
 88 692 l 1,5,-1
 183 726 l 1,6,-1
 222 726 l 1,7,-1
 222 334 l 1,8,-1
 299 334 l 1,9,-1
 299 289 l 1,10,-1
 99 289 l 1,0,-1
EndSplineSet
EndChar
StartChar: ordmasculine
Encoding: 186 186 124
Width: 304
VWidth: 1473
Flags: W
HStem: 407 45<93.3013 212.323> 681 45<93.3013 212.323>
VStem: 15 54<502.192 630.18> 236 54<502.192 630.18>
Fore
69 566 m 256,0,1
 69 510 69 510 87.5 481 c 128,-1,2
 106 452 106 452 153 452 c 256,3,4
 200 452 200 452 218 481 c 128,-1,5
 236 510 236 510 236 566 c 256,6,7
 236 622 236 622 218 651.5 c 128,-1,8
 200 681 200 681 153 681 c 256,9,10
 106 681 106 681 87.5 651.5 c 128,-1,11
 69 622 69 622 69 566 c 256,0,1
153 726 m 256,12,13
 193 726 193 726 219 713 c 128,-1,14
 245 700 245 700 261 678 c 128,-1,15
 277 656 277 656 283.5 626.5 c 128,-1,16
 290 597 290 597 290 566 c 256,17,18
 290 535 290 535 283.5 506 c 128,-1,19
 277 477 277 477 261 455 c 128,-1,20
 245 433 245 433 219 420 c 128,-1,21
 193 407 193 407 153 407 c 256,22,23
 113 407 113 407 86.5 420 c 128,-1,24
 60 433 60 433 44 455 c 128,-1,25
 28 477 28 477 21.5 506 c 128,-1,26
 15 535 15 535 15 566 c 256,27,28
 15 597 15 597 21.5 626.5 c 128,-1,29
 28 656 28 656 44 678 c 128,-1,30
 60 700 60 700 86.5 713 c 128,-1,31
 113 726 113 726 153 726 c 256,12,13
EndSplineSet
EndChar
StartChar: guillemotright
Encoding: 187 187 125
Width: 559
VWidth: 1473
Flags: W
HStem: 119 344<93 165 93 93>
VStem: 93 374<289 463 463 463>
Fore
233 289 m 1,0,-1
 93 463 l 1,1,-1
 165 463 l 1,2,-1
 302 289 l 1,3,-1
 165 119 l 1,4,-1
 93 119 l 1,5,-1
 233 289 l 1,0,-1
398 289 m 1,6,-1
 259 463 l 1,7,-1
 333 463 l 1,8,-1
 467 289 l 1,9,-1
 333 119 l 1,10,-1
 259 119 l 1,11,-1
 398 289 l 1,6,-1
EndSplineSet
EndChar
StartChar: onequarter
Encoding: 188 188 126
Width: 878
VWidth: 1473
Flags: W
HStem: 0 21G<181 250.929 667 720> 103 43<514 667 720 790> 289 45<97 169 222 298>
VStem: 169 53<334 676> 667 53<0 103 146 370>
Fore
514 146 m 1,0,-1
 667 146 l 1,1,-1
 667 370 l 1,2,-1
 664 370 l 1,3,-1
 514 146 l 1,0,-1
461 152 m 1,4,-1
 654 430 l 1,5,-1
 720 430 l 1,6,-1
 720 146 l 1,7,-1
 790 146 l 1,8,-1
 790 103 l 1,9,-1
 720 103 l 1,10,-1
 720 0 l 1,11,-1
 667 0 l 1,12,-1
 667 103 l 1,13,-1
 461 103 l 1,14,-1
 461 152 l 1,4,-1
97 289 m 1,15,-1
 97 334 l 1,16,-1
 169 334 l 1,17,-1
 169 676 l 1,18,-1
 88 657 l 1,19,-1
 88 692 l 1,20,-1
 181 726 l 1,21,-1
 222 726 l 1,22,-1
 222 334 l 1,23,-1
 298 334 l 1,24,-1
 298 289 l 1,25,-1
 97 289 l 1,15,-1
620 726 m 1,26,-1
 678 726 l 1,27,-1
 239 -10 l 1,28,-1
 181 -10 l 1,29,-1
 620 726 l 1,26,-1
EndSplineSet
Ligature2: "'frac' Diagonal Fractions in Latin lookup 1 subtable" one fraction four
Ligature2: "'frac' Diagonal Fractions in Latin lookup 1 subtable" one slash four
EndChar
StartChar: onehalf
Encoding: 189 189 127
Width: 873
VWidth: 1473
Flags: W
HStem: 0 43<541 784> 289 45<97 169 222 298> 392 44<580.215 710.946>
VStem: 169 53<334 676> 489 52<43 58.109 312 352.523> 732 53<270.501 370.355>
Fore
97 289 m 1,0,-1
 97 334 l 1,1,-1
 169 334 l 1,2,-1
 169 676 l 1,3,-1
 88 657 l 1,4,-1
 88 692 l 1,5,-1
 181 726 l 1,6,-1
 222 726 l 1,7,-1
 222 334 l 1,8,-1
 298 334 l 1,9,-1
 298 289 l 1,10,-1
 97 289 l 1,0,-1
495 312 m 1,11,12
 507 371 507 371 548 403.5 c 128,-1,13
 589 436 589 436 651 436 c 256,14,15
 713 436 713 436 749 403 c 128,-1,16
 785 370 785 370 785 308 c 0,17,18
 785 277 785 277 772.5 254 c 128,-1,19
 760 231 760 231 740 212.5 c 128,-1,20
 720 194 720 194 696 178 c 128,-1,21
 672 162 672 162 648 144 c 0,22,23
 594 105 594 105 568 82.5 c 128,-1,24
 542 60 542 60 541 43 c 1,25,-1
 784 43 l 1,26,-1
 784 0 l 1,27,-1
 489 0 l 1,28,-1
 489 32 l 2,29,30
 489 46 489 46 492.5 58.5 c 128,-1,31
 496 71 496 71 509 87 c 128,-1,32
 522 103 522 103 545.5 124.5 c 128,-1,33
 569 146 569 146 610 175 c 0,34,35
 650 200 650 200 673.5 219.5 c 128,-1,36
 697 239 697 239 710 254.5 c 128,-1,37
 723 270 723 270 727.5 283 c 128,-1,38
 732 296 732 296 732 311 c 0,39,40
 732 348 732 348 711.5 370 c 128,-1,41
 691 392 691 392 654 392 c 0,42,43
 563 392 563 392 541 306 c 1,44,-1
 495 312 l 1,11,12
608 726 m 1,45,-1
 664 726 l 1,46,-1
 227 -10 l 1,47,-1
 168 -10 l 1,48,-1
 608 726 l 1,45,-1
EndSplineSet
Ligature2: "'frac' Diagonal Fractions in Latin lookup 1 subtable" one fraction two
Ligature2: "'frac' Diagonal Fractions in Latin lookup 1 subtable" one slash two
EndChar
StartChar: threequarters
Encoding: 190 190 128
Width: 876
VWidth: 1473
Flags: W
HStem: 0 21G<196 266.848 666 719> 103 43<513 666 719 788> 284 43<111.39 266.93> 495 44<127 248.025> 682 44<138.509 241.127>
VStem: 280 51<563.755 662.077> 295 51<354.418 465.845> 666 53<0 103 146 370>
Fore
513 146 m 1,0,-1
 666 146 l 1,1,-1
 666 370 l 1,2,-1
 663 370 l 1,3,-1
 513 146 l 1,0,-1
460 152 m 1,4,-1
 653 430 l 1,5,-1
 719 430 l 1,6,-1
 719 146 l 1,7,-1
 788 146 l 1,8,-1
 788 103 l 1,9,-1
 719 103 l 1,10,-1
 719 0 l 1,11,-1
 666 0 l 1,12,-1
 666 103 l 1,13,-1
 460 103 l 1,14,-1
 460 152 l 1,4,-1
71 392 m 1,15,16
 91 354 91 354 117 340.5 c 128,-1,17
 143 327 143 327 187 327 c 0,18,19
 240 327 240 327 267.5 349 c 128,-1,20
 295 371 295 371 295 410 c 0,21,22
 295 455 295 455 261.5 475 c 128,-1,23
 228 495 228 495 169 495 c 2,24,-1
 127 495 l 1,25,-1
 127 539 l 1,26,-1
 162 539 l 2,27,28
 218 539 218 539 249 557 c 128,-1,29
 280 575 280 575 280 617 c 0,30,31
 280 647 280 647 255 664.5 c 128,-1,32
 230 682 230 682 196 682 c 0,33,34
 177 682 177 682 161.5 680.5 c 128,-1,35
 146 679 146 679 133.5 673 c 128,-1,36
 121 667 121 667 110 657.5 c 128,-1,37
 99 648 99 648 87 632 c 1,38,-1
 52 656 l 1,39,40
 81 694 81 694 114 710 c 128,-1,41
 147 726 147 726 190 726 c 0,42,43
 217 726 217 726 242.5 719.5 c 128,-1,44
 268 713 268 713 288 700 c 128,-1,45
 308 687 308 687 319.5 667 c 128,-1,46
 331 647 331 647 331 620 c 0,47,48
 331 583 331 583 318.5 559 c 128,-1,49
 306 535 306 535 265 519 c 1,50,51
 303 507 303 507 324.5 481 c 128,-1,52
 346 455 346 455 346 410 c 0,53,54
 346 342 346 342 301 313 c 128,-1,55
 256 284 256 284 187 284 c 0,56,57
 71 284 71 284 29 368 c 1,58,-1
 71 392 l 1,15,16
635 726 m 1,59,-1
 691 726 l 1,60,-1
 255 -10 l 1,61,-1
 196 -10 l 1,62,-1
 635 726 l 1,59,-1
EndSplineSet
Ligature2: "'frac' Diagonal Fractions in Latin lookup 1 subtable" three fraction four
Ligature2: "'frac' Diagonal Fractions in Latin lookup 1 subtable" three slash four
EndChar
StartChar: questiondown
Encoding: 191 191 129
Width: 434
VWidth: 1473
Flags: W
HStem: -239 62<164.143 269.311> 482 100<211 305>
VStem: 34 74<-136.386 12.9863> 211 94<482 582> 224 60<202.615 336>
Fore
404 -99 m 1,0,1
 380 -162 380 -162 335 -200.5 c 128,-1,2
 290 -239 290 -239 218 -239 c 0,3,4
 183 -239 183 -239 149 -227 c 128,-1,5
 115 -215 115 -215 90 -192 c 128,-1,6
 65 -169 65 -169 49.5 -134.5 c 128,-1,7
 34 -100 34 -100 34 -55 c 0,8,9
 34 1 34 1 63.5 41 c 128,-1,10
 93 81 93 81 129 117 c 128,-1,11
 165 153 165 153 194.5 191.5 c 128,-1,12
 224 230 224 230 224 283 c 2,13,-1
 224 336 l 1,14,-1
 284 336 l 1,15,-1
 284 255 l 2,16,17
 284 212 284 212 257 175 c 128,-1,18
 230 138 230 138 197 101.5 c 128,-1,19
 164 65 164 65 136 23.5 c 128,-1,20
 108 -18 108 -18 108 -71 c 0,21,22
 108 -122 108 -122 140 -149.5 c 128,-1,23
 172 -177 172 -177 220 -177 c 0,24,25
 247 -177 247 -177 268 -167.5 c 128,-1,26
 289 -158 289 -158 304.5 -142.5 c 128,-1,27
 320 -127 320 -127 330 -107.5 c 128,-1,28
 340 -88 340 -88 348 -71 c 1,29,-1
 404 -99 l 1,0,1
305 582 m 1,30,-1
 305 482 l 1,31,-1
 211 482 l 1,32,-1
 211 582 l 1,33,-1
 305 582 l 1,30,-1
EndSplineSet
EndChar
StartChar: AE
Encoding: 198 198 136
Width: 956
VWidth: 1473
Flags: W
HStem: 0 62<579 922> 208 65<252 513> 351 61<579 882> 654 62<464 513 579 927>
VStem: 513 66<62 208 273 351 412 654>
Fore
579 62 m 1,0,-1
 922 62 l 1,1,-1
 922 0 l 1,2,-1
 513 0 l 1,3,-1
 513 208 l 1,4,-1
 222 208 l 1,5,-1
 109 0 l 1,6,-1
 29 0 l 1,7,-1
 426 716 l 1,8,-1
 927 716 l 1,9,-1
 927 654 l 1,10,-1
 579 654 l 1,11,-1
 579 412 l 1,12,-1
 882 412 l 1,13,-1
 882 351 l 1,14,-1
 579 351 l 1,15,-1
 579 62 l 1,0,-1
513 273 m 1,16,-1
 513 656 l 1,17,-1
 464 656 l 1,18,-1
 252 273 l 1,19,-1
 513 273 l 1,16,-1
EndSplineSet
EndChar
StartChar: Eth
Encoding: 208 208 146
Width: 687
VWidth: 1473
Flags: W
HStem: 0 62<162 454.776> 334 59<-29 88 162 385> 654 62<162 454.776>
VStem: 88 74<62 334 393 654> 555 74<228.579 475.456>
Fore
-29 334 m 1,0,-1
 -29 393 l 1,1,-1
 88 393 l 1,2,-1
 88 716 l 1,3,-1
 355 716 l 2,4,5
 433 716 433 716 486 693 c 128,-1,6
 539 670 539 670 571 623.5 c 128,-1,7
 603 577 603 577 616 508 c 128,-1,8
 629 439 629 439 629 348 c 0,9,10
 629 262 629 262 616 196.5 c 128,-1,11
 603 131 603 131 571 87.5 c 128,-1,12
 539 44 539 44 486 22 c 128,-1,13
 433 0 433 0 355 0 c 2,14,-1
 88 0 l 1,15,-1
 88 334 l 1,16,-1
 -29 334 l 1,0,-1
385 393 m 1,17,-1
 385 334 l 1,18,-1
 162 334 l 1,19,-1
 162 62 l 1,20,-1
 355 62 l 2,21,22
 417 62 417 62 456 79 c 128,-1,23
 495 96 495 96 517 130.5 c 128,-1,24
 539 165 539 165 547 219 c 128,-1,25
 555 273 555 273 555 348 c 0,26,27
 555 430 555 430 547 487.5 c 128,-1,28
 539 545 539 545 517 582.5 c 128,-1,29
 495 620 495 620 456 637 c 128,-1,30
 417 654 417 654 355 654 c 2,31,-1
 162 654 l 1,32,-1
 162 393 l 1,33,-1
 385 393 l 1,17,-1
EndSplineSet
EndChar
StartChar: multiply
Encoding: 215 215 153
Width: 573
VWidth: 1473
Flags: W
HStem: 565 20G<58 97.7156 475.19 515>
VStem: 37 499<127 127 127 127>
Fore
327 336 m 1,0,-1
 536 127 l 1,1,-1
 495 85 l 1,2,-1
 286 295 l 1,3,-1
 78 85 l 1,4,-1
 37 127 l 1,5,-1
 246 336 l 1,6,-1
 37 544 l 1,7,-1
 78 585 l 1,8,-1
 286 374 l 1,9,-1
 495 585 l 1,10,-1
 536 544 l 1,11,-1
 327 336 l 1,0,-1
EndSplineSet
EndChar
StartChar: Oslash
Encoding: 216 216 154
Width: 695
VWidth: 1473
Flags: W
HStem: -9 69<236.389 455.564> 654 66<239.831 460.231>
VStem: 59 77<232.401 485.038> 560 76<233.131 484.204>
Fore
68 -88 m 1,0,-1
 3 -88 l 1,1,-1
 118 93 l 1,2,3
 87 138 87 138 73 201.5 c 128,-1,4
 59 265 59 265 59 349 c 0,5,6
 59 533 59 533 124.5 626.5 c 128,-1,7
 190 720 190 720 348 720 c 0,8,9
 438 720 438 720 496 689 c 1,10,-1
 582 819 l 1,11,-1
 656 819 l 1,12,-1
 547 654 l 1,13,14
 594 607 594 607 615 531 c 128,-1,15
 636 455 636 455 636 349 c 0,16,17
 636 264 636 264 620.5 197 c 128,-1,18
 605 130 605 130 570.5 84 c 128,-1,19
 536 38 536 38 481 14.5 c 128,-1,20
 426 -9 426 -9 348 -9 c 0,21,22
 284 -9 284 -9 237 6 c 128,-1,23
 190 21 190 21 156 50 c 1,24,-1
 68 -88 l 1,0,-1
348 60 m 0,25,26
 410 60 410 60 451 77 c 128,-1,27
 492 94 492 94 516.5 129.5 c 128,-1,28
 541 165 541 165 550.5 219.5 c 128,-1,29
 560 274 560 274 560 349 c 0,30,31
 560 438 560 438 549 497.5 c 128,-1,32
 538 557 538 557 508 594 c 1,33,-1
 194 109 l 1,34,35
 243 60 243 60 348 60 c 0,25,26
348 654 m 0,36,37
 284 654 284 654 243.5 637 c 128,-1,38
 203 620 203 620 179 583.5 c 128,-1,39
 155 547 155 547 145.5 489.5 c 128,-1,40
 136 432 136 432 136 349 c 0,41,42
 136 289 136 289 141.5 241.5 c 128,-1,43
 147 194 147 194 162 161 c 1,44,-1
 461 632 l 1,45,46
 417 654 417 654 348 654 c 0,36,37
EndSplineSet
EndChar
StartChar: Thorn
Encoding: 222 222 160
Width: 655
VWidth: 1473
Flags: W
HStem: 0 21G<112 186> 131 61<186 439.964> 550 61<186 439.964> 696 20G<112 186>
VStem: 112 74<0 131 192 550 611 716> 526 75<318.529 424.2>
Fore
186 0 m 1,0,-1
 112 0 l 1,1,-1
 112 716 l 1,2,-1
 186 716 l 1,3,-1
 186 611 l 1,4,-1
 355 611 l 2,5,6
 427 611 427 611 475 593 c 128,-1,7
 523 575 523 575 551 542.5 c 128,-1,8
 579 510 579 510 590 466.5 c 128,-1,9
 601 423 601 423 601 371 c 0,10,11
 601 321 601 321 590 277 c 128,-1,12
 579 233 579 233 551 200.5 c 128,-1,13
 523 168 523 168 475 149.5 c 128,-1,14
 427 131 427 131 355 131 c 2,15,-1
 186 131 l 1,16,-1
 186 0 l 1,0,-1
186 192 m 1,17,-1
 355 192 l 2,18,19
 408 192 408 192 441 205 c 128,-1,20
 474 218 474 218 492.5 241.5 c 128,-1,21
 511 265 511 265 518.5 298 c 128,-1,22
 526 331 526 331 526 371 c 256,23,24
 526 411 526 411 518.5 444 c 128,-1,25
 511 477 511 477 492.5 500 c 128,-1,26
 474 523 474 523 441 536.5 c 128,-1,27
 408 550 408 550 355 550 c 2,28,-1
 186 550 l 1,29,-1
 186 192 l 1,17,-1
EndSplineSet
EndChar
StartChar: germandbls
Encoding: 223 223 161
Width: 559
VWidth: 1473
Flags: W
HStem: -12 55<302.709 403.931> 404 53<255 345> 754 55<207.089 355.665>
VStem: 85 439<116 305 0 225 1.53064e-18 1.53064e-18> 85 68<0 645.307> 407 67<516.068 693.425> 458 66<106.416 323.13>
Fore
85 0 m 1,0,-1
 85 597 l 2,1,2
 85 692 85 692 134 750.5 c 128,-1,3
 183 809 183 809 283 809 c 0,4,5
 326 809 326 809 361 793.5 c 128,-1,6
 396 778 396 778 421 751.5 c 128,-1,7
 446 725 446 725 460 688 c 128,-1,8
 474 651 474 651 474 608 c 0,9,10
 474 552 474 552 448.5 509 c 128,-1,11
 423 466 423 466 373 440 c 1,12,13
 448 417 448 417 486 361 c 128,-1,14
 524 305 524 305 524 225 c 0,15,16
 524 116 524 116 475 52 c 128,-1,17
 426 -12 426 -12 333 -12 c 0,18,19
 309 -12 309 -12 280.5 -4.5 c 128,-1,20
 252 3 252 3 231 15 c 1,21,-1
 255 65 l 1,22,23
 271 56 271 56 294 49.5 c 128,-1,24
 317 43 317 43 337 43 c 0,25,26
 395 43 395 43 426.5 89.5 c 128,-1,27
 458 136 458 136 458 217 c 0,28,29
 458 318 458 318 406.5 361 c 128,-1,30
 355 404 355 404 255 404 c 1,31,-1
 255 457 l 1,32,33
 327 460 327 460 367 493.5 c 128,-1,34
 407 527 407 527 407 611 c 0,35,36
 407 679 407 679 373.5 716.5 c 128,-1,37
 340 754 340 754 271 754 c 0,38,39
 236 754 236 754 213 741 c 128,-1,40
 190 728 190 728 177 706 c 128,-1,41
 164 684 164 684 158.5 656.5 c 128,-1,42
 153 629 153 629 153 601 c 2,43,-1
 153 0 l 1,44,-1
 85 0 l 1,0,-1
EndSplineSet
EndChar
StartChar: ae
Encoding: 230 230 168
Width: 917
VWidth: 1473
Flags: W
HStem: -12 55<135.499 306.542 553.747 730.215> 289 54<301.424 399 466 788> 541 53<185.195 363.271 549.767 706.759>
VStem: 29 62<88.2832 203.883> 399 67<225.744 289 346 387.178>
Fore
466 289 m 1,0,1
 466 239 466 239 474 194.5 c 128,-1,2
 482 150 482 150 502 116 c 128,-1,3
 522 82 522 82 555 62.5 c 128,-1,4
 588 43 588 43 638 43 c 0,5,6
 694 43 694 43 734.5 67 c 128,-1,7
 775 91 775 91 807 159 c 1,8,-1
 862 131 l 1,9,10
 826 53 826 53 771 20.5 c 128,-1,11
 716 -12 716 -12 632 -12 c 0,12,13
 564 -12 564 -12 520 17 c 128,-1,14
 476 46 476 46 443 99 c 1,15,16
 390 43 390 43 332.5 15.5 c 128,-1,17
 275 -12 275 -12 189 -12 c 0,18,19
 121 -12 121 -12 75 35 c 128,-1,20
 29 82 29 82 29 156 c 0,21,22
 29 215 29 215 53 252 c 128,-1,23
 77 289 77 289 123 309.5 c 128,-1,24
 169 330 169 330 239 338 c 128,-1,25
 309 346 309 346 402 346 c 1,26,-1
 402 423 l 2,27,28
 402 482 402 482 372.5 511.5 c 128,-1,29
 343 541 343 541 268 541 c 0,30,31
 217 541 217 541 175 513 c 128,-1,32
 133 485 133 485 99 435 c 1,33,-1
 47 463 l 1,34,35
 91 533 91 533 151 563.5 c 128,-1,36
 211 594 211 594 271 594 c 0,37,38
 345 594 345 594 388.5 566 c 128,-1,39
 432 538 432 538 451 489 c 1,40,41
 480 533 480 533 522 563.5 c 128,-1,42
 564 594 564 594 631 594 c 0,43,44
 689 594 689 594 732 572 c 128,-1,45
 775 550 775 550 802 509 c 128,-1,46
 829 468 829 468 842.5 412.5 c 128,-1,47
 856 357 856 357 856 289 c 1,48,-1
 466 289 l 1,0,1
399 292 m 1,49,50
 302 292 302 292 241.5 281 c 128,-1,51
 181 270 181 270 148 251.5 c 128,-1,52
 115 233 115 233 103 208.5 c 128,-1,53
 91 184 91 184 91 158 c 0,54,55
 91 109 91 109 123 76 c 128,-1,56
 155 43 155 43 200 43 c 0,57,58
 268 43 268 43 314.5 68.5 c 128,-1,59
 361 94 361 94 399 138 c 1,60,-1
 399 292 l 1,49,50
788 343 m 1,61,62
 784 387 784 387 774.5 424 c 128,-1,63
 765 461 765 461 747 487 c 128,-1,64
 729 513 729 513 700.5 527 c 128,-1,65
 672 541 672 541 628 541 c 256,66,67
 583 541 583 541 552.5 523 c 128,-1,68
 522 505 522 505 502.5 476.5 c 128,-1,69
 483 448 483 448 474.5 412.5 c 128,-1,70
 466 377 466 377 466 343 c 1,71,-1
 788 343 l 1,61,62
EndSplineSet
EndChar
StartChar: eth
Encoding: 240 240 178
Width: 559
VWidth: 1473
Flags: W
HStem: -12 55<191.96 368.505> 541 53<191.96 368.074> 789 20G<214.333 265 408.951 461>
VStem: 41 67<187.991 395.538> 452 67<187.991 405.001>
Fore
280 541 m 256,0,1
 189 541 189 541 148.5 476 c 128,-1,2
 108 411 108 411 108 292 c 256,3,4
 108 172 108 172 148.5 107.5 c 128,-1,5
 189 43 189 43 280 43 c 256,6,7
 371 43 371 43 411.5 107.5 c 128,-1,8
 452 172 452 172 452 292 c 256,9,10
 452 411 452 411 411.5 476 c 128,-1,11
 371 541 371 541 280 541 c 256,0,1
255 809 m 1,12,13
 275 794 275 794 295 779.5 c 128,-1,14
 315 765 315 765 333 748 c 1,15,-1
 446 809 l 1,16,-1
 479 765 l 1,17,-1
 374 709 l 1,18,19
 418 663 418 663 446 611.5 c 128,-1,20
 474 560 474 560 490.5 507 c 128,-1,21
 507 454 507 454 513 399.5 c 128,-1,22
 519 345 519 345 519 292 c 0,23,24
 519 233 519 233 507 177.5 c 128,-1,25
 495 122 495 122 467.5 80 c 128,-1,26
 440 38 440 38 394.5 13 c 128,-1,27
 349 -12 349 -12 280 -12 c 0,28,29
 212 -12 212 -12 166.5 13 c 128,-1,30
 121 38 121 38 93 80 c 128,-1,31
 65 122 65 122 53 177.5 c 128,-1,32
 41 233 41 233 41 292 c 256,33,34
 41 351 41 351 53 405.5 c 128,-1,35
 65 460 65 460 93 502 c 128,-1,36
 121 544 121 544 166.5 569 c 128,-1,37
 212 594 212 594 280 594 c 0,38,39
 345 594 345 594 390 569 c 1,40,-1
 393 572 l 1,41,42
 377 600 377 600 358.5 628 c 128,-1,43
 340 656 340 656 317 681 c 1,44,-1
 203 620 l 1,45,-1
 171 664 l 1,46,-1
 275 719 l 1,47,48
 258 737 258 737 238 751.5 c 128,-1,49
 218 766 218 766 194 779 c 1,50,-1
 255 809 l 1,12,13
EndSplineSet
EndChar
StartChar: divide
Encoding: 247 247 185
Width: 592
VWidth: 1473
Flags: W
HStem: 75 108<258.501 333.983> 303 62<52 541 52 541 52 52> 485 107<258.501 333.983>
VStem: 242 109<92.0165 165.983 501.501 575.499>
Fore
52 303 m 1,0,-1
 52 365 l 1,1,-1
 541 365 l 1,2,-1
 541 303 l 1,3,-1
 52 303 l 1,0,-1
296 592 m 256,4,5
 318 592 318 592 334.5 576 c 128,-1,6
 351 560 351 560 351 539 c 0,7,8
 351 517 351 517 334.5 501 c 128,-1,9
 318 485 318 485 296 485 c 256,10,11
 274 485 274 485 258 501 c 128,-1,12
 242 517 242 517 242 539 c 0,13,14
 242 560 242 560 258 576 c 128,-1,15
 274 592 274 592 296 592 c 256,4,5
296 183 m 256,16,17
 318 183 318 183 334.5 166.5 c 128,-1,18
 351 150 351 150 351 128 c 0,19,20
 351 108 351 108 334.5 91.5 c 128,-1,21
 318 75 318 75 296 75 c 256,22,23
 274 75 274 75 258 91.5 c 128,-1,24
 242 108 242 108 242 128 c 0,25,26
 242 150 242 150 258 166.5 c 128,-1,27
 274 183 274 183 296 183 c 256,16,17
EndSplineSet
EndChar
StartChar: oslash
Encoding: 248 248 186
Width: 559
VWidth: 1473
Flags: W
HStem: -12 55<207.068 375.295> 541 53<192.275 372.809>
VStem: 41 67<186.307 363.131> 452 67<179.585 395.716>
Fore
386 510 m 1,0,1
 349 541 349 541 280 541 c 0,2,3
 230 541 230 541 196 524 c 128,-1,4
 162 507 162 507 143 475 c 128,-1,5
 124 443 124 443 116 397 c 128,-1,6
 108 351 108 351 108 292 c 0,7,8
 108 237 108 237 113.5 194.5 c 128,-1,9
 119 152 119 152 136 119 c 1,10,-1
 386 510 l 1,0,1
168 77 m 1,11,12
 209 43 209 43 280 43 c 0,13,14
 382 43 382 43 417 107.5 c 128,-1,15
 452 172 452 172 452 292 c 0,16,17
 452 348 452 348 445 393 c 128,-1,18
 438 438 438 438 420 468 c 1,19,-1
 168 77 l 1,11,12
63 -88 m 1,20,-1
 3 -88 l 1,21,-1
 99 62 l 1,22,23
 68 100 68 100 54.5 158.5 c 128,-1,24
 41 217 41 217 41 292 c 0,25,26
 41 362 41 362 53 418 c 128,-1,27
 65 474 65 474 93 513 c 128,-1,28
 121 552 121 552 166.5 573 c 128,-1,29
 212 594 212 594 280 594 c 0,30,31
 364 594 364 594 418 560 c 1,32,-1
 499 687 l 1,33,-1
 560 687 l 1,34,-1
 457 526 l 1,35,36
 491 488 491 488 505 428 c 128,-1,37
 519 368 519 368 519 292 c 0,38,39
 519 221 519 221 507 165 c 128,-1,40
 495 109 495 109 467.5 69 c 128,-1,41
 440 29 440 29 394.5 8.5 c 128,-1,42
 349 -12 349 -12 280 -12 c 0,43,44
 233 -12 233 -12 197.5 -2.5 c 128,-1,45
 162 7 162 7 136 25 c 1,46,-1
 63 -88 l 1,20,-1
EndSplineSet
EndChar
StartChar: thorn
Encoding: 254 254 192
Width: 623
VWidth: 1473
Flags: W
HStem: -206 21G<103 171> -12 55<283.397 423.487> 541 53<264.566 421.026> 789 20G<103 171>
VStem: 103 68<-206 75 147 435 492 809> 516 66<156.831 375.877>
Fore
103 809 m 1,0,-1
 171 809 l 1,1,-1
 171 492 l 1,2,-1
 172 492 l 1,3,4
 206 544 206 544 249 569 c 128,-1,5
 292 594 292 594 349 594 c 0,6,7
 405 594 405 594 448.5 569 c 128,-1,8
 492 544 492 544 521.5 501 c 128,-1,9
 551 458 551 458 566.5 403.5 c 128,-1,10
 582 349 582 349 582 289 c 0,11,12
 582 136 582 136 518.5 62 c 128,-1,13
 455 -12 455 -12 352 -12 c 0,14,15
 293 -12 293 -12 253.5 8.5 c 128,-1,16
 214 29 214 29 171 75 c 1,17,-1
 171 -206 l 1,18,-1
 103 -206 l 1,19,-1
 103 809 l 1,0,-1
171 147 m 1,20,21
 180 133 180 133 197 114.5 c 128,-1,22
 214 96 214 96 236 80.5 c 128,-1,23
 258 65 258 65 283.5 54 c 128,-1,24
 309 43 309 43 334 43 c 0,25,26
 427 43 427 43 471.5 110.5 c 128,-1,27
 516 178 516 178 516 299 c 0,28,29
 516 345 516 345 505.5 388.5 c 128,-1,30
 495 432 495 432 474.5 465.5 c 128,-1,31
 454 499 454 499 421.5 520 c 128,-1,32
 389 541 389 541 345 541 c 0,33,34
 289 541 289 541 251.5 510 c 128,-1,35
 214 479 214 479 171 435 c 1,36,-1
 171 147 l 1,20,21
EndSplineSet
EndChar
StartChar: dotlessi
Encoding: 305 305 194
Width: 248
VWidth: 1473
Flags: W
HStem: 0 21G<91 158> 562 20G<91 158>
VStem: 91 67<0 582>
Fore
158 0 m 1,0,-1
 91 0 l 1,1,-1
 91 582 l 1,2,-1
 158 582 l 1,3,-1
 158 0 l 1,0,-1
EndSplineSet
EndChar
StartChar: Lslash
Encoding: 321 321 195
Width: 559
VWidth: 1473
Flags: W
HStem: 0 60<186 547> 789 20G<112 186>
VStem: 112 74<60 362 463 809>
Fore
186 393 m 1,0,-1
 186 60 l 1,1,-1
 547 60 l 1,2,-1
 547 0 l 1,3,-1
 112 0 l 1,4,-1
 112 362 l 1,5,-1
 18 324 l 1,6,-1
 18 395 l 1,7,-1
 112 433 l 1,8,-1
 112 809 l 1,9,-1
 186 809 l 1,10,-1
 186 463 l 1,11,-1
 377 539 l 1,12,-1
 377 468 l 1,13,-1
 186 393 l 1,0,-1
EndSplineSet
EndChar
StartChar: lslash
Encoding: 322 322 196
Width: 248
VWidth: 1473
Flags: W
HStem: 0 21G<91 158> 789 20G<91 158>
VStem: 91 67<0 374 480 809>
Fore
158 0 m 1,0,-1
 91 0 l 1,1,-1
 91 374 l 1,2,-1
 1 327 l 1,3,-1
 1 399 l 1,4,-1
 91 445 l 1,5,-1
 91 809 l 1,6,-1
 158 809 l 1,7,-1
 158 480 l 1,8,-1
 247 526 l 1,9,-1
 247 455 l 1,10,-1
 158 408 l 1,11,-1
 158 0 l 1,0,-1
EndSplineSet
EndChar
StartChar: OE
Encoding: 338 338 197
Width: 969
VWidth: 1473
Flags: W
HStem: -9 68<240.154 402.281 384.688 419.874 419.874 444.5 451.5 518.213> 0 62<592 935> 351 61<592 896> 656 60<239.589 408.588 393.635 423.541 592 940>
VStem: 59 74<224.815 483.974> 519 73<81 351 412 639>
Fore
519 639 m 1,0,1
 491 645 491 645 443 650.5 c 128,-1,2
 395 656 395 656 348 656 c 0,3,4
 284 656 284 656 243 639 c 128,-1,5
 202 622 202 622 177.5 584.5 c 128,-1,6
 153 547 153 547 143 489.5 c 128,-1,7
 133 432 133 432 133 349 c 0,8,9
 133 274 133 274 143 219.5 c 128,-1,10
 153 165 153 165 177.5 129.5 c 128,-1,11
 202 94 202 94 243 76.5 c 128,-1,12
 284 59 284 59 348 59 c 0,13,14
 395 59 395 59 444.5 65 c 128,-1,15
 494 71 494 71 519 81 c 1,16,-1
 519 639 l 1,0,1
940 654 m 1,17,-1
 592 654 l 1,18,-1
 592 412 l 1,19,-1
 896 412 l 1,20,-1
 896 351 l 1,21,-1
 592 351 l 1,22,-1
 592 62 l 1,23,-1
 935 62 l 1,24,-1
 935 0 l 1,25,-1
 519 0 l 2,26,27
 499 0 499 0 451.5 -4.5 c 128,-1,28
 404 -9 404 -9 348 -9 c 0,29,30
 192 -9 192 -9 125.5 84 c 128,-1,31
 59 177 59 177 59 349 c 0,32,33
 59 533 59 533 124.5 626.5 c 128,-1,34
 190 720 190 720 348 720 c 0,35,36
 390 720 390 720 439.5 718 c 128,-1,37
 489 716 489 716 519 716 c 2,38,-1
 940 716 l 1,39,-1
 940 654 l 1,17,-1
EndSplineSet
EndChar
StartChar: oe
Encoding: 339 339 198
Width: 932
VWidth: 1473
Flags: W
HStem: -12 55<189.424 355.127 589.293 730.059> 289 54<504 819> 541 53<189.424 355.646 603.816 737.668>
VStem: 41 67<187.991 395.538> 436 68<225.744 289 343 417.874>
Fore
108 292 m 256,0,1
 108 172 108 172 147.5 107.5 c 128,-1,2
 187 43 187 43 275 43 c 0,3,4
 357 43 357 43 396.5 107.5 c 128,-1,5
 436 172 436 172 436 292 c 256,6,7
 436 411 436 411 396.5 476 c 128,-1,8
 357 541 357 541 275 541 c 0,9,10
 187 541 187 541 147.5 476 c 128,-1,11
 108 411 108 411 108 292 c 256,0,1
504 289 m 1,12,13
 504 239 504 239 512 194.5 c 128,-1,14
 520 150 520 150 539 116 c 128,-1,15
 558 82 558 82 590 62.5 c 128,-1,16
 622 43 622 43 667 43 c 0,17,18
 695 43 695 43 717.5 49 c 128,-1,19
 740 55 740 55 759 68 c 128,-1,20
 778 81 778 81 796.5 103 c 128,-1,21
 815 125 815 125 837 159 c 1,22,-1
 893 131 l 1,23,24
 846 55 846 55 795 21.5 c 128,-1,25
 744 -12 744 -12 661 -12 c 0,26,27
 591 -12 591 -12 543.5 20.5 c 128,-1,28
 496 53 496 53 466 116 c 1,29,30
 442 62 442 62 398 25 c 128,-1,31
 354 -12 354 -12 275 -12 c 0,32,33
 209 -12 209 -12 164 13 c 128,-1,34
 119 38 119 38 92 80 c 128,-1,35
 65 122 65 122 53 177.5 c 128,-1,36
 41 233 41 233 41 292 c 256,37,38
 41 351 41 351 53 405.5 c 128,-1,39
 65 460 65 460 92 502 c 128,-1,40
 119 544 119 544 164 569 c 128,-1,41
 209 594 209 594 275 594 c 0,42,43
 352 594 352 594 398.5 558 c 128,-1,44
 445 522 445 522 467 467 c 1,45,46
 476 489 476 489 492 512 c 128,-1,47
 508 535 508 535 531.5 553.5 c 128,-1,48
 555 572 555 572 587 583 c 128,-1,49
 619 594 619 594 660 594 c 0,50,51
 717 594 717 594 760 572 c 128,-1,52
 803 550 803 550 831 509 c 128,-1,53
 859 468 859 468 872 412.5 c 128,-1,54
 885 357 885 357 885 289 c 1,55,-1
 504 289 l 1,12,13
819 343 m 1,56,57
 807 433 807 433 770.5 487 c 128,-1,58
 734 541 734 541 659 541 c 0,59,60
 619 541 619 541 590 525.5 c 128,-1,61
 561 510 561 510 543.5 482.5 c 128,-1,62
 526 455 526 455 516.5 419 c 128,-1,63
 507 383 507 383 504 343 c 1,64,-1
 819 343 l 1,56,57
EndSplineSet
EndChar
StartChar: florin
Encoding: 402 402 204
Width: 564
VWidth: 1473
Flags: W
HStem: -199.5 58.5<56.7968 61.2115 59.0042 142.304> 423 51<110 256 336 466> 738 60<408.432 497.069 483.969 509.719>
VStem: 29 491<-197 793 -212.996 -129.696>
Fore
510 735 m 1,0,1
 501 737 501 737 492 737.5 c 128,-1,2
 483 738 483 738 476 738 c 0,3,4
 430 738 430 738 404.5 712.5 c 128,-1,5
 379 687 379 687 366.5 648.5 c 128,-1,6
 354 610 354 610 348.5 563.5 c 128,-1,7
 343 517 343 517 336 474 c 1,8,-1
 466 474 l 1,9,-1
 466 423 l 1,10,-1
 329 423 l 1,11,-1
 267 -13 l 2,12,13
 261 -52 261 -52 246 -85.5 c 128,-1,14
 231 -119 231 -119 207 -145 c 128,-1,15
 183 -171 183 -171 149 -185.5 c 128,-1,16
 115 -200 115 -200 72 -200 c 0,17,18
 60 -200 60 -200 50.5 -199.5 c 128,-1,19
 41 -199 41 -199 29 -197 c 1,20,-1
 38 -133 l 1,21,22
 47 -136 47 -136 56.5 -138.5 c 128,-1,23
 66 -141 66 -141 75 -141 c 0,24,25
 137 -141 137 -141 163 -93.5 c 128,-1,26
 189 -46 189 -46 203 43 c 2,27,-1
 256 423 l 1,28,-1
 110 423 l 1,29,-1
 110 474 l 1,30,-1
 264 474 l 1,31,32
 268 519 268 519 277 575 c 128,-1,33
 286 631 286 631 306 681 c 128,-1,34
 326 731 326 731 362 764.5 c 128,-1,35
 398 798 398 798 457 798 c 0,36,37
 492 798 492 798 520 793 c 1,38,-1
 510 735 l 1,0,1
EndSplineSet
EndChar
StartChar: circumflex
Encoding: 710 710 205
Width: 248
VWidth: 1473
Flags: W
HStem: 647 154<87 290 87 87>
VStem: -43 333<647 647 647 647>
Fore
290 647 m 1,0,-1
 215 647 l 1,1,-1
 125 760 l 1,2,-1
 32 647 l 1,3,-1
 -43 647 l 1,4,-1
 87 801 l 1,5,-1
 162 801 l 1,6,-1
 290 647 l 1,0,-1
EndSplineSet
EndChar
StartChar: caron
Encoding: 711 711 206
Width: 248
VWidth: 1473
Flags: W
HStem: 659 154<-43 162 -43 -43>
VStem: -43 333<813 813 813 813>
Fore
-43 813 m 1,0,-1
 32 813 l 1,1,-1
 125 700 l 1,2,-1
 215 813 l 1,3,-1
 290 813 l 1,4,-1
 162 659 l 1,5,-1
 87 659 l 1,6,-1
 -43 813 l 1,0,-1
EndSplineSet
EndChar
StartChar: breve
Encoding: 728 728 207
Width: 248
VWidth: 1473
Flags: W
HStem: 666 50<52.0482 196.587>
VStem: 236 50<747.672 807>
Fore
125 716 m 0,0,1
 168 716 168 716 196.5 736.5 c 128,-1,2
 225 757 225 757 236 807 c 1,3,-1
 286 807 l 1,4,5
 281 741 281 741 238.5 703.5 c 128,-1,6
 196 666 196 666 125 666 c 256,7,8
 55 666 55 666 11.5 703.5 c 128,-1,9
 -32 741 -32 741 -37 807 c 1,10,-1
 13 807 l 1,11,12
 24 757 24 757 52 736.5 c 128,-1,13
 80 716 80 716 125 716 c 0,0,1
EndSplineSet
EndChar
StartChar: dotaccent
Encoding: 729 729 208
Width: 248
VWidth: 1473
Flags: W
HStem: 659 106<87 161>
VStem: 87 74<659 765>
Fore
161 765 m 1,0,-1
 161 659 l 1,1,-1
 87 659 l 1,2,-1
 87 765 l 1,3,-1
 161 765 l 1,0,-1
EndSplineSet
EndChar
StartChar: ring
Encoding: 730 730 209
Width: 248
VWidth: 1473
Flags: W
HStem: 642 39<72.3765 176.202> 828 38<71.7899 177.377>
VStem: 13 37<703.494 806.971> 199 38<703.494 806.971>
Fore
125 866 m 0,0,1
 169 866 169 866 203 833.5 c 128,-1,2
 237 801 237 801 237 754 c 256,3,4
 237 707 237 707 203 674.5 c 128,-1,5
 169 642 169 642 125 642 c 0,6,7
 80 642 80 642 46.5 674.5 c 128,-1,8
 13 707 13 707 13 754 c 256,9,10
 13 801 13 801 46.5 833.5 c 128,-1,11
 80 866 80 866 125 866 c 0,0,1
125 828 m 0,12,13
 94 828 94 828 72 807.5 c 128,-1,14
 50 787 50 787 50 754 c 0,15,16
 50 725 50 725 72 703 c 128,-1,17
 94 681 94 681 125 681 c 0,18,19
 155 681 155 681 177 703 c 128,-1,20
 199 725 199 725 199 754 c 0,21,22
 199 787 199 787 177 807.5 c 128,-1,23
 155 828 155 828 125 828 c 0,12,13
EndSplineSet
EndChar
StartChar: ogonek
Encoding: 731 731 210
Width: 248
VWidth: 1473
Flags: W
HStem: -231 54<80.9244 189.541>
VStem: 3 68<-166.438 -78.7845>
Fore
240 12 m 1,0,1
 217 1 217 1 187.5 -11.5 c 128,-1,2
 158 -24 158 -24 132 -40.5 c 128,-1,3
 106 -57 106 -57 88.5 -79.5 c 128,-1,4
 71 -102 71 -102 71 -131 c 0,5,6
 71 -150 71 -150 84 -163.5 c 128,-1,7
 97 -177 97 -177 131 -177 c 0,8,9
 158 -177 158 -177 191.5 -161.5 c 128,-1,10
 225 -146 225 -146 247 -134 c 1,11,-1
 267 -172 l 1,12,13
 234 -193 234 -193 190 -212 c 128,-1,14
 146 -231 146 -231 108 -231 c 0,15,16
 65 -231 65 -231 34 -211.5 c 128,-1,17
 3 -192 3 -192 3 -141 c 0,18,19
 3 -100 3 -100 29 -72 c 128,-1,20
 55 -44 55 -44 91.5 -25.5 c 128,-1,21
 128 -7 128 -7 168.5 4 c 128,-1,22
 209 15 209 15 240 21 c 1,23,-1
 240 12 l 1,0,1
EndSplineSet
EndChar
StartChar: tilde
Encoding: 732 732 211
Width: 248
VWidth: 1473
Flags: W
HStem: 659 110<-52 258 38.2828 84.9042> 664 55<178.735 244.393> 715 54<5.89844 70.4393>
VStem: -52 43<662.298 700.784> 258 41<749.583 773>
Fore
-52 659 m 1,0,1
 -49 698 -49 698 -22.5 733.5 c 128,-1,2
 4 769 4 769 47 769 c 0,3,4
 68 769 68 769 88.5 761 c 128,-1,5
 109 753 109 753 130 742 c 0,6,7
 150 734 150 734 169.5 726.5 c 128,-1,8
 189 719 189 719 208 719 c 0,9,10
 231 719 231 719 243 736 c 128,-1,11
 255 753 255 753 258 773 c 1,12,-1
 299 773 l 1,13,14
 293 731 293 731 271.5 697.5 c 128,-1,15
 250 664 250 664 200 664 c 0,16,17
 183 664 183 664 172.5 668.5 c 0,18,-1
 121 691 l 256,19,20
 100 700 100 700 79.5 707.5 c 128,-1,21
 59 715 59 715 43 715 c 0,22,23
 19 715 19 715 6.5 697 c 128,-1,24
 -6 679 -6 679 -9 659 c 1,25,-1
 -52 659 l 1,0,1
EndSplineSet
EndChar
StartChar: hungarumlaut
Encoding: 733 733 212
Width: 248
VWidth: 1473
Flags: W
HStem: 647 154<46 183 183 183>
Fore
183 801 m 1,0,-1
 46 647 l 1,1,-1
 -9 647 l 1,2,-1
 96 801 l 1,3,-1
 183 801 l 1,0,-1
337 801 m 1,4,-1
 183 647 l 1,5,-1
 127 647 l 1,6,-1
 250 801 l 1,7,-1
 337 801 l 1,4,-1
EndSplineSet
EndChar
StartChar: uni0E01
Encoding: 3585 3585 214
Width: 618
VWidth: 1473
Flags: W
HStem: 0 21G<97 156 479 538> 547 51<240.714 364.216>
VStem: 97 59<0 313.188> 479 59<0 424.164>
Fore
311 598 m 0,0,1
 361 598 361 598 403 587.5 c 128,-1,2
 445 577 445 577 474.5 550.5 c 128,-1,3
 504 524 504 524 521 479.5 c 128,-1,4
 538 435 538 435 538 367 c 2,5,-1
 538 0 l 1,6,-1
 479 0 l 1,7,-1
 479 367 l 2,8,9
 479 424 479 424 468 459 c 128,-1,10
 457 494 457 494 435.5 513.5 c 128,-1,11
 414 533 414 533 383 540 c 128,-1,12
 352 547 352 547 311 547 c 0,13,14
 274 547 274 547 240 538 c 128,-1,15
 206 529 206 529 180.5 516.5 c 128,-1,16
 155 504 155 504 139.5 492 c 128,-1,17
 124 480 124 480 124 473 c 0,18,19
 124 468 124 468 130.5 459.5 c 128,-1,20
 137 451 137 451 146 442 c 128,-1,21
 155 433 155 433 163.5 426.5 c 128,-1,22
 172 420 172 420 177 420 c 0,23,24
 189 420 189 420 202 429.5 c 128,-1,25
 215 439 215 439 228 439 c 0,26,27
 233 439 233 439 239 431.5 c 128,-1,28
 245 424 245 424 249 415.5 c 128,-1,29
 253 407 253 407 254 399.5 c 128,-1,30
 255 392 255 392 249 392 c 0,31,32
 227 392 227 392 210 387.5 c 128,-1,33
 193 383 193 383 181 369 c 128,-1,34
 169 355 169 355 162.5 329 c 128,-1,35
 156 303 156 303 156 262 c 2,36,-1
 156 0 l 1,37,-1
 97 0 l 1,38,-1
 97 262 l 2,39,40
 97 318 97 318 108 344 c 128,-1,41
 119 370 119 370 144 395 c 1,42,43
 138 398 138 398 125.5 406.5 c 128,-1,44
 113 415 113 415 100 426.5 c 128,-1,45
 87 438 87 438 76.5 449.5 c 128,-1,46
 66 461 66 461 66 470 c 0,47,48
 66 483 66 483 84.5 505 c 128,-1,49
 103 527 103 527 135.5 548 c 128,-1,50
 168 569 168 569 213 583.5 c 128,-1,51
 258 598 258 598 311 598 c 0,0,1
EndSplineSet
EndChar
StartChar: uni0E02
Encoding: 3586 3586 215
Width: 587
VWidth: 1473
Flags: W
HStem: -9 52<227.178 419.839> 382 53<133.646 192.885> 544 48<161.41 272.976>
VStem: 74 53<448.961 516.895> 136 58<72.8242 214 214 268.463> 209 52<446.347 480> 296 53<386.956 521.39> 446 61<69.3188 177.239 177.239 250.577 250.577 589>
Fore
205 544 m 0,0,1
 194 544 194 544 181 542.5 c 128,-1,2
 168 541 168 541 155.5 534 c 128,-1,3
 143 527 143 527 135 514.5 c 128,-1,4
 127 502 127 502 127 482 c 0,5,6
 127 463 127 463 135.5 449 c 128,-1,7
 144 435 144 435 165 435 c 0,8,9
 181 435 181 435 195 446 c 128,-1,10
 209 457 209 457 209 480 c 2,11,-1
 209 523 l 1,12,-1
 234 523 l 1,13,-1
 261 480 l 1,14,15
 261 436 261 436 235 409 c 128,-1,16
 209 382 209 382 165 382 c 256,17,18
 121 382 121 382 97.5 410.5 c 128,-1,19
 74 439 74 439 74 482 c 0,20,21
 74 529 74 529 113.5 560.5 c 128,-1,22
 153 592 153 592 211 592 c 0,23,24
 270 592 270 592 309.5 558 c 128,-1,25
 349 524 349 524 349 463 c 0,26,27
 349 399 349 399 325 366 c 128,-1,28
 301 333 301 333 272 311.5 c 128,-1,29
 243 290 243 290 218.5 271 c 128,-1,30
 194 252 194 252 194 214 c 2,31,-1
 194 137 l 2,32,33
 194 81 194 81 229 62 c 128,-1,34
 264 43 264 43 320 43 c 0,35,36
 387 43 387 43 418 61.5 c 128,-1,37
 449 80 449 80 449 144 c 0,38,39
 449 169 449 169 447.5 211 c 128,-1,40
 446 253 446 253 446 290 c 2,41,-1
 446 589 l 1,42,-1
 507 589 l 1,43,-1
 507 166 l 2,44,45
 507 69 507 69 459 30 c 128,-1,46
 411 -9 411 -9 318 -9 c 0,47,48
 239 -9 239 -9 187.5 25 c 128,-1,49
 136 59 136 59 136 141 c 2,50,-1
 136 214 l 2,51,52
 136 261 136 261 161 286.5 c 128,-1,53
 186 312 186 312 216 334.5 c 128,-1,54
 246 357 246 357 271 383.5 c 128,-1,55
 296 410 296 410 296 458 c 0,56,57
 296 544 296 544 205 544 c 0,0,1
EndSplineSet
EndChar
StartChar: uni0E03
Encoding: 3587 3587 216
Width: 608
VWidth: 1473
Flags: W
HStem: -2.5 48.5<239.048 256 279.5 302.176 302.176 305.181 303.678 433.894> 390 52<110.124 171.501> 542 52<110.957 162.182> 580 20<274.054 305 467 527>
VStem: 52 50<458.52 525.926> 143 59<100.628 214 214 259.95> 315 47<405.527 514.843> 467 60<77.8496 183.3 183.3 252.515 252.515 589>
Fore
228 468 m 1,0,1
 211 486 211 486 199 500 c 128,-1,2
 187 514 187 514 179 523.5 c 128,-1,3
 171 533 171 533 163 537.5 c 128,-1,4
 155 542 155 542 143 542 c 0,5,6
 124 542 124 542 113 528 c 128,-1,7
 102 514 102 514 102 494 c 0,8,9
 102 471 102 471 112 456.5 c 128,-1,10
 122 442 122 442 144 442 c 0,11,12
 153 442 153 442 165 448.5 c 128,-1,13
 177 455 177 455 193 473 c 1,14,-1
 208 455 l 1,15,-1
 199 421 l 1,16,17
 172 390 172 390 143 390 c 0,18,19
 100 390 100 390 76 419.5 c 128,-1,20
 52 449 52 449 52 492 c 0,21,22
 53 544 53 544 81 569 c 128,-1,23
 109 594 109 594 143 594 c 0,24,25
 162 594 162 594 178 583.5 c 128,-1,26
 194 573 194 573 206 560 c 0,27,28
 221 544 221 544 231 526 c 1,29,-1
 290 600 l 1,30,31
 320 586 320 586 341 548 c 128,-1,32
 362 510 362 510 362 468 c 128,-1,33
 362 426 362 426 350.5 398.5 c 128,-1,34
 339 371 339 371 321 352.5 c 128,-1,35
 303 334 303 334 282 321 c 128,-1,36
 261 308 261 308 243 293 c 128,-1,37
 225 278 225 278 213.5 260.5 c 128,-1,38
 202 243 202 243 202 214 c 2,39,-1
 202 130 l 2,40,41
 202 102 202 102 211.5 85 c 128,-1,42
 221 68 221 68 238.5 58.5 c 128,-1,43
 256 49 256 49 279.5 46 c 128,-1,44
 303 43 303 43 331 43 c 0,45,46
 399 43 399 43 434.5 65 c 128,-1,47
 470 87 470 87 470 152 c 0,48,49
 470 177 470 177 468.5 215 c 128,-1,50
 467 253 467 253 467 290 c 2,51,-1
 467 589 l 1,52,-1
 527 589 l 1,53,-1
 527 174 l 2,54,55
 527 77 527 77 475 34 c 128,-1,56
 423 -9 423 -9 330 -9 c 0,57,58
 290 -9 290 -9 256 -2.5 c 128,-1,59
 222 4 222 4 196.5 21 c 128,-1,60
 171 38 171 38 157 65.5 c 128,-1,61
 143 93 143 93 143 134 c 2,62,-1
 143 214 l 2,63,64
 143 249 143 249 155.5 272.5 c 128,-1,65
 168 296 168 296 187 313 c 128,-1,66
 206 330 206 330 229 343.5 c 128,-1,67
 252 357 252 357 271 373 c 128,-1,68
 290 389 290 389 302.5 411 c 128,-1,69
 315 433 315 433 315 466 c 0,70,71
 315 494 315 494 305.5 513 c 128,-1,72
 296 532 296 532 289 539 c 1,73,-1
 228 468 l 1,0,1
EndSplineSet
EndChar
StartChar: uni0E04
Encoding: 3588 3588 217
Width: 626
VWidth: 1473
Flags: W
HStem: 0 21G<107.5 168.5 486 545> 202 51<292.975 369.016> 355 52<277.29 362.673> 547 51<216.37 413.986>
VStem: 74 59<284.487 463.218> 100 68<3.09668 58.4432> 382 51<265.984 336.567> 486 59<0 414.779>
Fore
486 333 m 2,0,1
 486 390 486 390 481 431.5 c 128,-1,2
 476 473 476 473 458 498 c 128,-1,3
 440 523 440 523 405 535 c 128,-1,4
 370 547 370 547 309 547 c 0,5,6
 231 547 231 547 182 500.5 c 128,-1,7
 133 454 133 454 133 357 c 0,8,9
 133 326 133 326 140 286.5 c 128,-1,10
 147 247 147 247 156 225 c 1,11,12
 169 258 169 258 184.5 290.5 c 128,-1,13
 200 323 200 323 221.5 348.5 c 128,-1,14
 243 374 243 374 270.5 390.5 c 128,-1,15
 298 407 298 407 334 407 c 0,16,17
 352 407 352 407 369 400 c 128,-1,18
 386 393 386 393 400 380.5 c 128,-1,19
 414 368 414 368 423.5 349 c 128,-1,20
 433 330 433 330 433 305 c 0,21,22
 433 262 433 262 403 232 c 128,-1,23
 373 202 373 202 330 202 c 0,24,25
 289 202 289 202 259 231 c 1,26,-1
 253 277 l 1,27,-1
 268 295 l 1,28,-1
 296 268 l 2,29,30
 309 253 309 253 329 253 c 0,31,32
 351 253 351 253 366.5 268.5 c 128,-1,33
 382 284 382 284 382 306 c 0,34,35
 382 327 382 327 367 341 c 128,-1,36
 352 355 352 355 327 355 c 0,37,38
 299 355 299 355 272 328.5 c 128,-1,39
 245 302 245 302 222 255 c 128,-1,40
 199 208 199 208 184 143 c 128,-1,41
 169 78 169 78 168 0 c 1,42,-1
 110 0 l 2,43,44
 105 0 105 0 102.5 3 c 128,-1,45
 100 6 100 6 100 21 c 0,46,47
 100 47 100 47 109 88.5 c 128,-1,48
 118 130 118 130 128 156 c 0,49,50
 137 180 137 180 128 190 c 0,51,52
 106 218 106 218 90 258.5 c 128,-1,53
 74 299 74 299 74 357 c 0,54,55
 74 471 74 471 139.5 534.5 c 128,-1,56
 205 598 205 598 309 598 c 0,57,58
 380 598 380 598 425.5 583.5 c 128,-1,59
 471 569 471 569 497.5 538 c 128,-1,60
 524 507 524 507 534.5 459.5 c 128,-1,61
 545 412 545 412 545 348 c 2,62,-1
 545 0 l 1,63,-1
 486 0 l 1,64,-1
 486 333 l 2,0,1
EndSplineSet
EndChar
StartChar: uni0E05
Encoding: 3589 3589 218
Width: 640
VWidth: 1473
Flags: W
HStem: 0 21G<107.5 168.5 501 560> 202 51<292.975 369.016> 355 52<277.29 362.673> 578 20G<181 254.226 389.077 441>
VStem: 74 59<284.487 479.7> 100 68<3.09668 58.4432> 382 51<265.984 336.567> 501 59<0 400.123 400.123 430.237>
Fore
133 357 m 0,0,1
 133 326 133 326 140 286.5 c 128,-1,2
 147 247 147 247 156 225 c 1,3,4
 169 258 169 258 184.5 290.5 c 128,-1,5
 200 323 200 323 221.5 348.5 c 128,-1,6
 243 374 243 374 270.5 390.5 c 128,-1,7
 298 407 298 407 334 407 c 0,8,9
 352 407 352 407 369 400 c 128,-1,10
 386 393 386 393 400 380.5 c 128,-1,11
 414 368 414 368 423.5 349 c 128,-1,12
 433 330 433 330 433 305 c 0,13,14
 433 262 433 262 403 232 c 128,-1,15
 373 202 373 202 330 202 c 0,16,17
 289 202 289 202 259 231 c 1,18,-1
 253 277 l 1,19,-1
 268 295 l 1,20,-1
 296 268 l 2,21,22
 309 253 309 253 329 253 c 0,23,24
 351 253 351 253 366.5 268.5 c 128,-1,25
 382 284 382 284 382 306 c 0,26,27
 382 327 382 327 367 341 c 128,-1,28
 352 355 352 355 327 355 c 0,29,30
 299 355 299 355 272 328.5 c 128,-1,31
 245 302 245 302 222 255 c 128,-1,32
 199 208 199 208 184 143 c 128,-1,33
 169 78 169 78 168 0 c 1,34,-1
 110 0 l 2,35,36
 105 0 105 0 102.5 3 c 128,-1,37
 100 6 100 6 100 21 c 0,38,39
 100 47 100 47 109 88.5 c 128,-1,40
 118 130 118 130 128 156 c 0,41,42
 137 180 137 180 128 190 c 0,43,44
 106 218 106 218 90 258.5 c 128,-1,45
 74 299 74 299 74 357 c 0,46,47
 74 451 74 451 107.5 510 c 128,-1,48
 141 569 141 569 221 598 c 1,49,-1
 324 536 l 1,50,-1
 418 601 l 1,51,52
 464 594 464 594 492 573 c 128,-1,53
 520 552 520 552 535 520.5 c 128,-1,54
 550 489 550 489 555 445.5 c 128,-1,55
 560 402 560 402 560 348 c 2,56,-1
 560 0 l 1,57,-1
 501 0 l 1,58,-1
 501 365 l 2,59,60
 501 404 501 404 499.5 435 c 128,-1,61
 498 466 498 466 489 488 c 128,-1,62
 480 510 480 510 463 524.5 c 128,-1,63
 446 539 446 539 415 547 c 1,64,-1
 324 485 l 1,65,-1
 227 545 l 1,66,67
 177 529 177 529 155 480.5 c 128,-1,68
 133 432 133 432 133 357 c 0,0,1
EndSplineSet
EndChar
StartChar: uni0E06
Encoding: 3590 3590 219
Width: 692
VWidth: 1473
Flags: W
HStem: -9 53<170.782 221.374> 390 52<110.124 181.914> 542 52<110.957 174.796> 569 20<289.054 319.5 544 603>
VStem: 52 50<458.52 525.926> 106 53<57.6159 183.475> 230.5 50.5<71.8917 118.485 118.485 136 136 154.181 154.181 194.696 194.696 217> 324 53<408.98 515.83> 544.5 58.5<106.047 178.727 178.727 181.877 181.877 236.273 236.273 589>
Fore
377 468 m 0,0,1
 377 433 377 433 363 408 c 128,-1,2
 349 383 349 383 331.5 361 c 128,-1,3
 314 339 314 339 297.5 316 c 128,-1,4
 281 293 281 293 278 262 c 1,5,6
 315 261 315 261 356.5 248.5 c 128,-1,7
 398 236 398 236 435.5 215 c 128,-1,8
 473 194 473 194 503 166 c 128,-1,9
 533 138 533 138 548 105 c 1,10,11
 547 122 547 122 546 150 c 128,-1,12
 545 178 545 178 544.5 207.5 c 128,-1,13
 544 237 544 237 544 265 c 128,-1,14
 544 293 544 293 544 311 c 2,15,-1
 544 589 l 1,16,-1
 603 589 l 1,17,-1
 603 327 l 2,18,19
 603 278 603 278 603 228 c 128,-1,20
 603 178 603 178 604 136 c 128,-1,21
 605 94 605 94 606.5 63 c 128,-1,22
 608 32 608 32 610 21 c 0,23,24
 613 6 613 6 609 3 c 128,-1,25
 605 0 605 0 600 0 c 2,26,-1
 542 0 l 1,27,28
 530 49 530 49 504.5 88 c 128,-1,29
 479 127 479 127 443.5 155.5 c 128,-1,30
 408 184 408 184 366 200.5 c 128,-1,31
 324 217 324 217 278 220 c 1,32,-1
 281 140 l 2,33,34
 281 110 281 110 281 83.5 c 128,-1,35
 281 57 281 57 274.5 36.5 c 128,-1,36
 268 16 268 16 251 3.5 c 128,-1,37
 234 -9 234 -9 200 -9 c 0,38,39
 156 -9 156 -9 131 20.5 c 128,-1,40
 106 50 106 50 106 110 c 0,41,42
 106 177 106 177 143.5 214.5 c 128,-1,43
 181 252 181 252 228 261 c 1,44,45
 228 302 228 302 243.5 325.5 c 128,-1,46
 259 349 259 349 277 368 c 128,-1,47
 295 387 295 387 309.5 408.5 c 128,-1,48
 324 430 324 430 324 466 c 0,49,50
 324 491 324 491 315 510.5 c 128,-1,51
 306 530 306 530 302 538 c 1,52,-1
 243 468 l 1,53,54
 206 505 206 505 186 523.5 c 128,-1,55
 166 542 166 542 143 542 c 0,56,57
 124 542 124 542 113 528 c 128,-1,58
 102 514 102 514 102 494 c 0,59,60
 102 471 102 471 112 456.5 c 128,-1,61
 122 442 122 442 144 442 c 0,62,63
 165 442 165 442 178 455 c 2,64,-1
 205 483 l 1,65,-1
 220 466 l 1,66,-1
 212 423 l 1,67,68
 180 390 180 390 143 390 c 0,69,70
 100 390 100 390 76 419.5 c 128,-1,71
 52 449 52 449 52 492 c 0,72,73
 53 544 53 544 81 569 c 128,-1,74
 109 594 109 594 143 594 c 0,75,76
 162 594 162 594 180.5 583.5 c 128,-1,77
 199 573 199 573 214 560 c 0,78,79
 230 544 230 544 246 526 c 1,80,-1
 305 600 l 1,81,82
 334 586 334 586 355.5 548 c 128,-1,83
 377 510 377 510 377 468 c 0,0,1
230 136 m 0,84,85
 230 152 230 152 229 172.5 c 128,-1,86
 228 193 228 193 228 217 c 1,87,88
 203 209 203 209 181 184 c 128,-1,89
 159 159 159 159 159 113 c 0,90,91
 159 81 159 81 171.5 62.5 c 128,-1,92
 184 44 184 44 200 44 c 0,93,94
 214 44 214 44 220.5 51.5 c 128,-1,95
 227 59 227 59 229 71.5 c 128,-1,96
 231 84 231 84 230.5 101 c 128,-1,97
 230 118 230 118 230 136 c 0,84,85
EndSplineSet
EndChar
StartChar: uni0E07
Encoding: 3591 3591 220
Width: 550
VWidth: 1473
Flags: W
HStem: 2.5 44<240.067 256.691 274.172 286.485 280.328 344.687 332.031 357.344 358.655 376.995> 399 52<314.377 348> 542 53<312.71 393.333>
VStem: 249 53<468.133 531.365> 377 55<46.61 56 56 65.4152 65.4152 85.5 85.5 89.95> 407.5 59.5<325.359 340.5 362.5 375.942 375.942 391.942 383.942 492.394>
Fore
96 408 m 1,0,1
 137 367 137 367 175.5 278.5 c 128,-1,2
 214 190 214 190 240 55 c 0,3,4
 242 50 242 50 264 46.5 c 128,-1,5
 286 43 286 43 309 43 c 256,6,7
 333 43 333 43 355 46.5 c 128,-1,8
 377 50 377 50 377 56 c 0,9,10
 382 103 382 103 387 153 c 128,-1,11
 392 203 392 203 398 251 c 128,-1,12
 404 299 404 299 407.5 340.5 c 128,-1,13
 411 382 411 382 411 411 c 0,14,15
 411 479 411 479 398.5 510.5 c 128,-1,16
 386 542 386 542 351 542 c 0,17,18
 330 542 330 542 316 529 c 128,-1,19
 302 516 302 516 302 496 c 0,20,21
 302 479 302 479 314 465 c 128,-1,22
 326 451 326 451 348 451 c 2,23,-1
 392 451 l 1,24,-1
 392 426 l 1,25,-1
 348 399 l 1,26,27
 303 399 303 399 276 425.5 c 128,-1,28
 249 452 249 452 249 496 c 0,29,30
 249 539 249 539 277.5 567 c 128,-1,31
 306 595 306 595 351 595 c 0,32,33
 385 595 385 595 407.5 582 c 128,-1,34
 430 569 430 569 444 546 c 128,-1,35
 458 523 458 523 464 491.5 c 128,-1,36
 470 460 470 460 470 421 c 0,37,38
 470 398 470 398 467 362.5 c 128,-1,39
 464 327 464 327 459.5 289.5 c 128,-1,40
 455 252 455 252 450.5 216.5 c 128,-1,41
 446 181 446 181 443 158 c 0,42,43
 439 124 439 124 435.5 85.5 c 128,-1,44
 432 47 432 47 432 19 c 0,45,46
 432 13 432 13 421.5 8.5 c 128,-1,47
 411 4 411 4 395 1.5 c 128,-1,48
 379 -1 379 -1 358 -2.5 c 128,-1,49
 337 -4 337 -4 317 -4 c 0,50,51
 295 -4 295 -4 273.5 -2.5 c 128,-1,52
 252 -1 252 -1 234.5 2.5 c 128,-1,53
 217 6 217 6 205.5 10.5 c 128,-1,54
 194 15 194 15 193 21 c 0,55,56
 181 91 181 91 169.5 138.5 c 128,-1,57
 158 186 158 186 141.5 222.5 c 128,-1,58
 125 259 125 259 103 291 c 128,-1,59
 81 323 81 323 47 361 c 0,60,61
 44 365 44 365 47 371 c 128,-1,62
 50 377 50 377 58 383.5 c 128,-1,63
 66 390 66 390 75.5 397 c 128,-1,64
 85 404 85 404 96 408 c 1,0,1
EndSplineSet
EndChar
StartChar: uni0E08
Encoding: 3592 3592 221
Width: 601
VWidth: 1473
Flags: W
HStem: -3 44<342.004 368.8 368.8 372.696 370.748 411.69 406.546 416.833 416.833 439.996> 200 52<188.862 222> 343 53<187.592 264.592> 545 52<237.257 349.377>
VStem: 59 461<408 479 529.677 581.886> 124 53<268.889 332.553> 290 52<22.0471 107.029 93.3263 120.731 120.731 226.688> 440 54<41.0945 50 50 60.6025 60.6025 100.454 100.454 142.062 142.062 203.827> 458 59<314.71 341.5 341.5 374.973 374.973 379.911 377.442 484.355>
Fore
290 15 m 0,0,1
 293 85 293 85 293 145.5 c 128,-1,2
 293 206 293 206 287 249.5 c 128,-1,3
 281 293 281 293 266.5 318 c 128,-1,4
 252 343 252 343 225 343 c 0,5,6
 205 343 205 343 191 330 c 128,-1,7
 177 317 177 317 177 298 c 0,8,9
 177 281 177 281 188.5 266.5 c 128,-1,10
 200 252 200 252 222 252 c 2,11,-1
 267 252 l 1,12,-1
 267 227 l 1,13,-1
 222 200 l 1,14,15
 178 200 178 200 151 226.5 c 128,-1,16
 124 253 124 253 124 298 c 256,17,18
 124 342 124 342 152.5 369 c 128,-1,19
 181 396 181 396 225 396 c 0,20,21
 267 396 267 396 291 372 c 128,-1,22
 315 348 315 348 327.5 302 c 128,-1,23
 340 256 340 256 342.5 192 c 128,-1,24
 345 128 345 128 342 49 c 0,25,26
 342 44 342 44 356.5 41 c 128,-1,27
 371 38 371 38 389 38 c 0,28,29
 408 38 408 38 424 41 c 128,-1,30
 440 44 440 44 440 50 c 0,31,32
 440 99 440 99 443 151 c 128,-1,33
 446 203 446 203 450.5 252 c 128,-1,34
 455 301 455 301 458 341.5 c 128,-1,35
 461 382 461 382 461 408 c 0,36,37
 461 457 461 457 441 484 c 128,-1,38
 421 511 421 511 396 524.5 c 128,-1,39
 371 538 371 538 347.5 541.5 c 128,-1,40
 324 545 324 545 315 545 c 0,41,42
 247 545 247 545 200 518.5 c 128,-1,43
 153 492 153 492 116 448 c 0,44,45
 109 439 109 439 92 449.5 c 128,-1,46
 75 460 75 460 59 479 c 1,47,48
 74 498 74 498 100.5 518.5 c 128,-1,49
 127 539 127 539 160.5 557 c 128,-1,50
 194 575 194 575 232.5 586 c 128,-1,51
 271 597 271 597 306 597 c 0,52,53
 348 597 348 597 386 586.5 c 128,-1,54
 424 576 424 576 454.5 554 c 128,-1,55
 485 532 485 532 502.5 496 c 128,-1,56
 520 460 520 460 520 408 c 0,57,58
 520 385 520 385 517 351.5 c 128,-1,59
 514 318 514 318 510.5 284 c 128,-1,60
 507 250 507 250 503 218 c 128,-1,61
 499 186 499 186 498 162 c 0,62,63
 496 144 496 144 495.5 122 c 128,-1,64
 495 100 495 100 494.5 78.5 c 128,-1,65
 494 57 494 57 494 39.5 c 128,-1,66
 494 22 494 22 494 13 c 0,67,68
 494 1 494 1 463.5 -4 c 128,-1,69
 433 -9 433 -9 395 -9 c 256,70,71
 357 -9 357 -9 323.5 -3 c 128,-1,72
 290 3 290 3 290 15 c 0,0,1
EndSplineSet
EndChar
StartChar: uni0E09
Encoding: 3593 3593 222
Width: 642
VWidth: 1473
Flags: W
HStem: -4 53<462.127 542.331> 168 52<141.862 177> 183 47<397.848 447.707> 320 50<140.31 216.444> 545 52<275.923 388.258>
VStem: 78 52<230.521 309.585> 230 54<170.044 218.158 218.158 298.341> 402 52<57.4449 135.932> 508 59<248.062 258.273 258.273 483.151> 552 53<57.5612 149.688>
Fore
508 408 m 2,0,1
 508 457 508 457 487 484 c 128,-1,2
 466 511 466 511 439 524.5 c 128,-1,3
 412 538 412 538 386.5 541.5 c 128,-1,4
 361 545 361 545 352 545 c 0,5,6
 286 545 286 545 239 518.5 c 128,-1,7
 192 492 192 492 155 448 c 0,8,9
 147 439 147 439 130 449.5 c 128,-1,10
 113 460 113 460 97 479 c 1,11,12
 112 498 112 498 138.5 518.5 c 128,-1,13
 165 539 165 539 199 557 c 128,-1,14
 233 575 233 575 271 586 c 128,-1,15
 309 597 309 597 345 597 c 0,16,17
 386 597 386 597 426 586.5 c 128,-1,18
 466 576 466 576 497.5 554 c 128,-1,19
 529 532 529 532 548 496 c 128,-1,20
 567 460 567 460 567 408 c 2,21,-1
 567 273 l 2,22,23
 567 259 567 259 561 238 c 128,-1,24
 555 217 555 217 544 205 c 1,25,26
 573 189 573 189 589 163.5 c 128,-1,27
 605 138 605 138 605 100 c 0,28,29
 605 40 605 40 575 18 c 128,-1,30
 545 -4 545 -4 501 -4 c 256,31,32
 457 -4 457 -4 429.5 19.5 c 128,-1,33
 402 43 402 43 402 96 c 0,34,35
 402 130 402 130 416 148 c 128,-1,36
 430 166 430 166 448 181 c 1,37,38
 442 183 442 183 433 183 c 0,39,40
 408 183 408 183 380 166.5 c 128,-1,41
 352 150 352 150 329 123.5 c 128,-1,42
 306 97 306 97 290.5 64.5 c 128,-1,43
 275 32 275 32 275 0 c 1,44,-1
 221 0 l 2,45,46
 215 0 215 0 211.5 3 c 128,-1,47
 208 6 208 6 211 21 c 0,48,49
 215 44 215 44 222.5 83 c 128,-1,50
 230 122 230 122 230 194 c 2,51,-1
 230 245 l 2,52,53
 230 278 230 278 216.5 299 c 128,-1,54
 203 320 203 320 181 320 c 0,55,56
 156 320 156 320 143 306.5 c 128,-1,57
 130 293 130 293 130 271 c 256,58,59
 130 249 130 249 141.5 234.5 c 128,-1,60
 153 220 153 220 177 220 c 2,61,-1
 217 220 l 1,62,-1
 217 196 l 1,63,-1
 177 168 l 1,64,65
 133 168 133 168 105.5 197.5 c 128,-1,66
 78 227 78 227 78 271 c 256,67,68
 78 315 78 315 107.5 342.5 c 128,-1,69
 137 370 137 370 181 370 c 0,70,71
 234 370 234 370 259 334.5 c 128,-1,72
 284 299 284 299 284 256 c 0,73,74
 284 252 284 252 284 241.5 c 128,-1,75
 284 231 284 231 283 194 c 0,76,77
 283 187 283 187 280.5 169.5 c 128,-1,78
 278 152 278 152 275 133 c 0,79,80
 273 110 273 110 268 85 c 1,81,82
 280 122 280 122 300 149.5 c 128,-1,83
 320 177 320 177 344 194.5 c 128,-1,84
 368 212 368 212 394.5 221 c 128,-1,85
 421 230 421 230 445 230 c 0,86,87
 466 230 466 230 481 227 c 128,-1,88
 496 224 496 224 504 221 c 1,89,90
 507 228 507 228 507.5 243.5 c 128,-1,91
 508 259 508 259 508 273 c 2,92,-1
 508 408 l 2,0,1
552 103 m 0,93,94
 552 149 552 149 495 169 c 1,95,96
 470 153 470 153 462 136 c 128,-1,97
 454 119 454 119 454 103 c 0,98,99
 454 72 454 72 465 60.5 c 128,-1,100
 476 49 476 49 501 49 c 256,101,102
 526 49 526 49 539 60 c 128,-1,103
 552 71 552 71 552 103 c 0,93,94
EndSplineSet
EndChar
StartChar: uni0E0A
Encoding: 3594 3594 223
Width: 587
VWidth: 1473
Flags: W
HStem: -9 52<254.788 431.004> 379 53<111.193 170.322> 544 48<134.189 261.228>
VStem: 49 53<449.735 519.612> 136 58<74.1993 245.711> 184 52<443.347 477> 281 53<405.441 522.916> 463.5 58.5<71.2598 193.635 193.635 241.604 241.604 385.778>
Fore
501 625 m 1,0,1
 511 622 511 622 520 616 c 0,2,3
 527 611 527 611 535.5 606 c 128,-1,4
 544 601 544 601 551 594 c 0,5,6
 555 589 555 589 555 585 c 0,7,8
 555 582 555 582 553.5 579.5 c 128,-1,9
 552 577 552 577 551 575 c 0,10,11
 530 542 530 542 506 513.5 c 128,-1,12
 482 485 482 485 454 466 c 1,13,14
 463 460 463 460 474 451.5 c 128,-1,15
 485 443 485 443 496 430.5 c 128,-1,16
 507 418 507 418 514.5 399 c 128,-1,17
 522 380 522 380 522 354 c 2,18,-1
 522 166 l 2,19,20
 522 69 522 69 470 30 c 128,-1,21
 418 -9 418 -9 326 -9 c 0,22,23
 286 -9 286 -9 251.5 -1 c 128,-1,24
 217 7 217 7 191 25 c 128,-1,25
 165 43 165 43 150.5 71.5 c 128,-1,26
 136 100 136 100 136 141 c 2,27,-1
 136 214 l 2,28,29
 136 245 136 245 147 266 c 128,-1,30
 158 287 158 287 174 304 c 128,-1,31
 190 321 190 321 208.5 334.5 c 128,-1,32
 227 348 227 348 243 365 c 128,-1,33
 259 382 259 382 270 404 c 128,-1,34
 281 426 281 426 281 458 c 0,35,36
 281 501 281 501 261.5 522.5 c 128,-1,37
 242 544 242 544 186 544 c 0,38,39
 169 544 169 544 153.5 542.5 c 128,-1,40
 138 541 138 541 126.5 534 c 128,-1,41
 115 527 115 527 108.5 514.5 c 128,-1,42
 102 502 102 502 102 482 c 0,43,44
 102 463 102 463 113 447.5 c 128,-1,45
 124 432 124 432 144 432 c 0,46,47
 161 432 161 432 172.5 443 c 128,-1,48
 184 454 184 454 184 477 c 2,49,-1
 184 520 l 1,50,-1
 209 520 l 1,51,-1
 236 477 l 1,52,53
 236 433 236 433 212.5 406 c 128,-1,54
 189 379 189 379 144 379 c 256,55,56
 100 379 100 379 74.5 409 c 128,-1,57
 49 439 49 439 49 482 c 0,58,59
 49 529 49 529 86.5 560.5 c 128,-1,60
 124 592 124 592 192 592 c 0,61,62
 262 592 262 592 298 555.5 c 128,-1,63
 334 519 334 519 334 463 c 0,64,65
 334 399 334 399 312 366 c 128,-1,66
 290 333 290 333 264.5 311.5 c 128,-1,67
 239 290 239 290 216.5 271 c 128,-1,68
 194 252 194 252 194 214 c 2,69,-1
 194 137 l 2,70,71
 194 81 194 81 232.5 62 c 128,-1,72
 271 43 271 43 327 43 c 0,73,74
 395 43 395 43 429.5 61.5 c 128,-1,75
 464 80 464 80 464 144 c 0,76,77
 464 158 464 158 464 174 c 128,-1,78
 464 190 464 190 463.5 213.5 c 128,-1,79
 463 237 463 237 463 270 c 128,-1,80
 463 303 463 303 463 351 c 256,81,82
 463 398 463 398 443.5 420.5 c 128,-1,83
 424 443 424 443 411 443 c 0,84,85
 402 443 402 443 398.5 439.5 c 128,-1,86
 395 436 395 436 385 436 c 0,87,88
 380 436 380 436 374 442 c 128,-1,89
 368 448 368 448 363.5 454.5 c 128,-1,90
 359 461 359 461 358 467 c 128,-1,91
 357 473 357 473 361 474 c 0,92,93
 386 480 386 480 401.5 487 c 128,-1,94
 417 494 417 494 432 507 c 0,95,96
 451 523 451 523 463.5 543.5 c 128,-1,97
 476 564 476 564 485 582 c 0,98,99
 495 603 495 603 501 625 c 1,0,1
EndSplineSet
EndChar
StartChar: uni0E0B
Encoding: 3595 3595 224
Width: 608
VWidth: 1473
Flags: W
HStem: -2.5 48.5<243.08 262.5 286 309.264 309.264 312.454 310.859 448.174> 390 52<102.83 163.942> 542 52<102.976 154.881>
VStem: 44 50<458.804 525.926> 143 59<101.98 214 214 259.95> 308 47<418.514 519> 485 57<75.2266 144 144 193.635 193.635 241.604 241.604 385.778>
Fore
200 455 m 1,0,-1
 192 421 l 1,1,2
 165 390 165 390 136 390 c 0,3,4
 93 390 93 390 68.5 419.5 c 128,-1,5
 44 449 44 449 44 492 c 0,6,7
 46 544 46 544 74 569 c 128,-1,8
 102 594 102 594 136 594 c 0,9,10
 155 594 155 594 171 583.5 c 128,-1,11
 187 573 187 573 199 560 c 0,12,13
 214 544 214 544 224 526 c 1,14,-1
 287 600 l 1,15,16
 317 586 317 586 336 548 c 128,-1,17
 355 510 355 510 355 468 c 128,-1,18
 355 426 355 426 344 398.5 c 128,-1,19
 333 371 333 371 315.5 352.5 c 128,-1,20
 298 334 298 334 278.5 321 c 128,-1,21
 259 308 259 308 241.5 293 c 128,-1,22
 224 278 224 278 213 260.5 c 128,-1,23
 202 243 202 243 202 214 c 2,24,-1
 202 130 l 2,25,26
 202 102 202 102 213 85 c 128,-1,27
 224 68 224 68 242.5 58.5 c 128,-1,28
 261 49 261 49 286 46 c 128,-1,29
 311 43 311 43 339 43 c 0,30,31
 407 43 407 43 446 61.5 c 128,-1,32
 485 80 485 80 485 144 c 0,33,34
 485 158 485 158 485 174 c 128,-1,35
 485 190 485 190 484 213.5 c 128,-1,36
 483 237 483 237 483 270 c 128,-1,37
 483 303 483 303 483 351 c 256,38,39
 483 398 483 398 464 420.5 c 128,-1,40
 445 443 445 443 432 443 c 0,41,42
 423 443 423 443 419 439.5 c 128,-1,43
 415 436 415 436 405 436 c 0,44,45
 401 436 401 436 395 442 c 128,-1,46
 389 448 389 448 384.5 454.5 c 128,-1,47
 380 461 380 461 378.5 467 c 128,-1,48
 377 473 377 473 382 474 c 0,49,50
 407 480 407 480 422.5 487 c 128,-1,51
 438 494 438 494 452 507 c 0,52,53
 471 523 471 523 483.5 543.5 c 128,-1,54
 496 564 496 564 505 582 c 0,55,56
 516 603 516 603 522 625 c 1,57,58
 532 622 532 622 541 616 c 0,59,60
 548 611 548 611 556 606 c 128,-1,61
 564 601 564 601 572 594 c 0,62,63
 576 589 576 589 576 585 c 0,64,65
 576 582 576 582 574.5 579.5 c 128,-1,66
 573 577 573 577 572 575 c 0,67,68
 551 542 551 542 526.5 513.5 c 128,-1,69
 502 485 502 485 474 466 c 1,70,71
 483 460 483 460 494 451.5 c 128,-1,72
 505 443 505 443 516 430.5 c 128,-1,73
 527 418 527 418 534.5 399 c 128,-1,74
 542 380 542 380 542 354 c 2,75,-1
 542 166 l 2,76,77
 542 69 542 69 486 30 c 128,-1,78
 430 -9 430 -9 337 -9 c 0,79,80
 298 -9 298 -9 262.5 -2.5 c 128,-1,81
 227 4 227 4 200.5 21 c 128,-1,82
 174 38 174 38 158.5 65.5 c 128,-1,83
 143 93 143 93 143 134 c 2,84,-1
 143 214 l 2,85,86
 143 249 143 249 155.5 272.5 c 128,-1,87
 168 296 168 296 185.5 313 c 128,-1,88
 203 330 203 330 225 343.5 c 128,-1,89
 247 357 247 357 265 373 c 128,-1,90
 283 389 283 389 295.5 411 c 128,-1,91
 308 433 308 433 308 466 c 0,92,93
 308 494 308 494 300.5 513 c 128,-1,94
 293 532 293 532 286 539 c 1,95,-1
 221 468 l 1,96,97
 203 486 203 486 191.5 500 c 128,-1,98
 180 514 180 514 172 523.5 c 128,-1,99
 164 533 164 533 155.5 537.5 c 128,-1,100
 147 542 147 542 136 542 c 0,101,102
 116 542 116 542 105 528 c 128,-1,103
 94 514 94 514 94 494 c 0,104,105
 94 471 94 471 104.5 456.5 c 128,-1,106
 115 442 115 442 137 442 c 0,107,108
 146 442 146 442 157.5 448.5 c 128,-1,109
 169 455 169 455 186 473 c 1,110,-1
 200 455 l 1,0,-1
EndSplineSet
EndChar
StartChar: uni0E0C
Encoding: 3596 3596 225
Width: 934
VWidth: 1473
Flags: W
HStem: -9 52<168.882 244.622 445.36 495.374> 150 52<209 243.107> 220 42<556.205 652.558> 547 51<254.132 379.216>
VStem: 97 59<62.0817 313.188> 256 53<55.5574 138.121> 380 53<57.6159 183.75> 494.5 57.5<262 283.017 283.984 356.638 356.638 457.901> 504.5 50.5<71.8917 118.485 118.485 136 136 168.284> 785 59<106.047 178.727 178.727 181.877 181.877 236.273 236.273 589>
Fore
498 259 m 1,0,1
 498 268 498 268 497 283.5 c 128,-1,2
 496 299 496 299 495.5 315 c 128,-1,3
 495 331 495 331 494.5 346 c 128,-1,4
 494 361 494 361 494 367 c 0,5,6
 494 424 494 424 482.5 459 c 128,-1,7
 471 494 471 494 450 513.5 c 128,-1,8
 429 533 429 533 398 540 c 128,-1,9
 367 547 367 547 326 547 c 0,10,11
 289 547 289 547 253 538 c 128,-1,12
 217 529 217 529 188 516.5 c 128,-1,13
 159 504 159 504 141.5 492 c 128,-1,14
 124 480 124 480 124 473 c 0,15,16
 124 468 124 468 130.5 459.5 c 128,-1,17
 137 451 137 451 146 442 c 128,-1,18
 155 433 155 433 163.5 426.5 c 128,-1,19
 172 420 172 420 177 420 c 0,20,21
 189 420 189 420 202 429.5 c 128,-1,22
 215 439 215 439 228 439 c 0,23,24
 233 439 233 439 239 431.5 c 128,-1,25
 245 424 245 424 249 415.5 c 128,-1,26
 253 407 253 407 254 399.5 c 128,-1,27
 255 392 255 392 249 392 c 0,28,29
 227 392 227 392 210 387.5 c 128,-1,30
 193 383 193 383 181 369 c 128,-1,31
 169 355 169 355 162.5 329 c 128,-1,32
 156 303 156 303 156 262 c 2,33,-1
 156 113 l 2,34,35
 156 80 156 80 169.5 61.5 c 128,-1,36
 183 43 183 43 205 43 c 0,37,38
 230 43 230 43 243 59 c 128,-1,39
 256 75 256 75 256 97 c 256,40,41
 256 119 256 119 243.5 134.5 c 128,-1,42
 231 150 231 150 209 150 c 2,43,-1
 168 150 l 1,44,-1
 168 174 l 1,45,-1
 209 202 l 1,46,47
 252 202 252 202 280.5 171.5 c 128,-1,48
 309 141 309 141 309 97 c 256,49,50
 309 53 309 53 279 22 c 128,-1,51
 249 -9 249 -9 205 -9 c 0,52,53
 155 -9 155 -9 126 25.5 c 128,-1,54
 97 60 97 60 97 133 c 2,55,-1
 97 262 l 2,56,57
 97 318 97 318 108 344 c 128,-1,58
 119 370 119 370 144 395 c 1,59,60
 138 398 138 398 125.5 406.5 c 128,-1,61
 113 415 113 415 100 426.5 c 128,-1,62
 87 438 87 438 76.5 449.5 c 128,-1,63
 66 461 66 461 66 470 c 0,64,65
 66 483 66 483 87 505 c 128,-1,66
 108 527 108 527 143 548 c 128,-1,67
 178 569 178 569 225.5 583.5 c 128,-1,68
 273 598 273 598 326 598 c 0,69,70
 376 598 376 598 418 587.5 c 128,-1,71
 460 577 460 577 489.5 550.5 c 128,-1,72
 519 524 519 524 535.5 479.5 c 128,-1,73
 552 435 552 435 552 367 c 2,74,-1
 552 262 l 1,75,76
 628 258 628 258 693.5 219 c 128,-1,77
 759 180 759 180 790 105 c 1,78,79
 788 122 788 122 787.5 150 c 128,-1,80
 787 178 787 178 786 207.5 c 128,-1,81
 785 237 785 237 785 265 c 128,-1,82
 785 293 785 293 785 311 c 2,83,-1
 785 589 l 1,84,-1
 844 589 l 1,85,-1
 844 327 l 2,86,87
 844 278 844 278 844 228 c 128,-1,88
 844 178 844 178 845.5 136 c 128,-1,89
 847 94 847 94 848.5 63 c 128,-1,90
 850 32 850 32 852 21 c 0,91,92
 854 6 854 6 850.5 3 c 128,-1,93
 847 0 847 0 841 0 c 2,94,-1
 784 0 l 1,95,96
 760 97 760 97 702.5 154.5 c 128,-1,97
 645 212 645 212 554 220 c 1,98,-1
 555 140 l 2,99,100
 555 110 555 110 555 83.5 c 128,-1,101
 555 57 555 57 548.5 36.5 c 128,-1,102
 542 16 542 16 525 3.5 c 128,-1,103
 508 -9 508 -9 474 -9 c 0,104,105
 430 -9 430 -9 405 20.5 c 128,-1,106
 380 50 380 50 380 110 c 0,107,108
 380 177 380 177 416 213.5 c 128,-1,109
 452 250 452 250 498 259 c 1,0,1
499 217 m 1,110,111
 474 209 474 209 453.5 183.5 c 128,-1,112
 433 158 433 158 433 113 c 0,113,114
 433 81 433 81 445.5 62.5 c 128,-1,115
 458 44 458 44 474 44 c 0,116,117
 488 44 488 44 494.5 51.5 c 128,-1,118
 501 59 501 59 503 71.5 c 128,-1,119
 505 84 505 84 504.5 101 c 128,-1,120
 504 118 504 118 504 136 c 0,121,122
 504 146 504 146 502.5 169 c 128,-1,123
 501 192 501 192 499 217 c 1,110,111
EndSplineSet
EndChar
StartChar: uni0E0D
Encoding: 3597 3597 226
Width: 957
VWidth: 1473
Flags: W
HStem: -262 44<573.513 739.335> -109 49<553.581 607.956> -9 52<168.882 244.622 601.176 751.091> 150 52<209 243.107> 547 51<240.714 364.216>
VStem: 97 59<62.0817 313.188> 256 53<55.5574 138.121> 479 58.5<82.4718 110.5 110.5 145.828 145.828 157.945 157.945 206.119 206.119 255.785 255.785 351.665 351.665 424.164> 502 49<-198.808 -111.167> 617 47<-146 -117.253> 809 57<-120.526 -71> 818 59<82.4703 106.5 118.5 133.329 133.329 158.019 158.019 203.45 203.45 279.365 279.365 589>
Fore
168 150 m 1,0,-1
 168 174 l 1,1,-1
 209 202 l 1,2,3
 252 202 252 202 280.5 171.5 c 128,-1,4
 309 141 309 141 309 97 c 256,5,6
 309 53 309 53 279 22 c 128,-1,7
 249 -9 249 -9 205 -9 c 0,8,9
 155 -9 155 -9 126 25.5 c 128,-1,10
 97 60 97 60 97 133 c 2,11,-1
 97 262 l 2,12,13
 97 318 97 318 108 344 c 128,-1,14
 119 370 119 370 144 395 c 1,15,16
 138 398 138 398 125.5 406.5 c 128,-1,17
 113 415 113 415 100 426.5 c 128,-1,18
 87 438 87 438 76.5 449.5 c 128,-1,19
 66 461 66 461 66 470 c 0,20,21
 66 483 66 483 84.5 505 c 128,-1,22
 103 527 103 527 135.5 548 c 128,-1,23
 168 569 168 569 213 583.5 c 128,-1,24
 258 598 258 598 311 598 c 0,25,26
 361 598 361 598 403 587.5 c 128,-1,27
 445 577 445 577 474.5 550.5 c 128,-1,28
 504 524 504 524 521 479.5 c 128,-1,29
 538 435 538 435 538 367 c 0,30,31
 538 349 538 349 537.5 336.5 c 0,32,-1
 536 286.5 l 0,33,34
 535 249 535 249 534 225.5 c 128,-1,35
 533 202 533 202 533 187 c 0,36,37
 533 152 533 152 537 124.5 c 128,-1,38
 541 97 541 97 552 82 c 0,39,40
 588 43 588 43 676 43 c 256,41,42
 765 43 765 43 800 82 c 0,43,44
 812 97 812 97 816.5 118.5 c 128,-1,45
 821 140 821 140 821 169 c 0,46,47
 821 194 821 194 819.5 238.5 c 128,-1,48
 818 283 818 283 818 320 c 2,49,-1
 818 589 l 1,50,-1
 877 589 l 1,51,-1
 877 194 l 2,52,53
 877 138 877 138 871 106.5 c 128,-1,54
 865 75 865 75 844 52 c 0,55,56
 809 12 809 12 762.5 1.5 c 128,-1,57
 716 -9 716 -9 676 -9 c 256,58,59
 636 -9 636 -9 590 1.5 c 128,-1,60
 544 12 544 12 508 52 c 0,61,62
 489 74 489 74 484 110.5 c 128,-1,63
 479 147 479 147 479 194 c 2,64,-1
 479 367 l 2,65,66
 479 424 479 424 468 459 c 128,-1,67
 457 494 457 494 435.5 513.5 c 128,-1,68
 414 533 414 533 383 540 c 128,-1,69
 352 547 352 547 311 547 c 0,70,71
 274 547 274 547 240 538 c 128,-1,72
 206 529 206 529 180.5 516.5 c 128,-1,73
 155 504 155 504 139.5 492 c 128,-1,74
 124 480 124 480 124 473 c 0,75,76
 124 468 124 468 130.5 459.5 c 128,-1,77
 137 451 137 451 146 442 c 128,-1,78
 155 433 155 433 163.5 426.5 c 128,-1,79
 172 420 172 420 177 420 c 0,80,81
 189 420 189 420 202 429.5 c 128,-1,82
 215 439 215 439 228 439 c 0,83,84
 233 439 233 439 239 431.5 c 128,-1,85
 245 424 245 424 249 415.5 c 128,-1,86
 253 407 253 407 254 399.5 c 128,-1,87
 255 392 255 392 249 392 c 0,88,89
 227 392 227 392 210 387.5 c 128,-1,90
 193 383 193 383 181 369 c 128,-1,91
 169 355 169 355 162.5 329 c 128,-1,92
 156 303 156 303 156 262 c 2,93,-1
 156 113 l 2,94,95
 156 80 156 80 169.5 61.5 c 128,-1,96
 183 43 183 43 205 43 c 0,97,98
 230 43 230 43 243 59 c 128,-1,99
 256 75 256 75 256 97 c 256,100,101
 256 119 256 119 243.5 134.5 c 128,-1,102
 231 150 231 150 209 150 c 2,103,-1
 168 150 l 1,0,-1
866 -71 m 1,104,105
 866 -113 866 -113 857.5 -148.5 c 128,-1,106
 849 -184 849 -184 826.5 -209 c 128,-1,107
 804 -234 804 -234 766 -248 c 128,-1,108
 728 -262 728 -262 669 -262 c 0,109,110
 586 -262 586 -262 544 -231 c 128,-1,111
 502 -200 502 -200 502 -149 c 0,112,113
 502 -105 502 -105 528 -82.5 c 128,-1,114
 554 -60 554 -60 586 -60 c 0,115,116
 620 -60 620 -60 642 -81.5 c 128,-1,117
 664 -103 664 -103 664 -146 c 1,118,-1
 641 -189 l 1,119,-1
 617 -189 l 1,120,-1
 617 -146 l 2,121,122
 617 -125 617 -125 607.5 -117 c 128,-1,123
 598 -109 598 -109 586 -109 c 0,124,125
 551 -109 551 -109 551 -149 c 0,126,127
 551 -186 551 -186 577 -202 c 128,-1,128
 603 -218 603 -218 664 -218 c 0,129,130
 703 -218 703 -218 730 -211.5 c 128,-1,131
 757 -205 757 -205 775 -188 c 128,-1,132
 793 -171 793 -171 801 -142 c 128,-1,133
 809 -113 809 -113 809 -71 c 1,134,-1
 866 -71 l 1,104,105
EndSplineSet
Substitution2: "Single Substitution lookup 27 subtable" uni0E0D.alt1
Substitution2: "Single Substitution lookup 27 subtable" uni0E0D.alt1
EndChar
StartChar: uni0E0E
Encoding: 3598 3598 227
Width: 673
VWidth: 1473
Flags: W
HStem: -253 45<230.055 337.329> -127 45<235.362 357.938> -9 52<99.0681 179.415> 147 49<98.3154 130> 547 51<287.714 411.216>
VStem: 37 51<54.6486 129.66> 159 59<232.376 354.917> 183 45<-204.777 -136.615> 192 57<55.3167 171.384> 526.5 58.5<-193 -94.7037 -94.7037 33.9309 33.9309 424.164>
Fore
130 147 m 2,0,1
 108 147 108 147 98 131.5 c 128,-1,2
 88 116 88 116 88 94 c 256,3,4
 88 72 88 72 101.5 57.5 c 128,-1,5
 115 43 115 43 140 43 c 0,6,7
 162 43 162 43 177 57.5 c 128,-1,8
 192 72 192 72 192 106 c 0,9,10
 192 158 192 158 175.5 207 c 128,-1,11
 159 256 159 256 159 301 c 0,12,13
 159 336 159 336 168.5 355 c 128,-1,14
 178 374 178 374 194 393 c 1,15,16
 189 396 189 396 175.5 405.5 c 128,-1,17
 162 415 162 415 148 426.5 c 128,-1,18
 134 438 134 438 123.5 449.5 c 128,-1,19
 113 461 113 461 113 470 c 0,20,21
 113 483 113 483 131.5 505 c 128,-1,22
 150 527 150 527 182.5 548 c 128,-1,23
 215 569 215 569 260 583.5 c 128,-1,24
 305 598 305 598 358 598 c 0,25,26
 408 598 408 598 450 587.5 c 128,-1,27
 492 577 492 577 521.5 550.5 c 128,-1,28
 551 524 551 524 568 479.5 c 128,-1,29
 585 435 585 435 585 367 c 2,30,-1
 585 -250 l 1,31,-1
 524 -250 l 1,32,33
 513 -231 513 -231 486.5 -206 c 128,-1,34
 460 -181 460 -181 423 -161 c 1,35,36
 401 -194 401 -194 364 -223.5 c 128,-1,37
 327 -253 327 -253 271 -253 c 0,38,39
 228 -253 228 -253 205.5 -228 c 128,-1,40
 183 -203 183 -203 183 -169 c 0,41,42
 183 -131 183 -131 215 -106.5 c 128,-1,43
 247 -82 247 -82 296 -82 c 0,44,45
 324 -82 324 -82 350.5 -88 c 128,-1,46
 377 -94 377 -94 399 -103 c 1,47,48
 404 -93 404 -93 406 -85 c 0,49,-1
 410 -69 l 256,50,51
 412 -55 l 1,52,53
 421 -57 421 -57 429 -60 c 256,54,55
 440 -64.5 l 0,56,57
 451 -69 451 -69 457 -74 c 0,58,59
 460 -77 460 -77 460 -82 c 128,-1,60
 460 -87 460 -87 458 -91 c 0,61,62
 455 -97 455 -97 452 -105 c 128,-1,63
 449 -113 449 -113 445 -124 c 1,64,65
 473 -140 473 -140 493.5 -158.5 c 128,-1,66
 514 -177 514 -177 527 -193 c 1,67,68
 527 -175 527 -175 527 -142 c 128,-1,69
 527 -109 527 -109 526.5 -46.5 c 128,-1,70
 526 16 526 16 526 115.5 c 128,-1,71
 526 215 526 215 526 367 c 0,72,73
 526 424 526 424 515 459 c 128,-1,74
 504 494 504 494 482.5 513.5 c 128,-1,75
 461 533 461 533 430 540 c 128,-1,76
 399 547 399 547 358 547 c 0,77,78
 321 547 321 547 287 538 c 128,-1,79
 253 529 253 529 227.5 516.5 c 128,-1,80
 202 504 202 504 186.5 492 c 128,-1,81
 171 480 171 480 171 473 c 0,82,83
 171 468 171 468 177.5 459.5 c 128,-1,84
 184 451 184 451 193 442 c 128,-1,85
 202 433 202 433 211 426.5 c 128,-1,86
 220 420 220 420 224 420 c 0,87,88
 236 420 236 420 249 429.5 c 128,-1,89
 262 439 262 439 275 439 c 0,90,91
 280 439 280 439 286 431.5 c 128,-1,92
 292 424 292 424 296.5 415.5 c 128,-1,93
 301 407 301 407 301.5 399.5 c 128,-1,94
 302 392 302 392 296 392 c 0,95,96
 253 392 253 392 235.5 373.5 c 128,-1,97
 218 355 218 355 218 299 c 0,98,99
 218 274 218 274 223 247 c 128,-1,100
 228 220 228 220 233.5 194 c 128,-1,101
 239 168 239 168 244 145 c 128,-1,102
 249 122 249 122 249 106 c 0,103,104
 249 50 249 50 220.5 20.5 c 128,-1,105
 192 -9 192 -9 140 -9 c 0,106,107
 96 -9 96 -9 66.5 20.5 c 128,-1,108
 37 50 37 50 37 94 c 256,109,110
 37 138 37 138 62.5 167 c 128,-1,111
 88 196 88 196 130 196 c 1,112,-1
 164 171 l 1,113,-1
 164 147 l 1,114,-1
 130 147 l 2,0,1
270 -208 m 0,115,116
 309 -208 309 -208 336.5 -188 c 128,-1,117
 364 -168 364 -168 380 -141 c 1,118,119
 339 -127 339 -127 302 -127 c 0,120,121
 228 -127 228 -127 228 -172 c 0,122,123
 228 -208 228 -208 270 -208 c 0,115,116
EndSplineSet
Substitution2: "Single Substitution lookup 27 subtable" uni0E0E.alt1
Substitution2: "Single Substitution lookup 27 subtable" uni0E0E.alt1
EndChar
StartChar: uni0E0F
Encoding: 3599 3599 228
Width: 673
VWidth: 1473
Flags: W
HStem: -259 45<192.75 255.135> -131 46<193.355 261.723> -9 52<99.0681 179.415> 147 49<98.3154 130> 547 51<287.714 411.216>
VStem: 37 51<54.6486 129.66> 144 46<-210.902 -134.114> 159 59<232.376 354.917> 192 57<55.3167 171.384> 526.5 56.5<-212 -107.461 -107.461 27.6886 27.6886 424.164>
Fore
164 147 m 1,0,-1
 130 147 l 2,1,2
 108 147 108 147 98 131.5 c 128,-1,3
 88 116 88 116 88 94 c 256,4,5
 88 72 88 72 101.5 57.5 c 128,-1,6
 115 43 115 43 140 43 c 0,7,8
 162 43 162 43 177 57.5 c 128,-1,9
 192 72 192 72 192 106 c 0,10,11
 192 158 192 158 175.5 207 c 128,-1,12
 159 256 159 256 159 301 c 0,13,14
 159 336 159 336 168.5 355 c 128,-1,15
 178 374 178 374 194 393 c 1,16,17
 189 396 189 396 175.5 405.5 c 128,-1,18
 162 415 162 415 148 426.5 c 128,-1,19
 134 438 134 438 123.5 449.5 c 128,-1,20
 113 461 113 461 113 470 c 0,21,22
 113 483 113 483 131.5 505 c 128,-1,23
 150 527 150 527 182.5 548 c 128,-1,24
 215 569 215 569 260 583.5 c 128,-1,25
 305 598 305 598 358 598 c 0,26,27
 408 598 408 598 450 587.5 c 128,-1,28
 492 577 492 577 521.5 550.5 c 128,-1,29
 551 524 551 524 568 479.5 c 128,-1,30
 585 435 585 435 585 367 c 2,31,-1
 583 -265 l 1,32,-1
 520 -265 l 1,33,-1
 448 -206 l 1,34,-1
 379 -262 l 1,35,-1
 326 -206 l 1,36,37
 302 -236 302 -236 278.5 -247.5 c 128,-1,38
 255 -259 255 -259 225 -259 c 0,39,40
 187 -259 187 -259 165.5 -232.5 c 128,-1,41
 144 -206 144 -206 144 -177 c 0,42,43
 144 -134 144 -134 168 -109.5 c 128,-1,44
 192 -85 192 -85 225 -85 c 0,45,46
 255 -85 255 -85 278 -100.5 c 128,-1,47
 301 -116 301 -116 314 -130 c 1,48,49
 320 -116 320 -116 323 -95.5 c 128,-1,50
 326 -75 326 -75 326 -63 c 1,51,52
 333 -63 333 -63 339 -65 c 256,53,54
 345 -66 345 -66 351.5 -68.5 c 128,-1,55
 358 -71 358 -71 364 -74 c 256,56,57
 370 -77 370 -77 370 -82 c 128,-1,58
 370 -87 370 -87 368 -94 c 0,59,60
 367 -105 367 -105 363 -116 c 128,-1,61
 359 -127 359 -127 355 -137 c 0,62,63
 349 -149 349 -149 345 -161 c 1,64,-1
 385 -202 l 1,65,-1
 446 -153 l 1,66,-1
 527 -212 l 1,67,68
 527 -194 527 -194 527 -158 c 128,-1,69
 527 -122 527 -122 526.5 -56 c 128,-1,70
 526 10 526 10 526 112.5 c 128,-1,71
 526 215 526 215 526 367 c 0,72,73
 526 424 526 424 515 459 c 128,-1,74
 504 494 504 494 482.5 513.5 c 128,-1,75
 461 533 461 533 430 540 c 128,-1,76
 399 547 399 547 358 547 c 0,77,78
 321 547 321 547 287 538 c 128,-1,79
 253 529 253 529 227.5 516.5 c 128,-1,80
 202 504 202 504 186.5 492 c 128,-1,81
 171 480 171 480 171 473 c 0,82,83
 171 468 171 468 177.5 459.5 c 128,-1,84
 184 451 184 451 193 442 c 128,-1,85
 202 433 202 433 211 426.5 c 128,-1,86
 220 420 220 420 224 420 c 0,87,88
 236 420 236 420 249 429.5 c 128,-1,89
 262 439 262 439 275 439 c 0,90,91
 280 439 280 439 286 431.5 c 128,-1,92
 292 424 292 424 296.5 415.5 c 128,-1,93
 301 407 301 407 301.5 399.5 c 128,-1,94
 302 392 302 392 296 392 c 0,95,96
 253 392 253 392 235.5 373.5 c 128,-1,97
 218 355 218 355 218 299 c 0,98,99
 218 274 218 274 223 247 c 128,-1,100
 228 220 228 220 233.5 194 c 128,-1,101
 239 168 239 168 244 145 c 128,-1,102
 249 122 249 122 249 106 c 0,103,104
 249 50 249 50 220.5 20.5 c 128,-1,105
 192 -9 192 -9 140 -9 c 0,106,107
 96 -9 96 -9 66.5 20.5 c 128,-1,108
 37 50 37 50 37 94 c 256,109,110
 37 138 37 138 62.5 167 c 128,-1,111
 88 196 88 196 130 196 c 1,112,-1
 164 171 l 1,113,-1
 164 147 l 1,0,-1
298 -174 m 1,114,115
 278 -153 278 -153 262 -142 c 128,-1,116
 246 -131 246 -131 228 -131 c 0,117,118
 190 -131 190 -131 190 -175 c 0,119,120
 190 -214 190 -214 230 -214 c 0,121,122
 247 -214 247 -214 265 -207 c 128,-1,123
 283 -200 283 -200 298 -174 c 1,114,115
EndSplineSet
Substitution2: "Single Substitution lookup 27 subtable" uni0E0F.alt1
Substitution2: "Single Substitution lookup 27 subtable" uni0E0F.alt1
EndChar
StartChar: uni0E10
Encoding: 3600 3600 229
Width: 602
VWidth: 1473
Flags: W
HStem: -290 41<129.258 186.367> -174 43<129.341 207.34> -100 41<402.415 460.708> 1.5 39.5<316 350.5 351.109 366.758 358.933 402.918 398.515 407.321 407.321 429.965> 112 52<185.862 220> 255 53<185.157 265.39> 371 53<139.546 215.203> 377 53<175.941 221 250.5 272.954 272.954 310.016 291.485 390.595> 520 60.5<332.326 352.335 342.33 418.973 402.242 435.703 435.703 463.5 463.5 475.342> 533 70<475.379 510.11> 538 51<144.102 230.589 464.853 476 476 521.343>
VStem: 85 42<-246.935 -175.536 432.828 521.01> 121 53<181.215 244.415> 283 51<27.0471 92.2444 82.8503 101.638 101.638 124 154 190.08> 361 40<-152.321 -101.235> 449 59<237.651 340.903> 467 49<-184.817 -112.692>
Fore
224 -211 m 1,0,1
 190 -174 190 -174 161 -174 c 0,2,3
 127 -174 127 -174 127 -212 c 0,4,5
 127 -249 127 -249 162 -249 c 0,6,7
 178 -249 178 -249 194.5 -242.5 c 128,-1,8
 211 -236 211 -236 224 -211 c 1,0,1
264 138 m 1,9,-1
 220 112 l 1,10,11
 175 112 175 112 148 138.5 c 128,-1,12
 121 165 121 165 121 209 c 256,13,14
 121 253 121 253 149.5 280.5 c 128,-1,15
 178 308 178 308 222 308 c 0,16,17
 264 308 264 308 287.5 289 c 128,-1,18
 311 270 311 270 322.5 236 c 128,-1,19
 334 202 334 202 335.5 154 c 128,-1,20
 337 106 337 106 334 49 c 0,21,22
 334 44 334 44 350.5 41 c 128,-1,23
 367 38 367 38 383 38 c 256,24,25
 399 38 399 38 414 41 c 128,-1,26
 429 44 429 44 430 50 c 0,27,28
 436 116 436 116 442.5 182.5 c 128,-1,29
 449 249 449 249 449 301 c 0,30,31
 449 315 449 315 444.5 330 c 128,-1,32
 440 345 440 345 426 356.5 c 128,-1,33
 412 368 412 368 383.5 375.5 c 128,-1,34
 355 383 355 383 306 383 c 0,35,36
 261 383 261 383 221 377 c 128,-1,37
 181 371 181 371 152 371 c 0,38,39
 109 371 109 371 93.5 398.5 c 128,-1,40
 78 426 78 426 78 466 c 0,41,42
 78 526 78 526 111 557.5 c 128,-1,43
 144 589 144 589 199 589 c 0,44,45
 209 589 209 589 230.5 587.5 c 128,-1,46
 252 586 252 586 277 584 c 128,-1,47
 302 582 302 582 328.5 580.5 c 128,-1,48
 355 579 355 579 376 579 c 0,49,50
 402 579 402 579 428.5 582.5 c 128,-1,51
 455 586 455 586 476 591 c 0,52,53
 501 597 501 597 522 603 c 1,54,55
 524 592 524 592 529 582 c 0,56,57
 536 563 536 563 536 548 c 0,58,59
 536 539 536 539 523 533 c 1,60,61
 507 529 507 529 463.5 524.5 c 128,-1,62
 420 520 420 520 377 520 c 0,63,64
 358 520 358 520 331.5 523 c 128,-1,65
 305 526 305 526 279 529 c 128,-1,66
 253 532 253 532 232 535 c 128,-1,67
 211 538 211 538 202 538 c 0,68,69
 159 538 159 538 145 519.5 c 128,-1,70
 131 501 131 501 131 467 c 0,71,72
 131 439 131 439 138.5 431.5 c 128,-1,73
 146 424 146 424 175 424 c 256,74,75
 205 424 205 424 250.5 430 c 128,-1,76
 296 436 296 436 348 436 c 0,77,78
 426 436 426 436 467 400.5 c 128,-1,79
 508 365 508 365 508 309 c 0,80,81
 508 289 508 289 504.5 255.5 c 128,-1,82
 501 222 501 222 496.5 182.5 c 128,-1,83
 492 143 492 143 487 100 c 128,-1,84
 482 57 482 57 479 18 c 0,85,86
 479 6 479 6 450 1 c 128,-1,87
 421 -4 421 -4 387 -4 c 0,88,89
 370 -4 370 -4 350.5 -2.5 c 128,-1,90
 331 -1 331 -1 316 1.5 c 128,-1,91
 301 4 301 4 292 8.5 c 128,-1,92
 283 13 283 13 283 19 c 0,93,94
 286 80 286 80 286.5 124 c 128,-1,95
 287 168 287 168 282 196.5 c 128,-1,96
 277 225 277 225 263 240 c 128,-1,97
 249 255 249 255 222 255 c 0,98,99
 202 255 202 255 188 241.5 c 128,-1,100
 174 228 174 228 174 209 c 0,101,102
 174 193 174 193 185.5 178.5 c 128,-1,103
 197 164 197 164 220 164 c 2,104,-1
 264 164 l 1,105,-1
 264 138 l 1,9,-1
240 -174 m 1,106,107
 246 -161 246 -161 248 -139.5 c 128,-1,108
 250 -118 250 -118 250 -106 c 1,109,110
 258 -106 258 -106 264 -108 c 256,111,112
 270 -109 270 -109 276.5 -111 c 128,-1,113
 283 -113 283 -113 289 -116 c 256,114,115
 295 -119 295 -119 295 -124.5 c 128,-1,116
 295 -130 295 -130 293 -137 c 0,117,118
 292 -147 292 -147 287.5 -158 c 128,-1,119
 283 -169 283 -169 278 -180 c 0,120,121
 273 -192 273 -192 268 -203 c 1,122,-1
 303 -239 l 1,123,-1
 359 -208 l 1,124,-1
 433 -246 l 1,125,126
 433 -231 433 -231 438 -218.5 c 128,-1,127
 443 -206 443 -206 450 -194.5 c 128,-1,128
 457 -183 457 -183 462 -171 c 128,-1,129
 467 -159 467 -159 467 -143 c 256,130,131
 467 -127 467 -127 459 -113.5 c 128,-1,132
 451 -100 451 -100 433 -100 c 0,133,134
 401 -100 401 -100 401 -134 c 0,135,136
 401 -146 401 -146 406 -152.5 c 128,-1,137
 411 -159 411 -159 417 -164 c 2,138,-1
 436 -178 l 1,139,-1
 424 -194 l 1,140,-1
 390 -189 l 1,141,142
 379 -178 379 -178 370 -165 c 128,-1,143
 361 -152 361 -152 361 -137 c 0,144,145
 361 -100 361 -100 382.5 -79.5 c 128,-1,146
 404 -59 404 -59 436 -59 c 0,147,148
 479 -59 479 -59 497.5 -85.5 c 128,-1,149
 516 -112 516 -112 516 -141 c 0,150,151
 516 -168 516 -168 499.5 -204 c 128,-1,152
 483 -240 483 -240 483 -289 c 1,153,-1
 417 -289 l 1,154,-1
 361 -255 l 1,155,-1
 298 -292 l 1,156,-1
 249 -242 l 1,157,158
 228 -268 228 -268 207 -279 c 128,-1,159
 186 -290 186 -290 159 -290 c 0,160,161
 124 -290 124 -290 104.5 -266 c 128,-1,162
 85 -242 85 -242 85 -214 c 0,163,164
 85 -175 85 -175 106.5 -153 c 128,-1,165
 128 -131 128 -131 159 -131 c 0,166,167
 186 -131 186 -131 207 -146.5 c 128,-1,168
 228 -162 228 -162 240 -174 c 1,106,107
EndSplineSet
Substitution2: "Single Substitution lookup 27 subtable" uni0E10.alt1
Substitution2: "Single Substitution lookup 27 subtable" uni0E10.alt1
EndChar
StartChar: uni0E11
Encoding: 3601 3601 230
Width: 679
VWidth: 1473
Flags: W
HStem: 0 21G<155 208.308 539 598> 401 48<77.3123 136.32> 533 61<449.192 520.993> 545 49<78.0286 126.242>
VStem: 22 47<463.733 527.353> 147 61<3.09668 21 21 46.2065> 153.5 55.5<41.48 65 168 216.544 216.544 219.5 219.5 268 268 343.182> 252 44<440.206 531.365> 539 59<0 503.531>
Fore
171 461 m 1,0,-1
 162 430 l 1,1,2
 137 401 137 401 106 401 c 0,3,4
 69 401 69 401 45.5 426.5 c 128,-1,5
 22 452 22 452 22 492 c 0,6,7
 22 544 22 544 48.5 569 c 128,-1,8
 75 594 75 594 103 594 c 0,9,10
 122 594 122 594 136 585.5 c 128,-1,11
 150 577 150 577 161 567 c 0,12,13
 172 555 172 555 181 541 c 1,14,-1
 236 600 l 1,15,16
 261 583 261 583 278.5 561 c 128,-1,17
 296 539 296 539 296 501 c 0,18,19
 296 460 296 460 282 435.5 c 128,-1,20
 268 411 268 411 252 390.5 c 128,-1,21
 236 370 236 370 222 344 c 128,-1,22
 208 318 208 318 208 271 c 2,23,-1
 203 168 l 1,24,25
 224 224 224 224 256.5 297 c 128,-1,26
 289 370 289 370 328 436 c 128,-1,27
 367 502 367 502 410.5 548 c 128,-1,28
 454 594 454 594 495 594 c 0,29,30
 557 594 557 594 577.5 563.5 c 128,-1,31
 598 533 598 533 598 467 c 2,32,-1
 598 0 l 1,33,-1
 539 0 l 1,34,-1
 539 467 l 2,35,36
 539 494 539 494 534.5 507 c 128,-1,37
 530 520 530 520 523.5 526 c 128,-1,38
 517 532 517 532 509.5 532.5 c 128,-1,39
 502 533 502 533 495 533 c 0,40,41
 473 533 473 533 446.5 509.5 c 128,-1,42
 420 486 420 486 393.5 448 c 128,-1,43
 367 410 367 410 340.5 359.5 c 128,-1,44
 314 309 314 309 289.5 257.5 c 128,-1,45
 265 206 265 206 244.5 155.5 c 128,-1,46
 224 105 224 105 209 65 c 1,47,-1
 208 0 l 1,48,-1
 158 0 l 2,49,50
 152 0 152 0 148 3 c 128,-1,51
 144 6 144 6 147 21 c 0,52,53
 152 44 152 44 153.5 106.5 c 128,-1,54
 155 169 155 169 155 268 c 0,55,56
 155 317 155 317 170.5 347 c 128,-1,57
 186 377 186 377 203.5 400 c 128,-1,58
 221 423 221 423 236.5 443.5 c 128,-1,59
 252 464 252 464 252 495 c 0,60,61
 252 507 252 507 249 516.5 c 128,-1,62
 246 526 246 526 243 533 c 1,63,64
 239 541 239 541 234 547 c 1,65,-1
 178 486 l 1,66,67
 153 522 153 522 140 533.5 c 128,-1,68
 127 545 127 545 109 545 c 0,69,70
 90 545 90 545 79.5 529.5 c 128,-1,71
 69 514 69 514 69 494 c 128,-1,72
 69 474 69 474 80 461.5 c 128,-1,73
 91 449 91 449 110 449 c 0,74,75
 119 449 119 449 129.5 455 c 128,-1,76
 140 461 140 461 156 479 c 1,77,-1
 171 461 l 1,0,-1
EndSplineSet
EndChar
StartChar: uni0E12
Encoding: 3602 3602 231
Width: 956
VWidth: 1473
Flags: W
HStem: -9 53<459.782 510.041> 220 47<571.534 611.182> 376 51<265.984 336.567> 578 20<181 255.839 401 456 807 866>
VStem: 74 59<290.031 479.7> 202 51<286.975 363.016> 355 52<285.47 356.718> 395 53<57.6159 183.525> 505 62<366.217 435 435 444.138> 507 60<267 286.625 286.625 335.846 335.846 396.911 396.911 434.029> 519.5 50.5<71.8917 118.485 118.485 136 136 168.284> 807 59<106.565 179.696 179.696 181.877 181.877 237.304 237.304 589>
Fore
277 247 m 1,0,-1
 231 253 l 1,1,2
 202 283 202 283 202 324 c 0,3,4
 202 367 202 367 232 397 c 128,-1,5
 262 427 262 427 305 427 c 0,6,7
 330 427 330 427 349 417.5 c 128,-1,8
 368 408 368 408 380.5 394 c 128,-1,9
 393 380 393 380 400 363 c 128,-1,10
 407 346 407 346 407 329 c 0,11,12
 407 289 407 289 393 267 c 128,-1,13
 379 245 379 245 346 221 c 0,14,15
 315 197 315 197 285.5 174.5 c 128,-1,16
 256 152 256 152 233.5 126 c 128,-1,17
 211 100 211 100 197 69 c 128,-1,18
 183 38 183 38 183 0 c 1,19,-1
 125 0 l 2,20,21
 119 0 119 0 115.5 3 c 128,-1,22
 112 6 112 6 115 21 c 0,23,24
 119 44 119 44 130 69 c 128,-1,25
 141 94 141 94 156 115 c 0,26,27
 165 128 165 128 159 136 c 0,28,29
 147 147 147 147 132.5 161 c 128,-1,30
 118 175 118 175 104.5 198.5 c 128,-1,31
 91 222 91 222 82.5 260 c 128,-1,32
 74 298 74 298 74 357 c 0,33,34
 74 451 74 451 107.5 510 c 128,-1,35
 141 569 141 569 221 598 c 1,36,-1
 329 536 l 1,37,-1
 433 601 l 1,38,39
 479 594 479 594 505.5 573 c 128,-1,40
 532 552 532 552 546 520.5 c 128,-1,41
 560 489 560 489 563.5 445.5 c 128,-1,42
 567 402 567 402 567 348 c 2,43,-1
 567 267 l 1,44,45
 604 265 604 265 641 253.5 c 128,-1,46
 678 242 678 242 711 222 c 128,-1,47
 744 202 744 202 770.5 173 c 128,-1,48
 797 144 797 144 812 106 c 1,49,50
 810 124 810 124 809.5 151 c 128,-1,51
 809 178 809 178 808 208.5 c 128,-1,52
 807 239 807 239 807 266 c 128,-1,53
 807 293 807 293 807 311 c 2,54,-1
 807 589 l 1,55,-1
 866 589 l 1,56,-1
 866 327 l 2,57,58
 866 278 866 278 866 228 c 128,-1,59
 866 178 866 178 867.5 136 c 128,-1,60
 869 94 869 94 870.5 63 c 128,-1,61
 872 32 872 32 874 21 c 0,62,63
 877 6 877 6 873 3 c 128,-1,64
 869 0 869 0 863 0 c 2,65,-1
 806 0 l 1,66,67
 782 97 782 97 721 154.5 c 128,-1,68
 660 212 660 212 569 220 c 1,69,-1
 570 140 l 2,70,71
 570 110 570 110 570 83.5 c 128,-1,72
 570 57 570 57 563.5 36.5 c 128,-1,73
 557 16 557 16 540 3.5 c 128,-1,74
 523 -9 523 -9 489 -9 c 0,75,76
 445 -9 445 -9 420 20.5 c 128,-1,77
 395 50 395 50 395 110 c 0,78,79
 395 177 395 177 431 216 c 128,-1,80
 467 255 467 255 513 264 c 1,81,82
 511 283 511 283 509.5 307 c 128,-1,83
 508 331 508 331 507 365 c 0,84,85
 505 404 505 404 505 435 c 128,-1,86
 505 466 505 466 498.5 488 c 128,-1,87
 492 510 492 510 476.5 524.5 c 128,-1,88
 461 539 461 539 430 547 c 1,89,-1
 329 485 l 1,90,-1
 227 545 l 1,91,92
 177 529 177 529 155 480.5 c 128,-1,93
 133 432 133 432 133 357 c 0,94,95
 133 302 133 302 140 268 c 128,-1,96
 147 234 147 234 157.5 213 c 128,-1,97
 168 192 168 192 179 178.5 c 128,-1,98
 190 165 190 165 199 152 c 1,99,100
 205 161 205 161 221 176.5 c 128,-1,101
 237 192 237 192 256 208 c 128,-1,102
 275 224 275 224 292 238 c 128,-1,103
 309 252 309 252 318 258 c 0,104,105
 340 274 340 274 347.5 290 c 128,-1,106
 355 306 355 306 355 321 c 0,107,108
 355 346 355 346 341 361 c 128,-1,109
 327 376 327 376 306 376 c 0,110,111
 284 376 284 376 268.5 360.5 c 128,-1,112
 253 345 253 345 253 323 c 0,113,114
 253 303 253 303 268 290 c 2,115,-1
 295 262 l 1,116,-1
 277 247 l 1,0,-1
514 217 m 1,117,118
 489 209 489 209 468.5 183.5 c 128,-1,119
 448 158 448 158 448 113 c 0,120,121
 448 81 448 81 460.5 62.5 c 128,-1,122
 473 44 473 44 489 44 c 0,123,124
 502 44 502 44 509 51.5 c 128,-1,125
 516 59 516 59 518 71.5 c 128,-1,126
 520 84 520 84 519.5 101 c 128,-1,127
 519 118 519 118 519 136 c 0,128,129
 519 146 519 146 517.5 169 c 128,-1,130
 516 192 516 192 514 217 c 1,117,118
EndSplineSet
EndChar
StartChar: uni0E13
Encoding: 3603 3603 232
Width: 939
VWidth: 1473
Flags: W
HStem: -9 52<168.528 243.82 754.888 834.569> 152 51<209 243.107> 202 47<638.872 744.361> 547 51<240.714 363.326>
VStem: 97 59<64.1439 313.188> 256 53<56.1322 139.825> 465 58<134.747 208.908 208.908 314.608 314.608 428.299> 691 51<56.6891 144.998> 801 59<241.735 589> 850 53<61.2851 160.655>
Fore
168 175 m 1,0,-1
 209 203 l 1,1,2
 252 203 252 203 280.5 172 c 128,-1,3
 309 141 309 141 309 97 c 256,4,5
 309 53 309 53 278 22 c 128,-1,6
 247 -9 247 -9 203 -9 c 0,7,8
 147 -9 147 -9 122 23.5 c 128,-1,9
 97 56 97 56 97 118 c 2,10,-1
 97 262 l 2,11,12
 97 318 97 318 108 344 c 128,-1,13
 119 370 119 370 144 395 c 1,14,15
 138 398 138 398 125.5 406.5 c 128,-1,16
 113 415 113 415 100 426.5 c 128,-1,17
 87 438 87 438 76.5 449.5 c 128,-1,18
 66 461 66 461 66 470 c 0,19,20
 66 483 66 483 84.5 505 c 128,-1,21
 103 527 103 527 135.5 548 c 128,-1,22
 168 569 168 569 213 583.5 c 128,-1,23
 258 598 258 598 311 598 c 0,24,25
 361 598 361 598 400.5 587.5 c 128,-1,26
 440 577 440 577 467.5 550.5 c 128,-1,27
 495 524 495 524 509 479.5 c 128,-1,28
 523 435 523 435 523 367 c 2,29,-1
 523 261 l 1,30,-1
 520 134 l 1,31,32
 555 190 555 190 611 219.5 c 128,-1,33
 667 249 667 249 716 249 c 0,34,35
 757 249 757 249 797 236 c 1,36,37
 801 249 801 249 801 273 c 2,38,-1
 801 589 l 1,39,-1
 860 589 l 1,40,-1
 860 273 l 2,41,42
 860 246 860 246 837 220 c 1,43,44
 866 203 866 203 884.5 174.5 c 128,-1,45
 903 146 903 146 903 108 c 0,46,47
 903 47 903 47 870.5 21.5 c 128,-1,48
 838 -4 838 -4 794 -4 c 256,49,50
 750 -4 750 -4 720.5 23 c 128,-1,51
 691 50 691 50 691 103 c 0,52,53
 691 137 691 137 709.5 160.5 c 128,-1,54
 728 184 728 184 745 199 c 1,55,56
 734 202 734 202 712 202 c 0,57,58
 676 202 676 202 641.5 184 c 128,-1,59
 607 166 607 166 580.5 138 c 128,-1,60
 554 110 554 110 538 74 c 128,-1,61
 522 38 522 38 522 0 c 1,62,-1
 471 0 l 2,63,64
 466 0 466 0 462 3 c 128,-1,65
 458 6 458 6 461 21 c 0,66,67
 464 32 464 32 465 69 c 128,-1,68
 466 106 466 106 466 156 c 128,-1,69
 466 206 466 206 465 262 c 128,-1,70
 464 318 464 318 464 367 c 0,71,72
 464 424 464 424 455 459 c 128,-1,73
 446 494 446 494 428 513.5 c 128,-1,74
 410 533 410 533 381 540 c 128,-1,75
 352 547 352 547 311 547 c 0,76,77
 274 547 274 547 240 538 c 128,-1,78
 206 529 206 529 180.5 516.5 c 128,-1,79
 155 504 155 504 139.5 492 c 128,-1,80
 124 480 124 480 124 473 c 0,81,82
 124 468 124 468 130.5 459.5 c 128,-1,83
 137 451 137 451 146 442 c 128,-1,84
 155 433 155 433 163.5 426.5 c 128,-1,85
 172 420 172 420 177 420 c 0,86,87
 189 420 189 420 202 429.5 c 128,-1,88
 215 439 215 439 228 439 c 0,89,90
 233 439 233 439 239 431.5 c 128,-1,91
 245 424 245 424 249 415.5 c 128,-1,92
 253 407 253 407 254 399.5 c 128,-1,93
 255 392 255 392 249 392 c 0,94,95
 227 392 227 392 210 387.5 c 128,-1,96
 193 383 193 383 181 369 c 128,-1,97
 169 355 169 355 162.5 329 c 128,-1,98
 156 303 156 303 156 262 c 2,99,-1
 156 118 l 2,100,101
 156 84 156 84 168.5 63.5 c 128,-1,102
 181 43 181 43 203 43 c 0,103,104
 228 43 228 43 242 59 c 128,-1,105
 256 75 256 75 256 97 c 256,106,107
 256 119 256 119 243.5 135.5 c 128,-1,108
 231 152 231 152 209 152 c 2,109,-1
 168 152 l 1,110,-1
 168 175 l 1,0,-1
850 110 m 0,111,112
 850 161 850 161 788 184 c 1,113,114
 763 168 763 168 752.5 147.5 c 128,-1,115
 742 127 742 127 742 110 c 0,116,117
 742 49 742 49 794 49 c 0,118,119
 819 49 819 49 834.5 63.5 c 128,-1,120
 850 78 850 78 850 110 c 0,111,112
EndSplineSet
EndChar
StartChar: uni0E14
Encoding: 3604 3604 233
Width: 626
VWidth: 1473
Flags: W
HStem: -1 21G<122 183 486 545> 376 51<280.984 351.567> 547 51<216.37 413.986>
VStem: 74 59<290.031 463.218> 217 51<286.975 363.016> 370 51<286.323 356.718> 486 59<-1 414.779>
Fore
74 357 m 0,0,1
 74 471 74 471 139.5 534.5 c 128,-1,2
 205 598 205 598 309 598 c 0,3,4
 380 598 380 598 425.5 583.5 c 128,-1,5
 471 569 471 569 497.5 538 c 128,-1,6
 524 507 524 507 534.5 459.5 c 128,-1,7
 545 412 545 412 545 348 c 2,8,-1
 545 -1 l 1,9,-1
 486 -1 l 1,10,-1
 486 333 l 2,11,12
 486 390 486 390 481 431.5 c 128,-1,13
 476 473 476 473 458 498 c 128,-1,14
 440 523 440 523 405 535 c 128,-1,15
 370 547 370 547 309 547 c 0,16,17
 231 547 231 547 182 500.5 c 128,-1,18
 133 454 133 454 133 357 c 0,19,20
 133 302 133 302 140 268 c 128,-1,21
 147 234 147 234 157.5 213 c 128,-1,22
 168 192 168 192 179 178.5 c 128,-1,23
 190 165 190 165 199 152 c 1,24,25
 205 161 205 161 223.5 176.5 c 128,-1,26
 242 192 242 192 264 208.5 c 128,-1,27
 286 225 286 225 305 239 c 128,-1,28
 324 253 324 253 333 259 c 0,29,30
 355 275 355 275 362.5 290.5 c 128,-1,31
 370 306 370 306 370 321 c 0,32,33
 370 346 370 346 356 361 c 128,-1,34
 342 376 342 376 321 376 c 0,35,36
 299 376 299 376 283.5 360.5 c 128,-1,37
 268 345 268 345 268 323 c 0,38,39
 268 303 268 303 283 290 c 2,40,-1
 309 262 l 1,41,-1
 292 247 l 1,42,-1
 246 253 l 1,43,44
 217 283 217 283 217 324 c 0,45,46
 217 367 217 367 247 397 c 128,-1,47
 277 427 277 427 320 427 c 0,48,49
 345 427 345 427 364 417.5 c 128,-1,50
 383 408 383 408 395.5 394 c 128,-1,51
 408 380 408 380 414.5 363 c 128,-1,52
 421 346 421 346 421 329 c 0,53,54
 421 289 421 289 407 267 c 128,-1,55
 393 245 393 245 361 221 c 0,56,57
 330 197 330 197 297.5 174.5 c 128,-1,58
 265 152 265 152 240 126 c 128,-1,59
 215 100 215 100 199 69 c 128,-1,60
 183 38 183 38 183 0 c 1,61,-1
 125 0 l 2,62,63
 119 0 119 0 115.5 3 c 128,-1,64
 112 6 112 6 115 21 c 0,65,66
 119 44 119 44 130 69 c 128,-1,67
 141 94 141 94 156 115 c 0,68,69
 165 128 165 128 159 136 c 0,70,71
 147 147 147 147 132.5 161 c 128,-1,72
 118 175 118 175 104.5 198.5 c 128,-1,73
 91 222 91 222 82.5 260 c 128,-1,74
 74 298 74 298 74 357 c 0,0,1
EndSplineSet
EndChar
StartChar: uni0E15
Encoding: 3605 3605 234
Width: 640
VWidth: 1473
Flags: W
HStem: 0 21G<122 183 501 560> 376 51<280.984 351.567> 578 20G<181 254.226 389.077 441>
VStem: 74 59<290.031 479.7> 217 51<286.975 363.016> 370 51<286.323 356.718> 501 59<0 400.123 400.123 430.237>
Fore
324 485 m 1,0,-1
 227 545 l 1,1,2
 177 529 177 529 155 480.5 c 128,-1,3
 133 432 133 432 133 357 c 0,4,5
 133 302 133 302 140 268 c 128,-1,6
 147 234 147 234 157.5 213 c 128,-1,7
 168 192 168 192 179 178.5 c 128,-1,8
 190 165 190 165 199 152 c 1,9,10
 205 161 205 161 223.5 176.5 c 128,-1,11
 242 192 242 192 264 208.5 c 128,-1,12
 286 225 286 225 305 239 c 128,-1,13
 324 253 324 253 333 259 c 0,14,15
 355 275 355 275 362.5 290.5 c 128,-1,16
 370 306 370 306 370 321 c 0,17,18
 370 346 370 346 356 361 c 128,-1,19
 342 376 342 376 321 376 c 0,20,21
 299 376 299 376 283.5 360.5 c 128,-1,22
 268 345 268 345 268 323 c 0,23,24
 268 303 268 303 283 290 c 2,25,-1
 309 262 l 1,26,-1
 292 247 l 1,27,-1
 246 253 l 1,28,29
 217 283 217 283 217 324 c 0,30,31
 217 367 217 367 247 397 c 128,-1,32
 277 427 277 427 320 427 c 0,33,34
 345 427 345 427 364 417.5 c 128,-1,35
 383 408 383 408 395.5 394 c 128,-1,36
 408 380 408 380 414.5 363 c 128,-1,37
 421 346 421 346 421 329 c 0,38,39
 421 289 421 289 407 267 c 128,-1,40
 393 245 393 245 361 221 c 0,41,42
 330 197 330 197 297.5 174.5 c 128,-1,43
 265 152 265 152 240 126 c 128,-1,44
 215 100 215 100 199 69 c 128,-1,45
 183 38 183 38 183 0 c 1,46,-1
 125 0 l 2,47,48
 119 0 119 0 115.5 3 c 128,-1,49
 112 6 112 6 115 21 c 0,50,51
 119 44 119 44 130 69 c 128,-1,52
 141 94 141 94 156 115 c 0,53,54
 165 128 165 128 159 136 c 0,55,56
 147 147 147 147 132.5 161 c 128,-1,57
 118 175 118 175 104.5 198.5 c 128,-1,58
 91 222 91 222 82.5 260 c 128,-1,59
 74 298 74 298 74 357 c 0,60,61
 74 451 74 451 107.5 510 c 128,-1,62
 141 569 141 569 221 598 c 1,63,-1
 324 536 l 1,64,-1
 418 601 l 1,65,66
 464 594 464 594 492 573 c 128,-1,67
 520 552 520 552 535 520.5 c 128,-1,68
 550 489 550 489 555 445.5 c 128,-1,69
 560 402 560 402 560 348 c 2,70,-1
 560 0 l 1,71,-1
 501 0 l 1,72,-1
 501 365 l 2,73,74
 501 404 501 404 499.5 435 c 128,-1,75
 498 466 498 466 489 488 c 128,-1,76
 480 510 480 510 463 524.5 c 128,-1,77
 446 539 446 539 415 547 c 1,78,-1
 324 485 l 1,0,-1
EndSplineSet
EndChar
StartChar: uni0E16
Encoding: 3606 3606 235
Width: 618
VWidth: 1473
Flags: W
HStem: -9 52<168.882 244.622> 150 52<209 243.107> 547 51<240.714 364.216>
VStem: 97 59<62.0817 313.188> 256 53<55.5574 138.121> 479 59<0 424.164>
Fore
168 150 m 1,0,-1
 168 174 l 1,1,-1
 209 202 l 1,2,3
 252 202 252 202 280.5 171.5 c 128,-1,4
 309 141 309 141 309 97 c 256,5,6
 309 53 309 53 279 22 c 128,-1,7
 249 -9 249 -9 205 -9 c 0,8,9
 155 -9 155 -9 126 25.5 c 128,-1,10
 97 60 97 60 97 133 c 2,11,-1
 97 262 l 2,12,13
 97 318 97 318 108 344 c 128,-1,14
 119 370 119 370 144 395 c 1,15,16
 138 398 138 398 125.5 406.5 c 128,-1,17
 113 415 113 415 100 426.5 c 128,-1,18
 87 438 87 438 76.5 449.5 c 128,-1,19
 66 461 66 461 66 470 c 0,20,21
 66 483 66 483 84.5 505 c 128,-1,22
 103 527 103 527 135.5 548 c 128,-1,23
 168 569 168 569 213 583.5 c 128,-1,24
 258 598 258 598 311 598 c 0,25,26
 361 598 361 598 403 587.5 c 128,-1,27
 445 577 445 577 474.5 550.5 c 128,-1,28
 504 524 504 524 521 479.5 c 128,-1,29
 538 435 538 435 538 367 c 2,30,-1
 538 0 l 1,31,-1
 479 0 l 1,32,-1
 479 367 l 2,33,34
 479 424 479 424 468 459 c 128,-1,35
 457 494 457 494 435.5 513.5 c 128,-1,36
 414 533 414 533 383 540 c 128,-1,37
 352 547 352 547 311 547 c 0,38,39
 274 547 274 547 240 538 c 128,-1,40
 206 529 206 529 180.5 516.5 c 128,-1,41
 155 504 155 504 139.5 492 c 128,-1,42
 124 480 124 480 124 473 c 0,43,44
 124 468 124 468 130.5 459.5 c 128,-1,45
 137 451 137 451 146 442 c 128,-1,46
 155 433 155 433 163.5 426.5 c 128,-1,47
 172 420 172 420 177 420 c 0,48,49
 189 420 189 420 202 429.5 c 128,-1,50
 215 439 215 439 228 439 c 0,51,52
 233 439 233 439 239 431.5 c 128,-1,53
 245 424 245 424 249 415.5 c 128,-1,54
 253 407 253 407 254 399.5 c 128,-1,55
 255 392 255 392 249 392 c 0,56,57
 227 392 227 392 210 387.5 c 128,-1,58
 193 383 193 383 181 369 c 128,-1,59
 169 355 169 355 162.5 329 c 128,-1,60
 156 303 156 303 156 262 c 2,61,-1
 156 113 l 2,62,63
 156 80 156 80 169.5 61.5 c 128,-1,64
 183 43 183 43 205 43 c 0,65,66
 230 43 230 43 243 59 c 128,-1,67
 256 75 256 75 256 97 c 256,68,69
 256 119 256 119 243.5 134.5 c 128,-1,70
 231 150 231 150 209 150 c 2,71,-1
 168 150 l 1,0,-1
EndSplineSet
EndChar
StartChar: uni0E17
Encoding: 3607 3607 236
Width: 704
VWidth: 1473
Flags: W
HStem: 0 21G<180 233.909 564 623> 389 50<115.315 144> 548 52<117.867 195.683 462.949 545.702>
VStem: 52 53<456.678 534.868> 176 57<23.2383 63 63 79.7917 79.7917 136 136 145.93 263.062 362.391> 203.5 59<439.6 448.5 451.5 458.5 458.5 461.5 460 534.846> 564 59<0 522.918>
Fore
180 439 m 1,0,-1
 180 415 l 1,1,-1
 144 389 l 1,2,3
 102 389 102 389 77 419 c 128,-1,4
 52 449 52 449 52 494 c 256,5,6
 52 538 52 538 83.5 569 c 128,-1,7
 115 600 115 600 159 600 c 0,8,9
 211 600 211 600 239 569.5 c 128,-1,10
 267 539 267 539 267 483 c 0,11,12
 267 467 267 467 262.5 451.5 c 128,-1,13
 258 436 258 436 252.5 417.5 c 128,-1,14
 247 399 247 399 242 376.5 c 128,-1,15
 237 354 237 354 236 323 c 2,16,-1
 228 186 l 1,17,18
 246 261 246 261 274 334 c 128,-1,19
 302 407 302 407 337.5 465 c 128,-1,20
 373 523 373 523 415.5 558.5 c 128,-1,21
 458 594 458 594 504 594 c 0,22,23
 555 594 555 594 589 567.5 c 128,-1,24
 623 541 623 541 623 470 c 2,25,-1
 623 0 l 1,26,-1
 564 0 l 1,27,-1
 564 470 l 2,28,29
 564 505 564 505 548.5 523.5 c 128,-1,30
 533 542 533 542 510 542 c 0,31,32
 468 542 468 542 422 489 c 128,-1,33
 376 436 376 436 336 357 c 128,-1,34
 296 278 296 278 267.5 187.5 c 128,-1,35
 239 97 239 97 234 22 c 2,36,-1
 233 0 l 1,37,-1
 183 0 l 2,38,39
 177 0 177 0 173 3 c 128,-1,40
 169 6 169 6 172 21 c 0,41,42
 175 32 175 32 176 63 c 128,-1,43
 177 94 177 94 178.5 136 c 128,-1,44
 180 178 180 178 180 228 c 128,-1,45
 180 278 180 278 180 327 c 0,46,47
 180 355 180 355 184.5 376.5 c 128,-1,48
 189 398 189 398 194 415.5 c 128,-1,49
 199 433 199 433 203.5 448.5 c 128,-1,50
 208 464 208 464 208 480 c 0,51,52
 208 514 208 514 194.5 531 c 128,-1,53
 181 548 181 548 159 548 c 0,54,55
 134 548 134 548 119.5 532 c 128,-1,56
 105 516 105 516 105 494 c 256,57,58
 105 471 105 471 115 455 c 128,-1,59
 125 439 125 439 147 439 c 2,60,-1
 180 439 l 1,0,-1
EndSplineSet
EndChar
